<svg width="14" height="14" viewBox="0 0 14 14" fill="none" xmlns="http://www.w3.org/2000/svg">
<path d="M7 0C3.1376 0 0 3.1376 0 7C0 10.8624 3.1376 14 7 14C10.8624 14 14 10.8624 14 7C14 3.1376 10.8624 0 7 0ZM6.69565 0.77038V4.40353C5.75632 4.36777 4.88848 4.17637 4.11821 3.87568C4.25658 3.44509 4.42131 3.04673 4.60802 2.69158C5.17602 1.61115 5.93615 0.93576 6.69565 0.77038ZM7.30435 0.77038C8.06385 0.93576 8.82397 1.61115 9.39198 2.69158C9.57861 3.04657 9.74346 3.44531 9.88179 3.87568C9.11152 4.17637 8.24368 4.36777 7.30435 4.40353V0.77038ZM5.25476 0.855978C4.80136 1.24877 4.40183 1.78106 4.07065 2.41101C3.87513 2.78291 3.70663 3.19016 3.56182 3.6284C3.05356 3.38318 2.59299 3.09447 2.19701 2.78668C2.99794 1.87403 4.05301 1.19585 5.25476 0.855978ZM8.74524 0.855978C9.94699 1.19585 11.0021 1.87403 11.803 2.78668C11.407 3.09447 10.9464 3.38318 10.4382 3.6284C10.2933 3.18938 10.1249 2.77827 9.92935 2.40625C9.59817 1.7763 9.19864 1.24754 8.74524 0.855978ZM1.81658 3.26223C2.27058 3.61637 2.7958 3.94342 3.38111 4.21807C3.18447 4.97722 3.07037 5.81209 3.04823 6.69565H0.618207C0.678278 5.41524 1.11278 4.23648 1.81658 3.26223ZM12.1834 3.26223C12.8872 4.23648 13.3217 5.41524 13.3818 6.69565H10.9518C10.9293 5.81345 10.8152 4.97714 10.6189 4.21807C11.2042 3.94342 11.7294 3.61637 12.1834 3.26223ZM3.95177 4.4606C4.77496 4.77601 5.69647 4.98175 6.69565 5.01698V6.69565H3.65693C3.67828 5.8983 3.7824 5.14461 3.95177 4.4606ZM10.0482 4.4606C10.218 5.14535 10.3217 5.89722 10.3431 6.69565H7.30435V5.01698C8.30353 4.98175 9.22504 4.77601 10.0482 4.4606ZM0.618207 7.30435H3.04823C3.07042 8.19001 3.18838 9.02608 3.38587 9.78668C2.79888 10.0618 2.27164 10.3875 1.81658 10.7425C1.11199 9.76718 0.677497 8.58642 0.618207 7.30435ZM3.65693 7.30435H6.69565V8.98777C5.69648 9.023 4.77495 9.22874 3.95177 9.54416C3.78175 8.85895 3.67833 8.10343 3.65693 7.30435ZM7.30435 7.30435H10.3431C10.3219 8.10486 10.2186 8.85879 10.0482 9.54416C9.22505 9.22874 8.30352 9.023 7.30435 8.98777V7.30435ZM10.9518 7.30435H13.3818C13.3225 8.58642 12.888 9.76718 12.1834 10.7425C11.7284 10.3875 11.2011 10.0618 10.6141 9.78668C10.8116 9.02612 10.9296 8.18997 10.9518 7.30435ZM6.61005 9.59647C6.63812 9.5951 6.66746 9.59754 6.69565 9.59647V13.2296C5.93615 13.0642 5.17602 12.3888 4.60802 11.3084C4.42193 10.9545 4.25629 10.558 4.11821 10.1291C4.86536 9.83741 5.70312 9.64065 6.61005 9.59647ZM7.30435 9.59647C8.24368 9.63223 9.11152 9.82838 9.88179 10.1291C9.74371 10.5573 9.57807 10.9497 9.39198 11.3037C8.82397 12.3841 8.06385 13.064 7.30435 13.2296V9.59647ZM3.56182 10.3764C3.70633 10.813 3.87578 11.2183 4.07065 11.589C4.4043 12.2236 4.80669 12.7599 5.26427 13.1535C4.05795 12.8145 3.00027 12.129 2.19701 11.2133C2.59299 10.9055 3.05356 10.6216 3.56182 10.3764ZM10.4382 10.3764C10.9464 10.6216 11.407 10.9055 11.803 11.2133C10.9997 12.129 9.94205 12.8145 8.73573 13.1535C9.19331 12.7599 9.5957 12.2236 9.92935 11.589C10.1243 11.2182 10.2936 10.8131 10.4382 10.3764Z" fill="#7C7E82"/>
</svg>
