<svg width="16" height="16" viewBox="0 0 16 16" version="1.1" xmlns="http://www.w3.org/2000/svg" xmlns:xlink="http://www.w3.org/1999/xlink">
<g id="Canvas" fill="none">
<g id="&#208;&#154;&#208;&#190;&#209;&#128;&#208;&#183;&#208;&#184;&#208;&#189;&#208;&#176;">
<g id="&#208;&#156;&#208;&#190;&#208;&#189;&#209;&#130;&#208;&#176;&#208;&#182;&#208;&#189;&#208;&#176;&#209;&#143; &#208;&#190;&#208;&#177;&#208;&#187;&#208;&#176;&#209;&#129;&#209;&#130;&#209;&#140; 16 &#208;&#186;&#208;&#190;&#208;&#191;&#208;&#184;&#209;&#143; 8">
<g id="Vector (Stroke)">
<path fill='#31365E' fill-rule="evenodd" clip-rule="evenodd" d="M 1.5 1C 1.22386 1 1 1.22386 1 1.5C 1 1.77614 1.22386 2 1.5 2C 1.77614 2 2 1.77614 2 1.5C 2 1.22386 1.77614 1 1.5 1ZM 0 1.5C 0 0.671573 0.671573 0 1.5 0C 2.32843 0 3 0.671573 3 1.5C 3 2.32843 2.32843 3 1.5 3C 0.671573 3 0 2.32843 0 1.5Z" transform="translate(4 13)" />
</g>
<g id="Vector (Stroke)_2">
<path fill='#31365E' fill-rule="evenodd" clip-rule="evenodd" d="M 1.5 1C 1.22386 1 1 1.22386 1 1.5C 1 1.77614 1.22386 2 1.5 2C 1.77614 2 2 1.77614 2 1.5C 2 1.22386 1.77614 1 1.5 1ZM 0 1.5C 0 0.671573 0.671573 0 1.5 0C 2.32843 0 3 0.671573 3 1.5C 3 2.32843 2.32843 3 1.5 3C 0.671573 3 0 2.32843 0 1.5Z" transform="translate(10 13)" />
</g>
<g id="Vector (Stroke)_3">
<path fill='#31365E' fill-rule="evenodd" clip-rule="evenodd" d="M 0 0L 0.671834 0C 1.02188 0.00128391 1.36045 0.124955 1.62892 0.349588C 1.89115 0.569005 2.07035 0.871255 2.13725 1.20607L 4.74153 10.6353C 4.74158 10.6355 4.74147 10.6351 4.74153 10.6353C 4.77184 10.7432 4.83771 10.8384 4.92825 10.9045C 5.01895 10.9707 5.1293 11.0045 5.24153 11.0003L 5.25076 11L 14 11L 14 12L 5.26831 12C 4.93514 12.0101 4.60801 11.9089 4.33863 11.7122C 4.06652 11.5136 3.86921 11.2291 3.77847 10.9047L 3.77804 10.9031L 1.16215 1.43177L 1.15817 1.41C 1.13716 1.29522 1.07668 1.1914 0.987194 1.11652C 0.8979 1.04181 0.785338 1.0006 0.668927 1L 0 1L 0 0Z" />
</g>
<g id="Vector (Stroke)_4">
<path fill='#31365E' fill-rule="evenodd" clip-rule="evenodd" d="M 12.171 0.000809941C 12.4051 -0.00688758 12.6379 0.0403688 12.8505 0.138857C 13.0666 0.238898 13.2557 0.388925 13.4023 0.576534C 13.5488 0.764142 13.6487 0.983944 13.6934 1.21777C 13.7382 1.45159 13.7267 1.69272 13.6599 1.92122L 13.6518 1.94874L 13.6407 1.97515C 12.9198 3.68392 12.001 5.30221 10.903 6.79683L 10.7531 7.00081L 2 7.00081L 2 6.00081L 10.2452 6.00081C 11.2251 4.6354 12.0506 3.16525 12.7063 1.61729C 12.723 1.54809 12.7247 1.47602 12.7113 1.40592C 12.6964 1.32798 12.6631 1.25472 12.6142 1.19218C 12.5654 1.12964 12.5024 1.07963 12.4303 1.04629C 12.3583 1.01294 12.2794 0.997212 12.2001 1.00041L 12.1901 1.00081L 0 1.00081L 0 0.000809941L 12.171 0.000809941Z" transform="translate(2 2.99902)" />
</g>
</g>
</g>
</g>
</svg>

