<svg width="16" height="16" viewBox="0 0 16 16" version="1.1" xmlns="http://www.w3.org/2000/svg" xmlns:xlink="http://www.w3.org/1999/xlink">
<g id="Canvas" fill="none">
<g id="&#208;&#156;&#208;&#190;&#208;&#189;&#209;&#130;&#208;&#176;&#208;&#182;&#208;&#189;&#208;&#176;&#209;&#143; &#208;&#190;&#208;&#177;&#208;&#187;&#208;&#176;&#209;&#129;&#209;&#130;&#209;&#140; 16 &#208;&#186;&#208;&#190;&#208;&#191;&#208;&#184;&#209;&#143; 8.2">
<g id="Vector (Stroke)">
<path fill-rule="evenodd" clip-rule="evenodd" d="M 0 1.5C 0 0.671573 0.671573 0 1.5 0C 2.32843 0 3 0.671573 3 1.5C 3 2.32843 2.32843 3 1.5 3C 0.671573 3 0 2.32843 0 1.5Z" transform="translate(4 13)" fill="#FF8947"/>
</g>
<g id="Vector (Stroke)_2">
<path fill-rule="evenodd" clip-rule="evenodd" d="M 0 1.5C 0 0.671573 0.671573 0 1.5 0C 2.32843 0 3 0.671573 3 1.5C 3 2.32843 2.32843 3 1.5 3C 0.671573 3 0 2.32843 0 1.5Z" transform="translate(10 13)" fill="#FF8947"/>
</g>
<g id="Vector (Stroke)_3">
<path fill-rule="evenodd" clip-rule="evenodd" d="M 0 0L 0.68379 0C 1.04006 0.00128391 1.38466 0.124955 1.6579 0.349588C 1.9248 0.569005 2.1072 0.871255 2.17529 1.20607L 4.82591 10.6353C 4.82596 10.6355 4.82585 10.6351 4.82591 10.6353C 4.85677 10.7432 4.9238 10.8384 5.01595 10.9045C 5.10827 10.9707 5.22059 11.0045 5.33481 11.0003L 5.3442 11L 14.2491 11L 14.2491 12L 5.36206 12C 5.02297 12.0101 4.69001 11.9089 4.41585 11.7122C 4.13889 11.5136 3.93807 11.2291 3.84572 10.9047L 3.84528 10.9031L 1.18283 1.43177L 1.17878 1.41C 1.1574 1.29522 1.09584 1.1914 1.00476 1.11652C 0.913879 1.04181 0.799314 1.0006 0.680831 1L 0 1L 0 0Z" fill="#FF8947"/>
</g>
<g id="Vector (Stroke)_4">
<path d="M 12.3876 0.000809941C 12.6259 -0.00688758 12.8628 0.0403688 13.0792 0.138857C 13.2991 0.238898 13.4916 0.388925 13.6408 0.576534C 13.79 0.764142 13.8915 0.983944 13.9371 1.21777C 13.9827 1.45159 13.971 1.69272 13.903 1.92122L 13.8948 1.94874L 13.8834 1.97515C 13.1497 3.68392 12.2145 5.30221 11.097 6.79683L 10.9445 7.00081L 2.03559 7.00081L 0 0.000809941L 12.3876 0.000809941Z" transform="translate(2.03516 2.99902)" fill="#FF8947"/>
</g>
</g>
</g>
</svg>

