<svg width="22" height="15" viewBox="0 0 22 15" fill="none" xmlns="http://www.w3.org/2000/svg">
<path d="M21.5004 6.78331L15.0139 0.296818C14.6181 -0.0989393 13.9763 -0.0989393 13.5805 0.296818C13.1847 0.692656 13.1847 1.33433 13.5805 1.73017L18.3368 6.48647H1.01351C0.453811 6.48647 0 6.94029 0 7.49999C0 8.05961 0.453811 8.5135 1.01351 8.5135H18.3368L13.5807 13.2698C13.1849 13.6656 13.1849 14.3073 13.5807 14.7032C13.7785 14.9009 14.038 15 14.2974 15C14.5567 15 14.8161 14.9009 15.014 14.7032L21.5004 8.21667C21.8962 7.82083 21.8962 7.17915 21.5004 6.78331Z" fill="#FF7800"/>
</svg>
