<svg width="11" height="18" viewBox="0 0 11 18" fill="none" xmlns="http://www.w3.org/2000/svg">
<path d="M3.96729 20.0137V19.2949C3.96729 18.4714 4.11702 17.7863 4.4165 17.2397C4.71598 16.6932 5.24007 16.1279 5.98877 15.5439C6.87972 14.8402 7.45247 14.2936 7.70703 13.9043C7.96908 13.515 8.1001 13.0508 8.1001 12.5117C8.1001 11.8828 7.89046 11.3999 7.47119 11.063C7.05192 10.7261 6.44922 10.5576 5.66309 10.5576C4.95182 10.5576 4.29297 10.6587 3.68652 10.8608C3.08008 11.063 2.48861 11.3063 1.91211 11.5908L0.96875 9.61426C2.48861 8.76823 4.11702 8.34521 5.854 8.34521C7.32145 8.34521 8.48568 8.70459 9.34668 9.42334C10.2077 10.1421 10.6382 11.1341 10.6382 12.3994C10.6382 12.9609 10.5558 13.4626 10.3911 13.9043C10.2264 14.3385 9.97559 14.7541 9.63867 15.1509C9.30924 15.5477 8.73649 16.0643 7.92041 16.7007C7.22412 17.2472 6.75618 17.7002 6.5166 18.0596C6.28451 18.4189 6.16846 18.9019 6.16846 19.5083V20.0137H3.96729ZM3.50684 23.5962C3.50684 22.4657 4.05713 21.9004 5.15771 21.9004C5.69678 21.9004 6.10856 22.0501 6.39307 22.3496C6.67757 22.6416 6.81982 23.0571 6.81982 23.5962C6.81982 24.1278 6.67383 24.5508 6.38184 24.8652C6.09733 25.1722 5.68929 25.3257 5.15771 25.3257C4.62614 25.3257 4.2181 25.1759 3.93359 24.8765C3.64909 24.5695 3.50684 24.1427 3.50684 23.5962Z" transform="translate(-0.5 -7.5)" fill="#9CE1FE"/>
</svg>
