<svg width="15" height="15" viewBox="0 0 15 15" fill="none" xmlns="http://www.w3.org/2000/svg">
<path d="M8.82695 7.50016L14.7258 1.60135C15.0922 1.23517 15.0922 0.641039 14.7258 0.274865C14.3593 -0.0916217 13.7658 -0.0916217 13.3993 0.274865L7.50047 6.17367L1.60135 0.274865C1.23486 -0.0916217 0.641352 -0.0916217 0.274865 0.274865C-0.0916217 0.641039 -0.0916217 1.23517 0.274865 1.60135L6.17399 7.50016L0.274865 13.399C-0.0916217 13.7651 -0.0916217 14.3593 0.274865 14.7254C0.458108 14.9084 0.698263 15 0.938106 15C1.17795 15 1.4181 14.9084 1.60135 14.7251L7.50047 8.82632L13.3993 14.7251C13.5825 14.9084 13.8227 15 14.0625 15C14.3024 15 14.5425 14.9084 14.7258 14.7251C15.0922 14.359 15.0922 13.7648 14.7258 13.3987L8.82695 7.50016Z" fill="#232323"/>
</svg>
