<svg width="4" height="19" viewBox="0 0 4 19" fill="none" xmlns="http://www.w3.org/2000/svg">
<path d="M3.07422 21.5801H0.950195L0.31543 9.15332H3.69678L3.07422 21.5801ZM0.168945 25.4741C0.168945 24.8719 0.327637 24.4162 0.64502 24.1069C0.962402 23.7896 1.41406 23.6309 2 23.6309C2.5778 23.6309 3.02132 23.7936 3.33057 24.1191C3.63981 24.4447 3.79443 24.8963 3.79443 25.4741C3.79443 26.0519 3.63574 26.5117 3.31836 26.8535C3.00911 27.1872 2.56966 27.354 2 27.354C1.4222 27.354 0.97054 27.1912 0.64502 26.8657C0.327637 26.5402 0.168945 26.0763 0.168945 25.4741Z" transform="translate(0 -9)" fill="#FF7A71"/>
</svg>
