<svg width="232" height="43" viewBox="0 0 232 43" fill="none" xmlns="http://www.w3.org/2000/svg">
<path d="M231.817 3.93189L193.571 3.81274V3.93189V42.0587H231.698V3.93189H231.817ZM229.435 39.6758H196.074V6.31482H229.435V39.6758Z" fill="#BABABA"/>
<path d="M200.482 23.2339L200.839 18.2297H207.75V20.0169H202.746L202.627 22.0424H202.746C203.222 21.5658 203.58 21.4467 204.414 21.4467H205.605C206.558 21.4467 207.035 21.5658 207.392 21.9233C207.869 22.3999 207.988 23.1147 207.988 24.4253C207.988 26.0934 207.75 26.6891 207.273 27.1657C206.916 27.5232 206.439 27.6423 205.605 27.6423H202.746C201.912 27.6423 201.316 27.5232 200.959 27.1657C200.482 26.6891 200.363 26.0934 200.363 24.5445H202.507C202.507 25.3785 202.627 25.6168 202.746 25.736C202.865 25.8551 202.984 25.8551 203.461 25.8551H204.89C205.248 25.8551 205.486 25.8551 205.486 25.736C205.605 25.6168 205.724 25.3785 205.724 24.4253C205.724 23.5913 205.605 23.353 205.486 23.2339C205.367 23.1147 205.248 23.1147 204.89 23.1147H203.937C203.341 23.1147 202.865 23.2339 202.269 23.5913L200.482 23.2339Z" fill="#BABABA"/>
<path d="M213.588 18.2297C214.66 18.2297 215.137 18.3489 215.494 18.7063C216.09 19.1829 216.567 20.2552 216.567 22.9956C216.567 25.736 216.09 26.6891 215.494 27.2849C215.137 27.6423 214.541 27.7614 213.588 27.7614H211.324C210.252 27.7614 209.775 27.6423 209.418 27.2849C208.822 26.8083 208.346 25.736 208.346 22.9956C208.346 20.2552 208.822 19.3021 209.418 18.7063C209.775 18.3489 210.371 18.2297 211.324 18.2297H213.588ZM211.92 20.0169C211.443 20.0169 211.205 20.0169 211.205 20.1361C211.086 20.2552 210.848 20.6127 210.848 22.9956C210.848 25.3785 211.086 25.736 211.205 25.8551C211.324 25.9742 211.443 25.9742 211.92 25.9742H213.111C213.588 25.9742 213.826 25.9742 213.946 25.8551C214.065 25.736 214.303 25.3785 214.303 22.9956C214.303 20.6127 214.065 20.2552 213.946 20.1361C213.826 20.0169 213.707 20.0169 213.111 20.0169H211.92Z" fill="#BABABA"/>
<path d="M222.167 18.2297C223.239 18.2297 223.715 18.3489 224.073 18.7063C224.669 19.1829 225.145 20.2552 225.145 22.9956C225.145 25.736 224.669 26.6891 224.073 27.2849C223.715 27.6423 223.12 27.7614 222.167 27.7614H219.903C218.83 27.7614 218.354 27.6423 217.996 27.2849C217.401 26.8083 216.924 25.736 216.924 22.9956C216.924 20.2552 217.401 19.3021 217.996 18.7063C218.354 18.3489 218.95 18.2297 219.903 18.2297H222.167ZM220.499 20.0169C220.022 20.0169 219.784 20.0169 219.664 20.1361C219.545 20.2552 219.307 20.6127 219.307 22.9956C219.307 25.3785 219.545 25.736 219.664 25.8551C219.784 25.9742 219.903 25.9742 220.499 25.9742H221.69C222.167 25.9742 222.405 25.9742 222.524 25.8551C222.643 25.736 222.881 25.3785 222.881 22.9956C222.881 20.6127 222.643 20.2552 222.524 20.1361C222.405 20.0169 222.286 20.0169 221.69 20.0169H220.499Z" fill="#BABABA"/>
<path d="M65.2507 18.9441L65.7273 20.0164C64.1784 20.9696 62.0338 21.5653 59.8891 21.5653C54.7659 21.5653 51.9063 18.8249 51.9063 12.9868C51.9063 7.38688 54.2893 3.93164 60.2466 3.93164C62.8678 3.93164 64.655 4.52737 65.2507 4.64652C65.2507 5.83798 65.2507 7.02945 65.2507 8.22091H64.1784L63.9401 7.14859C63.5827 5.83798 62.7487 5.00396 60.4849 5.00396C56.9105 5.00396 55.9573 7.62518 55.9573 12.2719C55.9573 16.6803 56.7913 19.8973 61.0806 19.8973C62.987 19.8973 64.1784 19.4207 65.2507 18.9441ZM73.1144 5.3614C72.0421 5.3614 71.9229 5.59969 71.9229 6.31457V10.3655H72.8761C77.5228 10.3655 80.8589 10.8421 80.8589 15.608C80.8589 20.1355 78.2377 21.327 74.1867 21.327H67.3954V20.8504C68.2294 20.6121 68.3485 20.3738 68.3485 19.5398V6.07627C68.3485 5.1231 68.2294 4.88481 67.3954 4.76567V4.28908H80.0249C80.0249 5.48054 80.0249 6.79115 80.0249 7.98262H79.0717L78.8334 7.26774C78.3568 5.48054 77.7611 5.3614 75.4973 5.3614H73.1144ZM73.9484 20.1355C76.2122 20.1355 77.0462 18.7058 77.0462 15.7271C77.0462 12.9868 76.3313 11.4379 73.4718 11.4379H72.0421V18.7058C72.0421 19.7781 72.3995 20.1355 73.591 20.1355H73.9484ZM88.246 5.3614C87.5311 5.3614 87.412 5.59969 87.412 6.07627V11.3187H89.6757C90.6289 11.3187 92.0587 11.1996 92.6544 10.8421V12.9868C92.0587 12.6293 90.6289 12.5102 89.6757 12.5102H87.412V18.8249C87.412 19.8972 87.7694 20.1355 90.0332 20.1355H90.5098C92.7735 20.1355 93.2501 20.0164 93.7267 17.8718L93.8458 17.276H94.9182C94.9182 18.5866 94.9182 19.8973 94.9182 21.2079H82.7652V20.7313C83.5993 20.493 83.7184 20.2547 83.7184 19.4207V6.07627C83.7184 5.1231 83.5993 4.88481 82.7652 4.76567V4.28908H94.5607C94.5607 5.48054 94.5607 6.79115 94.5607 7.98262H93.6076L93.3693 7.26774C92.8927 5.48054 92.1778 5.3614 90.0332 5.3614H88.246ZM97.1819 21.2079V20.7313C98.016 20.493 98.1351 20.2547 98.1351 19.4207V6.07627C98.1351 5.1231 98.016 4.88481 97.1819 4.76567V4.28908H104.212C107.548 4.28908 110.05 5.1231 110.05 9.17408C110.05 13.3442 107.548 14.5357 103.378 14.5357H101.71V19.4207C101.71 20.3738 101.829 20.6121 102.663 20.7313V21.2079H97.1819ZM103.497 13.4633C105.76 13.4633 106.237 11.6762 106.237 9.05493C106.237 6.79115 105.403 5.3614 103.139 5.3614H102.782C102.067 5.3614 101.71 5.48054 101.71 6.31457V13.4633H103.497ZM117.437 5.3614C116.365 5.3614 116.245 5.59969 116.245 6.31457V10.3655H117.199C121.845 10.3655 125.181 10.8421 125.181 15.608C125.181 20.1355 122.56 21.327 118.39 21.327H111.599V20.8504C112.433 20.6121 112.552 20.3738 112.552 19.5398V6.07627C112.552 5.1231 112.433 4.88481 111.599 4.76567V4.28908H124.228C124.228 5.48054 124.228 6.79115 124.228 7.98262H123.275L123.037 7.26774C122.56 5.48054 121.845 5.3614 119.701 5.3614H117.437ZM118.271 20.1355C120.535 20.1355 121.369 18.7058 121.369 15.7271C121.369 12.9868 120.654 11.4379 117.794 11.4379H116.365V18.7058C116.365 19.7781 116.603 20.1355 117.913 20.1355H118.271ZM137.454 21.2079C137.334 20.2547 136.739 18.5866 136.262 17.276L135.547 15.1314H130.186C129.59 16.7994 129.232 18.2292 128.994 19.1824C128.756 20.1355 128.637 20.8504 128.637 21.327H125.539C125.896 20.7313 126.73 19.1824 127.922 16.3229L131.02 8.57835C131.735 6.9103 131.854 6.31457 131.854 5.83798C131.854 5.48054 131.735 5.00396 130.9 4.88481V4.28908H135.785C135.905 4.76567 135.905 5.3614 136.381 6.79115L139.956 16.9186C140.67 18.9441 141.385 20.6121 141.743 21.2079H137.454ZM135.309 13.9399L132.926 7.14859L130.543 13.9399H135.309ZM154.253 12.5102H147.7V19.4207C147.7 20.3738 147.819 20.6121 148.653 20.7313V21.2079H143.053V20.7313C143.887 20.493 144.007 20.2547 144.007 19.4207V6.07627C144.007 5.1231 143.887 4.88481 143.053 4.76567V4.28908H148.653V4.76567C147.819 5.00396 147.7 5.24225 147.7 6.07627V11.3187H154.253V6.07627C154.253 5.1231 154.134 4.88481 153.3 4.76567V4.28908H158.9V4.76567C158.066 5.00396 157.947 5.24225 157.947 6.07627V19.3015C157.947 20.2547 158.066 20.493 158.9 20.6121V21.0887H153.3V20.6121C154.134 20.3738 154.253 20.1355 154.253 19.3015V12.5102ZM162.593 6.07627C162.593 5.1231 162.474 4.88481 161.64 4.76567V4.28908H167.24V4.76567C166.406 5.00396 166.287 5.24225 166.287 6.07627V19.3015C166.287 20.2547 166.406 20.493 167.24 20.6121V21.0887H161.64V20.6121C162.474 20.3738 162.593 20.1355 162.593 19.3015V6.07627ZM171.529 13.8208C172.721 15.4888 175.461 19.1824 177.487 21.2079H171.768C171.41 20.2547 170.695 18.8249 169.027 16.2037L166.406 12.391L168.67 9.53152C169.98 7.86347 171.768 5.48054 172.244 4.28908H176.176C174.627 5.24225 171.887 7.98263 171.053 8.81665L169.266 10.723L171.529 13.8208Z" fill="#BABABA"/>
<path d="M177.487 25.4973H53.217V27.1654H177.487V25.4973Z" fill="#BABABA"/>
<path d="M32.6048 1.31061C31.8899 0.834024 30.9367 0.357439 30.1027 0L13.1839 9.77L5.67772 5.36158C5.08199 5.95732 4.6054 6.67219 4.12881 7.26793L13.1839 12.5104L32.6048 1.31061Z" fill="#BABABA"/>
<path d="M36.7749 4.40828C36.1791 3.81255 35.5834 3.33597 34.8685 2.74023L13.1839 15.2506L2.8181 9.29328C2.46066 9.88901 2.10322 10.6039 1.86493 11.3188L13.303 17.8718L36.7749 4.40828Z" fill="#BABABA"/>
<path d="M39.8726 8.10214C39.5151 7.50641 39.1577 7.02982 38.6811 6.43409C38.562 6.31495 38.562 6.1958 38.4428 6.1958L13.1838 20.6125L1.03088 13.5829C0.911735 14.0595 0.792589 14.536 0.673443 14.8935C0.554296 15.2509 0.554296 15.6084 0.43515 15.9658L13.1838 23.3529L39.8726 8.10214Z" fill="#BABABA"/>
<path d="M41.0642 10.1274L13.1839 26.0931L0.0778099 18.5868C0.0778099 18.5868 -0.160483 20.9698 0.196956 23.3527C1.74585 33.7184 10.801 41.7012 21.7625 41.7012C33.7962 41.7012 43.6854 32.0504 43.6854 20.1357C43.6854 17.7528 43.328 15.6082 42.6131 13.4635C41.8982 11.1998 41.0642 10.1274 41.0642 10.1274Z" fill="#BABABA"/>
<path d="M52.7406 37.8887C52.7406 36.1015 54.4086 35.6249 55.7192 35.6249H57.3874V34.7909C57.3874 33.7186 56.7916 33.5994 55.6002 33.5994C54.8853 33.5994 54.0512 33.8377 53.6937 33.9569L53.4556 32.8845C53.9321 32.6463 54.8852 32.408 55.9575 32.408C57.7447 32.408 58.8171 33.0037 58.8171 34.5526V38.4844C58.8171 38.961 59.1745 39.0802 59.5319 39.0802L59.4129 40.1525C59.2937 40.1525 59.1745 40.1525 59.0553 40.1525C58.3404 40.1525 57.6256 39.9142 57.5064 39.1993C57.149 39.4376 56.3149 40.1525 55.1235 40.1525C53.5746 40.0333 52.7406 39.3184 52.7406 37.8887ZM57.3874 38.2461V36.5781L55.8385 36.6972C54.7662 36.6972 54.2895 37.1738 54.2895 37.8887C54.2895 38.7227 54.766 38.961 55.4809 38.961C56.1958 38.961 57.0299 38.3653 57.3874 38.2461Z" fill="#BABABA"/>
<path d="M65.251 32.5273H66.6807V39.9144H65.251V32.5273ZM68.8254 38.723L66.6807 36.1017L69.5404 32.5273H71.2083L68.2296 35.9826L69.6594 37.6506C70.2551 38.3655 70.8508 38.8421 71.4466 38.9612L71.2083 40.0336C70.6125 40.0336 69.7785 39.9144 68.8254 38.723Z" fill="#BABABA"/>
<path d="M76.4506 36.2206C76.4506 33.8377 77.8803 32.408 80.1441 32.408C81.2164 32.408 81.8122 32.6463 82.2887 32.8845L81.9313 33.9569C81.4547 33.7186 80.9781 33.5994 80.2633 33.5994C78.9527 33.5994 78.1186 34.4334 78.1186 36.2206C78.1186 38.0078 78.7144 38.961 80.7399 38.961C81.3356 38.961 81.8122 38.8419 82.1696 38.7227L82.4079 39.795C81.9313 39.9142 81.3356 40.0333 80.6207 40.0333C77.642 40.0333 76.4506 38.961 76.4506 36.2206Z" fill="#BABABA"/>
<path d="M87.2931 36.3398C87.2931 33.3611 88.842 32.2888 90.7483 32.2888C92.7738 32.2888 93.6078 33.5994 93.6078 35.9824V36.4589H88.7228C88.7228 38.4844 89.7951 38.8419 91.2249 38.8419C91.7015 38.8419 92.6546 38.6036 93.1312 38.6036L93.3695 39.6759C93.0121 39.795 92.0589 40.0333 90.8675 40.0333C88.7228 40.1525 87.2931 39.1993 87.2931 36.3398ZM92.0589 35.6249C92.0589 34.3143 91.5823 33.3611 90.51 33.3611C89.4377 33.3611 88.7228 34.076 88.7228 35.6249H92.0589Z" fill="#BABABA"/>
<path d="M98.4926 38.9612C98.9692 38.723 99.565 38.4847 99.9224 37.8889C100.28 37.1741 100.637 35.0294 100.637 32.5273H105.403V39.9144H103.973V33.5997H101.829C101.59 36.2209 101.352 37.7698 100.876 38.6038C100.399 39.3187 99.8033 39.7953 98.8501 40.0336L98.4926 38.9612Z" fill="#BABABA"/>
<path d="M111.361 36.3398C111.361 33.3611 112.909 32.2888 114.816 32.2888C116.841 32.2888 117.675 33.5994 117.675 35.9824V36.4589H112.79C112.79 38.4844 113.863 38.8419 115.292 38.8419C115.769 38.8419 116.722 38.6036 117.199 38.6036L117.437 39.6759C117.08 39.795 116.126 40.0333 114.935 40.0333C112.79 40.1525 111.361 39.1993 111.361 36.3398ZM116.126 35.6249C116.126 34.3143 115.65 33.3611 114.578 33.3611C113.505 33.3611 112.79 34.076 112.79 35.6249H116.126Z" fill="#BABABA"/>
<path d="M123.513 32.5271H124.943V33.1228C125.42 32.7654 126.135 32.408 126.969 32.408C128.875 32.408 130.066 33.5994 130.066 35.9823C130.066 39.0802 128.279 40.0333 126.373 40.0333C125.777 40.0333 125.42 39.9142 125.062 39.9142V42.8928H123.633V32.5271H123.513ZM128.518 36.2206C128.518 34.6717 128.041 33.5994 126.492 33.5994C125.896 33.5994 125.181 34.076 124.824 34.1952V38.8419C125.181 38.8419 125.42 38.961 126.254 38.961C127.803 38.961 128.518 37.7695 128.518 36.2206Z" fill="#BABABA"/>
<path d="M135.309 37.8887C135.309 36.1015 136.977 35.6249 138.288 35.6249H139.956V34.7909C139.956 33.7186 139.36 33.5994 138.168 33.5994C137.454 33.5994 136.619 33.8377 136.262 33.9569L136.024 32.8845C136.5 32.6463 137.454 32.408 138.526 32.408C140.313 32.408 141.385 33.0037 141.385 34.5526V38.4844C141.385 38.961 141.743 39.0802 142.1 39.0802L141.981 40.1525C141.862 40.1525 141.743 40.1525 141.624 40.1525C140.909 40.1525 140.194 39.9142 140.075 39.1993C139.717 39.4376 138.883 40.1525 137.692 40.1525C136.143 40.0333 135.309 39.3184 135.309 37.8887ZM139.836 38.2461V36.5781L138.288 36.6972C137.215 36.6972 136.739 37.1738 136.739 37.8887C136.739 38.7227 137.215 38.961 137.93 38.961C138.645 38.961 139.598 38.3653 139.836 38.2461Z" fill="#BABABA"/>
<path d="M149.368 33.7183H146.866V32.646H153.181V33.7183H150.679V40.0331H149.249V33.7183H149.368Z" fill="#BABABA"/>
<path d="M158.185 36.3398C158.185 33.8377 159.615 32.408 161.759 32.408C164.142 32.408 165.215 33.8377 165.215 36.3398C165.215 38.961 163.666 40.1525 161.64 40.1525C159.496 40.1525 158.185 38.7227 158.185 36.3398ZM163.785 36.2206C163.785 34.91 163.428 33.4803 161.759 33.4803C160.091 33.4803 159.734 34.91 159.734 36.2206C159.734 37.6504 160.211 38.961 161.879 38.961C163.308 38.961 163.785 37.6504 163.785 36.2206Z" fill="#BABABA"/>
<path d="M171.053 32.5271H172.483V33.1228C172.959 32.7654 173.674 32.408 174.508 32.408C176.414 32.408 177.606 33.5994 177.606 35.9823C177.606 39.0802 175.819 40.0333 173.912 40.0333C173.317 40.0333 172.959 39.9142 172.602 39.9142V42.8928H171.172V32.5271H171.053ZM176.057 36.2206C176.057 34.6717 175.58 33.5994 174.031 33.5994C173.436 33.5994 172.721 34.076 172.363 34.1952V38.8419C172.721 38.8419 172.959 38.961 173.793 38.961C175.342 38.961 176.057 37.7695 176.057 36.2206Z" fill="#BABABA"/>
</svg>
