<svg width="125" height="46" viewBox="0 0 125 46" fill="none" xmlns="http://www.w3.org/2000/svg">
<path d="M123.971 45.5345C120.082 45.5345 116.497 45.5345 112.425 45.5345C112.425 44.4928 112.425 43.3897 112.425 42.3479C112.364 33.9525 112.425 25.6183 112.121 17.2229C111.939 11.8915 109.569 9.37895 105.619 9.13382C101.122 8.8887 96.7463 12.1366 95.9563 16.7939C95.4093 20.2256 95.227 23.7186 95.1662 27.1503C95.0447 33.1558 95.1055 39.1614 95.1055 45.412C91.2769 45.412 87.57 45.412 83.6807 45.412C83.6807 30.8272 83.6807 16.1811 83.6807 1.47374C87.2053 1.47374 90.6085 1.47374 94.1331 1.47374C94.1939 3.25088 94.3155 4.84418 94.3762 6.92772C95.7132 5.82467 96.6855 4.90546 97.7794 4.04753C105.497 -2.14182 116.557 -1.16133 121.297 6.49875C122.817 8.94998 123.728 12.1979 123.789 15.1393C124.154 25.1894 123.971 35.1781 123.971 45.5345Z" fill="#BABABA"/>
<path d="M0 1.78029C4.01084 1.78029 7.53551 1.78029 11.4248 1.78029C11.4248 3.80256 11.4248 5.64098 11.4248 7.54068C11.4248 14.159 11.364 20.7773 11.4248 27.4569C11.4856 32.5432 14.0987 35.1783 18.8388 35.1783C23.6396 35.1783 26.6781 32.2368 26.7389 27.4569C26.7997 24.3929 26.7389 21.3901 26.7389 18.1422C25.402 18.081 24.3081 18.0197 22.5458 17.8971C28.8659 14.2203 32.8159 9.31782 35.2467 3.00591C35.5506 2.27054 36.7052 1.84157 37.9814 0.922363C37.9814 16.3651 37.9814 30.9499 37.9814 45.6573C34.3352 45.6573 30.7498 45.6573 26.8605 45.6573C26.8605 43.9414 26.8605 42.2868 26.8605 39.713C22.6065 44.7993 17.6841 46.1475 12.0933 45.7185C5.04393 45.167 0 39.7743 0 32.6045C0 23.2898 0 14.0364 0 4.72177C0 3.86384 0 2.94463 0 1.78029Z" fill="#BABABA"/>
<path d="M70.4327 28.4985C74.0182 29.1113 77.4821 29.7241 81.1283 30.3369C80.0344 36.7714 77.0567 41.7351 71.1012 44.0025C58.3394 48.9049 41.3845 44.4927 41.0807 24.7603C41.0199 21.7576 41.263 18.571 41.9922 15.6908C44.6661 5.45693 54.3894 -0.119614 65.875 1.84137C73.9574 3.18954 79.3052 8.15328 80.156 15.1393C79.7306 15.2618 79.2444 15.4457 78.819 15.507C75.8413 15.9972 72.8635 16.4874 69.9466 16.9164C67.3942 11.156 64.7811 9.56273 59.6764 10.6045C55.9086 11.3399 53.1132 15.078 52.9309 20.0417C52.8093 22.9832 52.8701 25.986 53.3563 28.8661C54.2678 33.8912 57.0633 36.3424 61.4387 36.465C66.3003 36.6488 68.3058 35.0555 70.0073 29.6015C70.0073 29.4177 70.1896 29.1113 70.4327 28.4985Z" fill="#BABABA"/>
</svg>
