<svg width="223" height="59" viewBox="0 0 223 59" fill="none" xmlns="http://www.w3.org/2000/svg">
<path d="M64.9455 14.8201C64.9455 14.8201 63.7515 1.42964 68.826 0L64.9455 14.8201Z" fill="#BABABA"/>
<path d="M183.763 52.949C183.646 52.7273 183.486 52.5313 183.292 52.373C183.088 52.2089 182.865 52.0716 182.627 51.9645C182.379 51.8528 182.126 51.7498 181.867 51.6555L181.108 51.3727C180.876 51.2863 180.653 51.1776 180.443 51.0481C180.259 50.9377 180.098 50.7917 179.972 50.6186C179.85 50.4379 179.788 50.2237 179.793 50.0059C179.792 49.8362 179.828 49.6681 179.898 49.5137C179.97 49.3623 180.076 49.2296 180.207 49.1262C180.363 49.0064 180.541 48.9192 180.731 48.8696C180.97 48.8057 181.217 48.7758 181.464 48.7805C181.713 48.776 181.962 48.8059 182.202 48.8696C182.391 48.9215 182.574 48.988 182.752 49.0685C182.88 49.1268 183.005 49.1933 183.124 49.2675C183.187 49.3149 183.261 49.3455 183.339 49.3566C183.373 49.3566 183.406 49.3455 183.433 49.3252C183.463 49.3022 183.487 49.2714 183.501 49.2361C183.521 49.1927 183.535 49.147 183.543 49.1C183.548 49.0407 183.548 48.9812 183.543 48.9219C183.547 48.8644 183.547 48.8066 183.543 48.7491C183.545 48.709 183.545 48.6688 183.543 48.6287C183.533 48.5948 183.517 48.563 183.496 48.5344C183.46 48.4913 183.418 48.4541 183.37 48.4244C183.283 48.3671 183.192 48.3163 183.098 48.2726C182.961 48.2071 182.819 48.1528 182.674 48.1102C182.502 48.0579 182.327 48.0177 182.15 47.9898C181.951 47.959 181.749 47.9433 181.548 47.9426C181.13 47.9343 180.714 47.9962 180.317 48.1259C180.004 48.2288 179.714 48.3925 179.464 48.6077C179.251 48.7936 179.083 49.0243 178.971 49.2833C178.866 49.5262 178.81 49.7881 178.809 50.0531C178.801 50.3425 178.862 50.6298 178.987 50.891C179.102 51.1185 179.26 51.3214 179.453 51.4879C179.653 51.6585 179.875 51.8012 180.113 51.9121C180.357 52.0273 180.609 52.1338 180.867 52.2316L181.621 52.5144C181.851 52.5972 182.072 52.7025 182.281 52.8286C182.462 52.9374 182.62 53.0795 182.747 53.2475C182.87 53.4199 182.932 53.6278 182.925 53.8393C182.93 54.0498 182.883 54.2584 182.789 54.4467C182.698 54.6205 182.565 54.7683 182.401 54.8761C182.222 54.9938 182.024 55.0789 181.815 55.1275C181.274 55.2484 180.712 55.2377 180.176 55.0961C179.948 55.0303 179.725 54.9463 179.511 54.8447C179.326 54.754 179.17 54.6702 179.045 54.5934C178.961 54.5319 178.864 54.4923 178.762 54.4781C178.727 54.4769 178.692 54.486 178.662 54.5043C178.63 54.5261 178.604 54.5571 178.589 54.5934C178.568 54.6385 178.552 54.686 178.542 54.7348C178.535 54.7974 178.535 54.8606 178.542 54.9233C178.54 55.0351 178.556 55.1464 178.589 55.2532C178.617 55.3344 178.665 55.4067 178.73 55.4627C178.826 55.5364 178.93 55.5996 179.039 55.6512C179.208 55.7343 179.383 55.8026 179.563 55.8554C179.784 55.9234 180.01 55.9759 180.239 56.0125C180.5 56.0552 180.765 56.0762 181.029 56.0754C181.441 56.0799 181.852 56.0271 182.25 55.9183C182.591 55.8261 182.912 55.6716 183.197 55.4627C183.454 55.2709 183.662 55.0216 183.805 54.7348C183.952 54.4332 184.025 54.1013 184.02 53.7659C184.028 53.4848 183.967 53.206 183.842 52.9542" fill="#BABABA"/>
<path d="M178.311 48.4297C178.316 48.3879 178.316 48.3458 178.311 48.304C178.304 48.2784 178.293 48.2538 178.28 48.2307C178.26 48.2034 178.235 48.1803 178.207 48.1626C178.148 48.1267 178.084 48.0986 178.018 48.0788C177.915 48.0457 177.81 48.0195 177.704 48.0003C177.597 47.979 177.488 47.9633 177.379 47.9532H177.112C176.936 47.9523 176.76 47.9716 176.589 48.0108C176.403 48.0553 176.226 48.1296 176.065 48.2307C175.862 48.3589 175.673 48.51 175.505 48.6811C175.273 48.9194 175.059 49.175 174.866 49.4456V48.2516C174.873 48.2224 174.873 48.1919 174.866 48.1626C174.848 48.1334 174.823 48.1098 174.792 48.0945C174.745 48.0713 174.693 48.0571 174.64 48.0527H174.389C174.307 48.0472 174.225 48.0472 174.143 48.0527C174.089 48.0584 174.036 48.0725 173.986 48.0945C173.962 48.0995 173.939 48.1096 173.919 48.124C173.899 48.1385 173.883 48.157 173.871 48.1783C173.864 48.2076 173.864 48.2381 173.871 48.2674V55.7769C173.864 55.8062 173.864 55.8367 173.871 55.8659C173.89 55.8978 173.919 55.9219 173.954 55.934C174.007 55.9539 174.061 55.9679 174.117 55.9759C174.2 55.9824 174.285 55.9824 174.368 55.9759C174.455 55.9827 174.543 55.9827 174.63 55.9759C174.686 55.9686 174.74 55.9546 174.792 55.934C174.827 55.9202 174.856 55.8965 174.876 55.8659C174.893 55.8393 174.902 55.8085 174.902 55.7769V50.6972C175.126 50.3481 175.332 50.0636 175.52 49.8436C175.676 49.6403 175.852 49.4527 176.044 49.2833C176.19 49.1564 176.354 49.0522 176.531 48.9743C176.68 48.9122 176.841 48.8802 177.002 48.8801C177.127 48.8788 177.252 48.8911 177.374 48.9167L177.683 48.9953L177.934 49.0738C177.995 49.0966 178.058 49.109 178.123 49.1105C178.154 49.1112 178.184 49.0999 178.207 49.0791C178.23 49.0551 178.248 49.0265 178.259 48.9953C178.276 48.9498 178.287 48.9022 178.291 48.8539C178.291 48.7963 178.291 48.723 178.291 48.6444C178.291 48.5659 178.291 48.4925 178.291 48.4402" fill="#BABABA"/>
<path d="M172.431 50.0953C172.309 49.6879 172.102 49.3112 171.823 48.9903C171.535 48.6625 171.177 48.4031 170.776 48.231C170.278 48.0275 169.742 47.9312 169.205 47.9482C168.68 47.9409 168.159 48.0352 167.67 48.2258C167.222 48.4033 166.82 48.6789 166.492 49.0322C166.154 49.4025 165.897 49.8396 165.738 50.3152C165.556 50.8657 165.467 51.4427 165.476 52.0224C165.465 52.6152 165.55 53.2059 165.727 53.7715C165.878 54.2441 166.132 54.6771 166.471 55.0388C166.81 55.3852 167.224 55.6487 167.681 55.8086C168.213 55.9913 168.773 56.0799 169.336 56.0705C169.686 56.0713 170.037 56.0433 170.383 55.9867C170.676 55.939 170.966 55.8761 171.252 55.7982C171.46 55.7435 171.663 55.6735 171.86 55.5887C171.958 55.5508 172.051 55.5016 172.137 55.4421C172.165 55.4172 172.19 55.3891 172.211 55.3583C172.229 55.3309 172.243 55.3009 172.253 55.2692C172.255 55.2361 172.255 55.2029 172.253 55.1697C172.255 55.1331 172.255 55.0964 172.253 55.0598C172.258 54.9901 172.258 54.92 172.253 54.8503C172.246 54.8031 172.231 54.7571 172.211 54.7141C172.195 54.681 172.169 54.6536 172.137 54.6356C172.105 54.6272 172.07 54.6272 172.038 54.6356C171.934 54.6476 171.833 54.6777 171.739 54.7246C171.6 54.784 171.425 54.852 171.216 54.9288C170.964 55.0137 170.707 55.0819 170.446 55.1331C170.114 55.1964 169.778 55.2263 169.44 55.2221C168.986 55.2347 168.533 55.1619 168.105 55.0074C167.765 54.878 167.462 54.6655 167.225 54.3895C166.992 54.1071 166.826 53.776 166.738 53.4207C166.636 53.0079 166.587 52.5838 166.592 52.1586H172.08C172.198 52.1555 172.313 52.1172 172.41 52.0486C172.47 52.0003 172.517 51.9375 172.546 51.866C172.575 51.7946 172.586 51.7169 172.577 51.6401V51.4411C172.596 50.9877 172.546 50.5341 172.431 50.0953ZM166.633 51.3207C166.65 50.9933 166.715 50.6703 166.827 50.3624C166.936 50.0645 167.101 49.7905 167.314 49.5559C167.538 49.3179 167.809 49.1289 168.11 49.0008C168.44 48.8568 168.797 48.7853 169.158 48.7913C169.487 48.7683 169.817 48.8163 170.126 48.9319C170.435 49.0476 170.715 49.2282 170.949 49.4616C171.376 49.9822 171.583 50.6495 171.525 51.3207H166.633Z" fill="#BABABA"/>
<path d="M164.486 50.3622C164.383 49.9109 164.192 49.4841 163.926 49.1053C163.666 48.7456 163.323 48.4544 162.926 48.257C162.461 48.0384 161.952 47.9326 161.439 47.948C161.185 47.947 160.932 47.9751 160.684 48.0318C160.444 48.0884 160.212 48.1746 159.993 48.2884C159.755 48.4123 159.529 48.5578 159.318 48.7231C159.07 48.9165 158.832 49.1228 158.605 49.341V48.2517C158.608 48.2149 158.598 48.1782 158.577 48.1477C158.556 48.1172 158.526 48.0948 158.49 48.0842C158.441 48.0658 158.39 48.0535 158.338 48.0475H158.118H157.893C157.841 48.0528 157.79 48.0651 157.741 48.0842C157.708 48.0969 157.68 48.121 157.663 48.1522C157.655 48.1849 157.655 48.2191 157.663 48.2517V58.7253C157.655 58.7545 157.655 58.7851 157.663 58.8143C157.682 58.8474 157.711 58.8731 157.747 58.8877C157.798 58.9095 157.853 58.9236 157.909 58.9296H158.16H158.422C158.478 58.9244 158.533 58.9103 158.584 58.8877C158.618 58.871 158.647 58.8457 158.668 58.8143C158.685 58.7877 158.694 58.7569 158.694 58.7253V54.8501C158.893 55.037 159.103 55.2119 159.323 55.3738C159.51 55.5156 159.71 55.6401 159.92 55.7456C160.113 55.843 160.317 55.9168 160.527 55.9655C160.746 56.0125 160.969 56.0353 161.192 56.0336C161.703 56.0437 162.211 55.9437 162.68 55.7404C163.103 55.5516 163.476 55.2664 163.769 54.9077C164.077 54.5206 164.303 54.0753 164.434 53.5985C164.591 53.0344 164.667 52.4507 164.659 51.8651C164.66 51.3591 164.602 50.8548 164.486 50.3622ZM163.439 53.19C163.361 53.5502 163.225 53.8951 163.036 54.2112C162.857 54.5066 162.611 54.7559 162.318 54.9391C162.003 55.1296 161.639 55.2259 161.271 55.2167C160.814 55.2131 160.369 55.0726 159.993 54.8134C159.519 54.4846 159.089 54.0956 158.715 53.6561V50.3936C158.939 50.1266 159.183 49.8763 159.443 49.6447C159.65 49.4615 159.873 49.2967 160.108 49.1525C160.305 49.0337 160.516 48.9421 160.737 48.8802C160.942 48.8247 161.153 48.7966 161.365 48.7964C161.733 48.7847 162.097 48.8792 162.413 49.0687C162.695 49.2515 162.927 49.5017 163.088 49.7966C163.266 50.1233 163.388 50.4773 163.449 50.844C163.521 51.2449 163.556 51.6516 163.554 52.0589C163.544 52.4424 163.492 52.8235 163.397 53.1953L163.439 53.19Z" fill="#BABABA"/>
<path d="M156.165 50.3621C156.062 49.9108 155.871 49.4839 155.605 49.1053C155.345 48.7455 155.002 48.4544 154.605 48.257C154.14 48.0386 153.63 47.9327 153.117 47.948C152.864 47.9469 152.611 47.975 152.363 48.0318C152.121 48.0881 151.887 48.1743 151.667 48.2884C151.429 48.4123 151.203 48.5578 150.991 48.723C150.743 48.9165 150.505 49.1227 150.279 49.341V48.2517C150.282 48.2148 150.272 48.1781 150.251 48.1476C150.23 48.1172 150.199 48.0948 150.164 48.0841C150.115 48.0659 150.064 48.0536 150.012 48.0475H149.787H149.562C149.509 48.0527 149.458 48.0651 149.41 48.0841C149.376 48.0973 149.349 48.1213 149.331 48.1522C149.323 48.1849 149.323 48.219 149.331 48.2517V58.7253C149.324 58.7545 149.324 58.7851 149.331 58.8143C149.35 58.8473 149.38 58.8731 149.415 58.8876C149.467 58.9096 149.521 58.9237 149.577 58.9295H149.829H150.09C150.146 58.9244 150.201 58.9102 150.253 58.8876C150.287 58.8712 150.316 58.8459 150.337 58.8143C150.353 58.7877 150.363 58.7568 150.363 58.7253V54.8501C150.562 55.0368 150.772 55.2117 150.991 55.3737C151.179 55.5154 151.378 55.6399 151.588 55.7456C151.781 55.8427 151.985 55.9166 152.196 55.9655C152.414 56.0124 152.637 56.0353 152.861 56.0336C153.372 56.0437 153.879 55.9437 154.348 55.7403C154.771 55.5517 155.144 55.2665 155.437 54.9077C155.745 54.5206 155.971 54.0753 156.102 53.5985C156.26 53.0344 156.335 52.4507 156.327 51.8651C156.332 51.3595 156.278 50.8551 156.165 50.3621ZM155.118 53.19C155.04 53.5501 154.904 53.895 154.715 54.2112C154.535 54.5063 154.29 54.7555 153.997 54.9391C153.682 55.1296 153.318 55.2259 152.95 55.2166C152.493 55.2134 152.048 55.0729 151.672 54.8134C151.198 54.4846 150.768 54.0955 150.394 53.6561V50.3936C150.618 50.1267 150.862 49.8764 151.122 49.6447C151.329 49.4612 151.551 49.2965 151.787 49.1524C151.983 49.0335 152.195 48.9419 152.416 48.8801C152.62 48.8246 152.832 48.7965 153.044 48.7963C153.412 48.7849 153.776 48.8794 154.091 49.0687C154.373 49.2515 154.606 49.5017 154.767 49.7966C154.944 50.1234 155.066 50.4773 155.128 50.8439C155.199 51.245 155.234 51.6516 155.233 52.0589C155.23 52.4415 155.184 52.8227 155.097 53.1952L155.118 53.19Z" fill="#BABABA"/>
<path d="M147.807 50.2733C147.662 49.8083 147.419 49.3797 147.095 49.0164C146.77 48.6638 146.366 48.3929 145.917 48.2257C145.388 48.0341 144.829 47.9417 144.267 47.9534C143.676 47.941 143.089 48.0461 142.539 48.2623C142.069 48.4519 141.648 48.7456 141.308 49.1212C140.973 49.5007 140.721 49.9469 140.57 50.4304C140.402 50.9638 140.318 51.5206 140.324 52.08C140.316 52.6439 140.396 53.2056 140.559 53.7453C140.702 54.2113 140.945 54.6404 141.272 55.0021C141.6 55.3546 142.005 55.627 142.455 55.7981C142.983 55.9928 143.542 56.0869 144.105 56.0756C144.692 56.0884 145.276 55.9833 145.822 55.7667C146.293 55.5737 146.714 55.2765 147.053 54.8974C147.389 54.5171 147.642 54.0713 147.797 53.5882C147.968 53.0553 148.053 52.4983 148.048 51.9386C148.056 51.3742 147.975 50.8122 147.807 50.2733ZM146.76 53.2844C146.665 53.6492 146.498 53.9912 146.268 54.2899C146.039 54.5773 145.744 54.8054 145.409 54.955C144.589 55.2874 143.673 55.2874 142.853 54.955C142.519 54.7977 142.231 54.558 142.015 54.2585C141.798 53.9428 141.647 53.5866 141.57 53.2111C141.479 52.8073 141.433 52.3945 141.434 51.9805C141.432 51.5579 141.486 51.1369 141.596 50.7289C141.692 50.3645 141.86 50.0227 142.089 49.7234C142.323 49.4282 142.627 49.196 142.974 49.0479C143.367 48.8785 143.792 48.7963 144.22 48.807C144.671 48.7919 145.119 48.8815 145.529 49.0688C145.864 49.2298 146.152 49.473 146.367 49.7758C146.583 50.092 146.735 50.448 146.812 50.8231C146.904 51.2234 146.949 51.6327 146.948 52.0433C146.942 52.4616 146.881 52.8772 146.765 53.2792L146.76 53.2844Z" fill="#BABABA"/>
<path d="M139.14 51.2158C139.149 50.7576 139.1 50.3002 138.994 49.8543C138.904 49.4943 138.74 49.1572 138.512 48.8645C138.28 48.5688 137.98 48.3335 137.637 48.1785C137.215 48.002 136.76 47.9181 136.302 47.9324C135.843 47.9364 135.392 48.0457 134.982 48.2518C134.489 48.5062 134.044 48.8447 133.668 49.252V44.5389C133.668 44.5074 133.659 44.4765 133.642 44.4499C133.621 44.4182 133.592 44.3928 133.558 44.3766C133.506 44.354 133.452 44.3399 133.396 44.3347C133.308 44.3295 133.221 44.3295 133.134 44.3347C133.05 44.3297 132.966 44.3297 132.882 44.3347C132.826 44.3404 132.772 44.3545 132.72 44.3766C132.685 44.3911 132.655 44.4169 132.636 44.4499C132.629 44.4791 132.629 44.5097 132.636 44.5389V55.7247C132.629 55.754 132.629 55.7845 132.636 55.8137C132.655 55.8456 132.685 55.8697 132.72 55.8818C132.772 55.9017 132.827 55.9157 132.882 55.9237C132.966 55.9302 133.05 55.9302 133.134 55.9237C133.221 55.9305 133.308 55.9305 133.396 55.9237C133.451 55.9164 133.506 55.9024 133.558 55.8818C133.592 55.868 133.621 55.8443 133.642 55.8137C133.659 55.7871 133.668 55.7563 133.668 55.7247V50.378C134.041 49.9232 134.474 49.5215 134.956 49.184C135.315 48.9288 135.741 48.7866 136.182 48.7755C136.472 48.7695 136.76 48.8286 137.025 48.9483C137.259 49.0578 137.462 49.2233 137.616 49.4301C137.778 49.6554 137.896 49.9096 137.962 50.179C138.048 50.5497 138.086 50.9297 138.077 51.3101V55.7666C138.077 55.7982 138.087 55.829 138.103 55.8556C138.124 55.8865 138.153 55.9102 138.187 55.9237C138.239 55.9444 138.294 55.9585 138.35 55.9656C138.437 55.9724 138.524 55.9724 138.611 55.9656C138.695 55.9721 138.779 55.9721 138.863 55.9656C138.918 55.9583 138.973 55.9443 139.025 55.9237C139.059 55.9099 139.088 55.8862 139.109 55.8556C139.126 55.829 139.135 55.7982 139.135 55.7666L139.14 51.2158Z" fill="#BABABA"/>
<path d="M131.353 52.949C131.236 52.7274 131.076 52.5315 130.882 52.373C130.679 52.2088 130.455 52.0715 130.217 51.9645C129.969 51.8528 129.716 51.7498 129.457 51.6555L128.698 51.3727C128.466 51.2864 128.244 51.1776 128.033 51.0481C127.849 50.9377 127.689 50.7917 127.562 50.6186C127.44 50.4379 127.378 50.2237 127.384 50.0059C127.382 49.8362 127.418 49.6681 127.488 49.5137C127.559 49.3616 127.665 49.2287 127.797 49.1262C127.953 49.0063 128.131 48.919 128.321 48.8696C128.56 48.8057 128.807 48.7758 129.054 48.7805C129.303 48.776 129.552 48.8059 129.793 48.8696C129.981 48.9215 130.165 48.988 130.343 49.0685C130.471 49.1266 130.595 49.1931 130.714 49.2675C130.777 49.3147 130.851 49.3453 130.929 49.3566C130.963 49.357 130.996 49.3459 131.023 49.3252C131.054 49.3022 131.077 49.2714 131.091 49.2361C131.111 49.1929 131.126 49.1471 131.133 49.1C131.138 49.0407 131.138 48.9812 131.133 48.9219C131.137 48.8644 131.137 48.8067 131.133 48.7491C131.136 48.709 131.136 48.6688 131.133 48.6287C131.123 48.5948 131.107 48.5629 131.086 48.5344C131.05 48.4913 131.008 48.4541 130.96 48.4244C130.874 48.3669 130.783 48.3161 130.688 48.2726C130.551 48.2069 130.41 48.1527 130.264 48.1102C130.092 48.0579 129.917 48.0177 129.74 47.9898C129.541 47.959 129.34 47.9433 129.138 47.9426C128.72 47.9343 128.304 47.9962 127.907 48.1259C127.594 48.2287 127.304 48.3924 127.054 48.6077C126.842 48.7937 126.674 49.0244 126.562 49.2833C126.456 49.5261 126.4 49.7881 126.399 50.0531C126.391 50.3425 126.452 50.6298 126.577 50.891C126.692 51.1185 126.85 51.3214 127.043 51.4879C127.243 51.6584 127.465 51.8011 127.703 51.9121C127.951 52.0273 128.202 52.1338 128.457 52.2316L129.211 52.5144C129.441 52.5972 129.662 52.7025 129.871 52.8286C130.052 52.9371 130.21 53.0794 130.337 53.2475C130.46 53.4199 130.523 53.6278 130.515 53.8393C130.52 54.0498 130.474 54.2584 130.379 54.4467C130.288 54.6204 130.155 54.7681 129.992 54.8761C129.812 54.9937 129.614 55.0788 129.405 55.1275C128.862 55.2493 128.298 55.2385 127.761 55.0961C127.533 55.0303 127.31 54.9462 127.096 54.8447C126.936 54.7687 126.781 54.6848 126.63 54.5934C126.546 54.5321 126.449 54.4925 126.347 54.4781C126.312 54.4769 126.277 54.486 126.247 54.5043C126.215 54.5261 126.189 54.5571 126.174 54.5934C126.154 54.6388 126.138 54.6861 126.127 54.7348C126.121 54.7974 126.121 54.8606 126.127 54.9233C126.124 55.0351 126.14 55.1466 126.174 55.2532C126.202 55.3344 126.25 55.4067 126.315 55.4627C126.411 55.5363 126.515 55.5995 126.624 55.6512C126.793 55.7343 126.968 55.8026 127.148 55.8554C127.369 55.9234 127.595 55.9759 127.824 56.0125C128.085 56.0552 128.35 56.0762 128.614 56.0754C129.026 56.08 129.437 56.0271 129.835 55.9183C130.176 55.8261 130.497 55.6716 130.782 55.4627C131.039 55.2708 131.247 55.0215 131.39 54.7348C131.537 54.4332 131.61 54.1013 131.605 53.7659C131.613 53.4849 131.552 53.2061 131.427 52.9542" fill="#BABABA"/>
<path d="M122.341 55.2483C122.329 55.2101 122.303 55.1781 122.267 55.1592C122.226 55.1488 122.183 55.1488 122.142 55.1592H121.979C121.893 55.1552 121.808 55.1356 121.728 55.1016C121.592 55.0458 121.461 54.9792 121.335 54.9026C121.175 54.8084 120.983 54.6862 120.759 54.5361C120.536 54.3859 120.274 54.1957 119.974 53.9653C120.169 53.7289 120.344 53.4767 120.497 53.2112C120.657 52.9395 120.792 52.6537 120.901 52.3576C121.011 52.0559 121.096 51.7459 121.157 51.4306C121.22 51.1098 121.252 50.7836 121.251 50.4566V50.2733C121.254 50.2152 121.242 50.1573 121.215 50.1057C121.191 50.0665 121.154 50.0369 121.11 50.0219C121.056 50.0031 121 49.9925 120.942 49.9905H120.707C120.62 49.9853 120.532 49.9853 120.445 49.9905C120.39 49.995 120.336 50.0111 120.288 50.0377C120.255 50.0573 120.23 50.0866 120.215 50.1214C120.206 50.1629 120.206 50.2057 120.215 50.2471V50.5718C120.214 50.8299 120.191 51.0875 120.146 51.3416C120.096 51.6019 120.024 51.8577 119.932 52.1062C119.851 52.3418 119.753 52.5711 119.639 52.7922C119.532 52.9991 119.404 53.194 119.256 53.3735C118.959 53.1256 118.663 52.8638 118.366 52.588C118.069 52.3122 117.778 52.0364 117.491 51.7606C117.205 51.4813 116.933 51.2037 116.674 50.9279C116.416 50.6521 116.175 50.3868 115.952 50.1319C116.531 49.8317 117.022 49.5524 117.423 49.294C117.775 49.0736 118.102 48.8155 118.397 48.5242C118.621 48.2986 118.799 48.0318 118.921 47.7387C119.033 47.4572 119.088 47.1565 119.083 46.8537C119.087 46.5545 119.026 46.2581 118.905 45.9844C118.786 45.7212 118.607 45.4897 118.382 45.3088C118.123 45.1069 117.828 44.9575 117.512 44.869C117.117 44.7573 116.708 44.7044 116.297 44.7118C115.795 44.6994 115.294 44.7702 114.815 44.9213C114.451 45.0383 114.114 45.229 113.826 45.4817C113.591 45.7024 113.412 45.975 113.302 46.2776C113.191 46.5739 113.134 46.888 113.134 47.2046C113.135 47.4041 113.159 47.6028 113.208 47.7963C113.263 48.0088 113.342 48.2144 113.443 48.409C113.571 48.654 113.714 48.8901 113.873 49.116C114.047 49.3708 114.259 49.6589 114.506 49.9801C114.101 50.2061 113.714 50.4635 113.349 50.7499C113.067 50.9702 112.815 51.2274 112.6 51.5144C112.42 51.7602 112.282 52.0346 112.192 52.3261C112.108 52.6064 112.065 52.8976 112.066 53.1902C112.064 53.4646 112.101 53.7379 112.176 54.0019C112.247 54.2488 112.355 54.4837 112.496 54.6984C112.641 54.9117 112.818 55.1023 113.019 55.264C113.232 55.4389 113.468 55.5834 113.721 55.6934C114 55.8151 114.291 55.9047 114.59 55.9605C114.936 56.0238 115.286 56.0537 115.638 56.0495C116.01 56.0516 116.382 56.0165 116.748 55.9448C117.077 55.8796 117.4 55.7832 117.711 55.6567C118.007 55.5357 118.291 55.3885 118.56 55.2168C118.823 55.0502 119.075 54.8665 119.314 54.667C119.663 54.9428 119.963 55.1697 120.215 55.3478C120.466 55.5258 120.691 55.6672 120.89 55.7719C121.056 55.864 121.232 55.9378 121.414 55.9919C121.538 56.0307 121.666 56.0518 121.796 56.0547C121.913 56.0657 122.03 56.0657 122.147 56.0547C122.204 56.046 122.259 56.0265 122.309 55.9971C122.338 55.9761 122.36 55.9469 122.372 55.9133C122.379 55.8629 122.379 55.8119 122.372 55.7615C122.372 55.6934 122.372 55.6096 122.372 55.5049C122.378 55.4181 122.367 55.3311 122.341 55.2483ZM114.339 47.6026C114.29 47.4323 114.265 47.256 114.266 47.0789C114.265 46.8855 114.301 46.6938 114.37 46.5133C114.442 46.3269 114.557 46.1601 114.705 46.0263C114.877 45.8714 115.078 45.7537 115.297 45.6807C115.86 45.5173 116.457 45.5173 117.02 45.6807C117.229 45.7458 117.422 45.8508 117.591 45.9896C117.732 46.107 117.843 46.2559 117.916 46.4243C117.986 46.5898 118.022 46.7681 118.02 46.948C118.021 47.1665 117.975 47.3826 117.884 47.5816C117.777 47.8025 117.631 48.0028 117.455 48.1734C117.215 48.4044 116.952 48.6097 116.669 48.7861C116.341 48.9955 115.938 49.2277 115.46 49.4826C115.257 49.2172 115.083 48.9746 114.936 48.7546C114.802 48.5592 114.68 48.3564 114.569 48.1472C114.473 47.9744 114.396 47.7918 114.339 47.6026ZM118.005 54.5151C117.794 54.6502 117.571 54.7658 117.34 54.8607C117.099 54.959 116.85 55.0361 116.596 55.0912C116.329 55.1474 116.057 55.1755 115.784 55.175C115.406 55.1816 115.03 55.1285 114.669 55.0178C114.37 54.9271 114.094 54.7756 113.857 54.5727C113.644 54.3879 113.475 54.1569 113.365 53.8972C113.253 53.6231 113.198 53.3291 113.202 53.0331C113.202 52.8222 113.232 52.6122 113.292 52.4099C113.358 52.1963 113.459 51.9947 113.59 51.8129C113.756 51.589 113.952 51.3883 114.171 51.2159C114.445 50.9902 114.737 50.7887 115.046 50.6137C115.283 50.8965 115.542 51.1845 115.821 51.4778C116.1 51.771 116.39 52.066 116.69 52.3628C116.994 52.6595 117.306 52.9528 117.628 53.2426C117.949 53.5323 118.277 53.8134 118.612 54.0857C118.424 54.2436 118.225 54.3872 118.015 54.5151H118.005Z" fill="#BABABA"/>
<path d="M17.1808 9.53617C17.1563 9.26319 17.0928 8.99513 16.9922 8.74018C16.9289 8.57503 16.8265 8.42768 16.6937 8.31077C16.5868 8.22516 16.4537 8.17894 16.3167 8.17985H1.86316C1.37707 8.16323 0.902431 8.32954 0.533018 8.64592C0.341589 8.8443 0.1956 9.08195 0.105173 9.34238C0.0147462 9.60281 -0.0179541 9.87979 0.00933967 10.1541V37.9929C0.0066153 38.1569 0.0623004 38.3165 0.166443 38.4432C0.308927 38.5951 0.489902 38.7055 0.690122 38.7627C1.0025 38.8672 1.32578 38.9357 1.65369 38.9669C2.15124 39.018 2.65129 39.0407 3.15141 39.035C3.65862 39.0399 4.16569 39.0154 4.67008 38.9617C4.99439 38.9264 5.31395 38.8562 5.62318 38.7522C5.8257 38.7004 6.00809 38.5891 6.14685 38.4328C6.2427 38.3025 6.29245 38.1441 6.28825 37.9824V26.5505H15.7197C15.8585 26.5526 15.9937 26.5063 16.102 26.4196C16.2363 26.2999 16.3388 26.1487 16.4005 25.9797C16.498 25.7292 16.5615 25.4668 16.589 25.1994C16.6678 24.4106 16.6678 23.6159 16.589 22.8271C16.5639 22.5661 16.5004 22.3102 16.4005 22.0678C16.3371 21.9101 16.2343 21.7713 16.102 21.6646C15.9908 21.5845 15.8568 21.5422 15.7197 21.5441H6.29348V13.2857H16.3167C16.4554 13.286 16.5894 13.2357 16.6937 13.1443C16.823 13.0243 16.9248 12.8779 16.9922 12.7149C17.0929 12.4691 17.1565 12.2096 17.1808 11.9451C17.2235 11.5468 17.2427 11.1464 17.2384 10.7459C17.2424 10.3419 17.2231 9.93797 17.1808 9.53617Z" fill="#BABABA"/>
<path d="M40.5368 23.5132C40.5449 24.9192 40.4133 26.3226 40.1441 27.7026C39.9175 28.9203 39.4627 30.0841 38.8035 31.1327C38.1802 32.1041 37.3231 32.9036 36.3108 33.4579C35.124 34.0551 33.8051 34.3416 32.4774 34.2905C31.1627 34.3355 29.8551 34.0794 28.6546 33.5416C27.6602 33.0586 26.8218 32.3055 26.2352 31.3684C25.5944 30.3165 25.159 29.1525 24.9522 27.9383C24.6865 26.4468 24.5602 24.9338 24.5751 23.4189C24.569 22.0442 24.7006 20.6723 24.9679 19.3238C25.194 18.1207 25.6491 16.9722 26.3085 15.9408C26.9407 14.9732 27.8001 14.1749 28.8117 13.6157C29.9975 13.0023 31.3213 12.7047 32.6555 12.7516C33.9639 12.7067 35.2645 12.9704 36.4521 13.5214C37.4384 14.0217 38.2721 14.7777 38.8663 15.7104C39.5124 16.7475 39.9516 17.8998 40.1598 19.1038C40.4254 20.5566 40.5534 22.0312 40.5421 23.508L40.5368 23.5132ZM47.0933 23.1728C47.1377 20.8343 46.8305 18.5023 46.1821 16.255C45.6566 14.4568 44.731 12.8007 43.4747 11.411C42.246 10.1069 40.7129 9.12806 39.0129 8.56217C37.0261 7.91239 34.9446 7.59911 32.8545 7.63525C30.6626 7.59138 28.4828 7.97009 26.4342 8.75069C24.6608 9.44632 23.0727 10.5433 21.7944 11.9556C20.5022 13.4243 19.5398 15.1529 18.9717 17.0248C18.3125 19.197 17.9928 21.4581 18.0239 23.7279C17.9802 26.1012 18.2801 28.4683 18.9141 30.7557C19.4166 32.5697 20.3305 34.2434 21.5849 35.6468C22.81 36.9526 24.3392 37.9349 26.0362 38.5061C28.0529 39.1677 30.1668 39.4846 32.2889 39.4435C34.4711 39.4849 36.6412 39.1099 38.683 38.3385C40.4594 37.6486 42.0487 36.5507 43.3228 35.1336C44.6184 33.6494 45.5809 31.9048 46.1454 30.0173C46.8054 27.8005 47.1233 25.496 47.0881 23.1833" fill="#BABABA"/>
<path d="M103.562 23.2985C103.587 24.8682 103.392 26.4337 102.98 27.9488C102.648 29.1761 102.049 30.315 101.226 31.2846C100.431 32.1871 99.4228 32.8766 98.2934 33.2903C96.9047 33.7689 95.4413 33.9942 93.973 33.9554H90.721V13.092H93.8631C95.4457 13.0335 97.0239 13.2953 98.5028 13.8618C99.6263 14.335 100.62 15.0714 101.399 16.0089C102.17 16.9644 102.728 18.073 103.038 19.261C103.392 20.5845 103.568 21.9494 103.562 23.3195V23.2985ZM110.019 23.1048C110.059 20.9178 109.713 18.7409 108.997 16.674C108.374 14.9112 107.355 13.315 106.018 12.008C104.645 10.7099 102.999 9.7364 101.2 9.15919C98.9447 8.46739 96.5931 8.14206 94.2349 8.19563H86.3797C85.8996 8.181 85.4311 8.34523 85.0652 8.65646C84.8735 8.85464 84.7273 9.09226 84.6369 9.35274C84.5465 9.61323 84.5139 9.89031 84.5416 10.1647V36.9246C84.5139 37.199 84.5465 37.4761 84.6369 37.7366C84.7273 37.997 84.8735 38.2347 85.0652 38.4328C85.4314 38.7436 85.8996 38.9078 86.3797 38.8937H93.7112C96.088 38.939 98.4588 38.6392 100.749 38.0034C102.615 37.4689 104.333 36.5141 105.772 35.2122C107.197 33.8542 108.275 32.173 108.914 30.3106C109.702 27.9848 110.075 25.5388 110.019 23.0838" fill="#BABABA"/>
<path d="M82.096 14.8044C79.6085 4.74981 67.9567 8.3213 65.8305 9.04398C63.7358 8.31083 52.0525 4.7341 49.5651 14.8044C46.8262 25.8645 50.9476 39.5587 63.4426 39.5587C64.1912 39.2163 65.0047 39.0391 65.8279 39.0391C66.6511 39.0391 67.4647 39.2163 68.2133 39.5587C80.7135 39.5587 84.8296 25.8698 82.0908 14.8044" fill="#BABABA"/>
<path d="M79.6085 2.8277C79.6085 2.8277 72.3294 8.24777 68.2237 3.0267C67.9043 2.61823 75.6128 -2.27293 79.6085 2.8277Z" fill="#BABABA"/>
<path d="M222.049 36.8983C222.026 36.7567 221.978 36.6202 221.908 36.4951C221.85 36.3984 221.769 36.3174 221.672 36.2595C221.572 36.2022 221.458 36.1733 221.342 36.1757H209.69V8.74538C209.692 8.64806 209.664 8.55258 209.608 8.47261C209.553 8.39264 209.473 8.33231 209.381 8.30025C209.241 8.24393 209.096 8.20353 208.947 8.17981C208.49 8.11682 208.026 8.11682 207.569 8.17981C207.415 8.20245 207.264 8.24287 207.119 8.30025C207.023 8.33656 206.94 8.40257 206.883 8.48878C206.837 8.56654 206.812 8.65495 206.81 8.74538V37.3068C206.784 37.5234 206.812 37.743 206.891 37.9465C206.969 38.15 207.096 38.3313 207.26 38.4746C207.511 38.6707 207.817 38.7825 208.135 38.7941H221.368C221.486 38.7992 221.602 38.7697 221.702 38.7092C221.803 38.6486 221.884 38.5597 221.934 38.4537C222.001 38.3233 222.048 38.184 222.075 38.04C222.109 37.8534 222.125 37.664 222.122 37.4744C222.125 37.2813 222.109 37.0885 222.075 36.8983" fill="#BABABA"/>
<path d="M202.882 8.74531C202.885 8.64799 202.856 8.55251 202.8 8.47254C202.745 8.39257 202.665 8.33224 202.574 8.30018C202.434 8.24374 202.288 8.20333 202.139 8.17974C201.908 8.14468 201.675 8.12891 201.442 8.13261C201.225 8.12985 201.008 8.14562 200.793 8.17974C200.641 8.20466 200.492 8.24501 200.348 8.30018C200.244 8.33654 200.153 8.40199 200.086 8.48871C200.032 8.56351 200.003 8.65317 200.002 8.74531V38.3227C199.999 38.4209 200.027 38.5175 200.083 38.5986C200.138 38.6796 200.218 38.7407 200.311 38.773C200.455 38.8295 200.604 38.8698 200.756 38.8935C200.983 38.9274 201.213 38.9431 201.442 38.9406C201.675 38.9439 201.908 38.9281 202.139 38.8935C202.288 38.8691 202.433 38.8287 202.574 38.773C202.666 38.7407 202.746 38.6796 202.802 38.5986C202.857 38.5175 202.886 38.4209 202.882 38.3227V8.74531Z" fill="#BABABA"/>
<path d="M197.002 37.8252L186.319 8.79248C186.276 8.67311 186.208 8.56422 186.12 8.47304C186.019 8.3789 185.896 8.31062 185.763 8.27404C185.592 8.2231 185.417 8.18804 185.24 8.1693C184.993 8.1437 184.744 8.13147 184.496 8.13265C184.256 8.13197 184.017 8.14421 183.779 8.1693C183.601 8.18813 183.426 8.22319 183.255 8.27404C183.12 8.31249 182.994 8.38045 182.888 8.47304C182.792 8.5609 182.719 8.67042 182.674 8.79248L171.991 37.8252C171.908 38.0027 171.864 38.1953 171.86 38.3908C171.86 38.4545 171.875 38.5172 171.903 38.5743C171.931 38.6314 171.972 38.6814 172.022 38.7207C172.166 38.8154 172.332 38.873 172.504 38.8883C172.778 38.9226 173.055 38.9384 173.331 38.9354C173.58 38.9384 173.829 38.9227 174.075 38.8883C174.234 38.8671 174.389 38.823 174.536 38.7574C174.637 38.7111 174.726 38.6432 174.798 38.5584C174.863 38.4744 174.911 38.3783 174.939 38.2756L177.746 30.1848H191.142L194.069 38.3227C194.11 38.4219 194.161 38.5167 194.221 38.6055C194.284 38.6903 194.369 38.7556 194.467 38.794C194.615 38.8502 194.77 38.8855 194.928 38.8988C195.19 38.9263 195.454 38.9386 195.719 38.9354C195.99 38.9379 196.261 38.9257 196.53 38.8988C196.698 38.8911 196.861 38.8386 197.002 38.7469C197.053 38.7065 197.095 38.6549 197.124 38.596C197.153 38.537 197.169 38.4722 197.169 38.4065C197.155 38.203 197.098 38.0049 197.002 37.8252ZM178.584 27.7549L184.344 11.3376L190.23 27.7549H178.584Z" fill="#BABABA"/>
<path d="M176.84 9.01764C176.815 8.87305 176.768 8.73336 176.699 8.60394C176.647 8.51366 176.575 8.43657 176.489 8.37876C176.396 8.32346 176.289 8.29451 176.18 8.29497H155.071C154.958 8.29142 154.847 8.32053 154.751 8.37876C154.657 8.44135 154.58 8.52581 154.526 8.62488C154.457 8.75431 154.409 8.89399 154.385 9.03859C154.351 9.22875 154.335 9.42158 154.337 9.61464C154.337 9.7903 154.352 9.96565 154.385 10.1383C154.409 10.2747 154.457 10.4058 154.526 10.5258C154.582 10.6209 154.659 10.7016 154.751 10.7615C154.847 10.82 154.958 10.8491 155.071 10.8453H164.172V38.3227C164.172 38.4127 164.196 38.501 164.24 38.5793C164.297 38.6655 164.379 38.7315 164.476 38.7678C164.621 38.8243 164.772 38.8647 164.926 38.8883C165.38 38.9502 165.84 38.9502 166.293 38.8883C166.447 38.865 166.598 38.8246 166.743 38.7678C166.836 38.7355 166.916 38.6744 166.972 38.5934C167.027 38.5123 167.056 38.4157 167.052 38.3175V10.8453H176.154C176.263 10.8463 176.37 10.8173 176.463 10.7615C176.56 10.7039 176.641 10.6228 176.699 10.5258C176.768 10.4058 176.816 10.2747 176.84 10.1383C176.872 9.96565 176.888 9.7903 176.887 9.61464C176.889 9.42158 176.873 9.22875 176.84 9.03859" fill="#BABABA"/>
<path d="M151.84 36.9456C151.817 36.8022 151.766 36.6648 151.688 36.5424C151.624 36.4468 151.54 36.3663 151.442 36.3068C151.348 36.2515 151.241 36.2225 151.133 36.223H138.391V24.0527H149.195C149.309 24.0555 149.422 24.0322 149.525 23.9846C149.621 23.9353 149.702 23.8612 149.761 23.7699C149.83 23.6577 149.878 23.5333 149.902 23.4033C149.935 23.2307 149.951 23.0553 149.949 22.8796C149.951 22.6866 149.935 22.4938 149.902 22.3036C149.879 22.1635 149.831 22.0287 149.761 21.9056C149.703 21.8084 149.622 21.7274 149.525 21.6699C149.424 21.6132 149.31 21.5842 149.195 21.5861H138.391V10.8455H150.918C151.027 10.8465 151.133 10.8175 151.227 10.7617C151.324 10.7041 151.405 10.623 151.462 10.526C151.532 10.406 151.579 10.2749 151.604 10.1385C151.636 9.96585 151.652 9.7905 151.651 9.61484C151.653 9.42179 151.637 9.22895 151.604 9.0388C151.579 8.8942 151.531 8.75451 151.462 8.62509C151.406 8.52412 151.325 8.43933 151.227 8.37896C151.133 8.32367 151.027 8.29471 150.918 8.29517H136.836C136.518 8.30711 136.212 8.41888 135.962 8.61462C135.797 8.75795 135.67 8.93923 135.592 9.14273C135.513 9.34624 135.486 9.56581 135.511 9.78242V37.3279C135.486 37.5445 135.513 37.7641 135.592 37.9676C135.67 38.1711 135.797 38.3524 135.962 38.4957C136.212 38.6918 136.518 38.8036 136.836 38.8152H151.127C151.236 38.8162 151.343 38.7872 151.436 38.7314C151.537 38.6701 151.621 38.5857 151.682 38.4853C151.758 38.3614 151.809 38.2247 151.834 38.082C151.867 37.9093 151.882 37.734 151.881 37.5583C151.884 37.3653 151.868 37.1724 151.834 36.9823" fill="#BABABA"/>
<path d="M132.526 37.8255C132.47 37.6195 132.341 37.2425 132.139 36.6944L129.285 29.5723C128.97 28.7868 128.656 28.0746 128.342 27.4357C128.056 26.8467 127.722 26.2826 127.342 25.7495C127.009 25.2859 126.621 24.8655 126.185 24.4979C125.758 24.1452 125.286 23.851 124.781 23.6233C125.613 23.3415 126.411 22.971 127.164 22.5184C127.865 22.0973 128.494 21.5669 129.028 20.9473C129.556 20.3296 129.964 19.6193 130.233 18.8526C130.528 17.9829 130.671 17.0688 130.657 16.1504C130.664 15.2265 130.524 14.3074 130.243 13.4273C129.974 12.5982 129.545 11.8297 128.981 11.165C128.38 10.4704 127.651 9.89791 126.834 9.47877C125.877 8.99318 124.851 8.65928 123.791 8.48901C123.383 8.42617 122.932 8.3738 122.435 8.33715C121.937 8.30049 121.314 8.27954 120.56 8.27954H114.826C114.508 8.29148 114.202 8.40325 113.951 8.59898C113.787 8.74232 113.66 8.9236 113.582 9.1271C113.503 9.33061 113.475 9.55018 113.501 9.76679V38.323C113.501 38.4136 113.527 38.5024 113.574 38.5796C113.631 38.666 113.713 38.7321 113.81 38.7681C113.953 38.8245 114.103 38.8649 114.255 38.8886C114.482 38.9224 114.712 38.9382 114.941 38.9357C115.174 38.939 115.407 38.9232 115.638 38.8886C115.786 38.8642 115.932 38.8238 116.072 38.7681C116.165 38.7358 116.245 38.6747 116.301 38.5936C116.356 38.5126 116.384 38.416 116.381 38.3178V24.5712H119.523C120.45 24.5483 121.372 24.7085 122.236 25.0425C122.96 25.3361 123.617 25.7725 124.168 26.3255C124.72 26.8921 125.181 27.5404 125.535 28.2474C125.912 28.9875 126.261 29.7731 126.583 30.604L129.437 38.0088C129.486 38.1709 129.556 38.3258 129.646 38.4696C129.725 38.5872 129.831 38.6842 129.955 38.7524C130.098 38.8288 130.255 38.8768 130.416 38.8938C130.638 38.9204 130.862 38.9327 131.086 38.9305C131.335 38.9334 131.583 38.9177 131.83 38.8833C131.989 38.8621 132.144 38.818 132.291 38.7524C132.385 38.7124 132.464 38.6425 132.516 38.5534C132.557 38.4649 132.576 38.3681 132.573 38.2706C132.575 38.1209 132.559 37.9716 132.526 37.8255ZM123.812 21.5915C122.829 21.9018 121.801 22.0487 120.77 22.0261H116.381V10.8456H120.157C121.019 10.8456 121.718 10.8735 122.252 10.9294C122.754 10.9792 123.251 11.0703 123.739 11.2017C124.92 11.4683 125.961 12.1621 126.661 13.1498C127.269 14.1461 127.573 15.2981 127.536 16.4646C127.543 17.2137 127.412 17.9576 127.148 18.6589C126.886 19.3363 126.466 19.9414 125.923 20.4237C125.307 20.9589 124.589 21.3633 123.812 21.6124V21.5915Z" fill="#BABABA"/>
</svg>
