<svg width="212" height="56" viewBox="0 0 212 56" fill="none" xmlns="http://www.w3.org/2000/svg">
<path d="M184.295 36.755C186.448 31.1118 191.497 27.6219 197.512 27.6219C199.739 27.6219 202.041 27.6219 204.269 27.6219C204.64 24.0578 201.224 20.7164 197.363 20.6422C195.136 20.6422 192.834 20.6422 190.532 20.6422C190.532 18.3404 190.532 16.1128 190.532 13.6625C194.319 13.811 198.18 13.1427 201.893 14.3307C207.387 16.1128 211.248 21.3105 211.323 27.1022C211.397 31.7058 211.323 36.3095 211.323 40.9131C211.323 41.1359 211.248 41.2844 211.248 41.5071C209.021 41.5071 206.793 41.5071 204.491 41.5071C204.491 39.2796 204.491 37.052 204.491 34.6017C203.972 34.6017 203.526 34.6017 203.155 34.6017C201.224 34.6017 199.368 34.6017 197.437 34.6017C193.576 34.6017 190.977 37.2005 190.383 41.4329C187.785 41.4329 185.186 41.4329 183.032 41.4329C182.141 39.7251 181.622 38.1658 180.656 36.9035C179.394 35.1214 177.463 34.3789 175.31 34.3789C171.152 34.3789 166.994 34.3789 162.836 34.3789C162.464 34.3789 162.019 34.3789 161.425 34.3789C161.573 30.889 161.425 27.4734 162.019 24.2063C163.133 18.1176 168.776 13.6625 174.939 13.514C177.389 13.4397 179.84 13.514 182.364 13.514C182.364 15.8158 182.364 18.0434 182.364 20.4194C180.211 20.4194 178.057 20.4194 175.904 20.4194C173.899 20.4194 172.192 20.9392 170.706 22.35C169.296 23.6865 168.479 25.3944 168.479 27.4734C170.929 27.4734 173.305 27.4734 175.681 27.4734C179.84 27.4734 183.107 29.0327 185.78 32.0771C185.111 33.5621 184.517 35.0472 183.923 36.458C183.404 37.7203 183.329 38.9826 183.552 40.3191C183.775 39.2053 183.998 38.0915 184.22 36.9777C184.22 36.9035 184.22 36.8292 184.295 36.755Z" fill="#BABABA"/>
<path d="M135.065 20.7908C135.065 20.4195 134.917 19.974 134.694 19.677C131.427 14.7763 125.412 12.5487 119.472 14.0338C114.052 15.4446 109.671 20.4938 109.374 26.2112C109.151 31.0376 109.3 35.864 109.225 40.6904C109.225 40.9132 109.3 41.1359 109.374 41.3587H116.205V34.4532H134.917C134.991 34.2305 134.991 34.1562 134.991 34.0077C135.065 29.6268 135.065 25.2459 135.065 20.7908ZM116.354 27.4735C116.057 24.0579 119.175 20.7165 122.962 20.568C126.823 20.4195 130.165 23.6124 130.165 27.4735H116.354Z" fill="#BABABA"/>
<path d="M69.1291 20.7905C69.1291 20.4193 68.9806 19.9738 68.7578 19.6767C65.4907 14.9988 59.3277 12.7713 53.6846 14.3306C48.1156 15.8899 43.809 21.0133 43.5862 26.7307C43.4377 31.3344 43.512 36.0123 43.512 40.6159C43.512 40.9872 43.512 41.2842 43.5862 41.6555H50.4917V34.8243H69.0548C69.1291 34.6015 69.2033 34.5272 69.2033 34.3787C69.1291 29.8493 69.1291 25.3199 69.1291 20.7905ZM64.3027 27.7703H50.4917C50.4174 23.9834 53.7588 20.7163 57.5457 20.8648C61.2583 20.939 64.5254 24.2062 64.3027 27.7703Z" fill="#BABABA"/>
<path d="M142.862 41.5071C140.486 41.5071 138.258 41.5071 136.031 41.5071C136.031 32.2256 136.031 23.0183 136.031 13.7367C138.258 13.7367 140.486 13.7367 142.788 13.7367C142.862 14.2565 142.862 14.702 142.936 15.2218C144.347 14.7763 145.683 14.1822 147.02 13.9595C153.034 12.7714 158.529 15.1475 161.796 20.3452C162.167 20.9392 162.167 21.3847 161.945 22.1272C161.425 23.8351 160.905 25.6171 160.757 27.3992C160.534 29.7753 160.682 32.2256 160.682 34.7502C161.722 34.7502 162.687 34.7502 163.727 34.7502C163.727 37.052 163.727 39.2796 163.727 41.5071C161.425 41.5071 159.197 41.5071 156.896 41.5071C156.896 41.1359 156.821 40.7646 156.821 40.4676C156.821 36.161 156.821 31.9286 156.821 27.6962C156.821 24.5033 154.594 21.6817 151.624 20.9392C148.505 20.1967 145.312 21.459 143.827 24.2806C143.233 25.3944 142.936 26.7309 142.936 27.9932C142.788 32.0771 142.862 36.2352 142.862 40.3191C142.862 40.6161 142.862 41.0616 142.862 41.5071Z" fill="#BABABA"/>
<path d="M35.5669 0C37.8688 0 40.0963 0 42.3239 0C42.3239 13.8852 42.3239 27.7704 42.3239 41.7299C40.0963 41.7299 37.8688 41.7299 35.5669 41.7299C35.5669 27.8447 35.5669 13.9595 35.5669 0Z" fill="#BABABA"/>
<path d="M97.4935 23.6864C97.4935 20.4193 97.4935 17.078 97.4935 13.7366C99.7953 13.7366 102.023 13.7366 104.399 13.7366C104.473 14.2564 104.473 14.7761 104.547 15.3701C106.701 14.3306 108.928 13.5881 111.453 13.6623C111.453 15.3701 111.601 17.0037 111.379 18.6373C111.304 19.6025 110.71 20.4936 109.597 20.7906C106.404 21.7559 104.473 24.3547 104.473 27.6961C104.473 31.7799 104.473 35.7896 104.473 39.8735C104.473 40.319 104.473 40.8387 104.473 41.3585C102.171 41.3585 99.9438 41.3585 97.4935 41.3585C97.4935 35.5668 97.4935 29.8494 97.4935 24.0577C97.4935 23.9834 97.4935 23.8349 97.4935 23.6864Z" fill="#BABABA"/>
<path d="M96.8252 21.9786C96.8252 21.4589 96.751 20.8649 96.5282 20.4936C94.0036 16.4097 90.5138 13.7366 85.6131 13.5139C81.0837 13.2911 76.6286 13.4396 72.0992 13.4396C70.5399 13.4396 70.4656 13.4396 70.4656 14.9989C70.4656 21.4589 70.4656 27.9188 70.4656 34.3046C70.4656 40.8388 70.4656 47.373 70.4656 53.9072C70.4656 54.724 70.5399 55.2438 71.6536 55.2438C73.0644 55.1695 74.4752 55.1695 75.886 55.2438C77.0741 55.318 77.4453 54.9467 77.4453 53.7587C77.3711 50.0461 77.4453 46.3335 77.3711 42.6208C77.3711 41.5813 77.6681 41.2843 78.7076 41.3585C80.5639 41.4328 82.4203 41.4328 84.2766 41.3585C89.5485 41.2843 93.5581 38.9825 96.3797 34.6016C96.6767 34.0818 96.8995 33.4135 96.8995 32.8195C96.8252 29.1811 96.8252 25.617 96.8252 21.9786ZM91.2563 27.8446C91.0335 31.3345 88.1377 34.156 84.4993 34.3046C82.4945 34.3788 80.4897 34.3046 78.4849 34.3046C77.8909 34.3046 77.4453 34.3046 77.4453 33.4878C77.4453 29.2554 77.4453 25.023 77.5196 20.8649C77.5196 20.7906 77.5938 20.7163 77.6681 20.4936C80.2669 20.4936 82.8658 20.2708 85.3904 20.5678C88.8802 20.8649 91.4791 24.2062 91.2563 27.8446Z" fill="#BABABA"/>
<path d="M34.7502 34.3045C34.7502 29.4039 34.7502 24.5032 34.7502 19.5283C34.7502 19.2313 34.5274 18.9343 34.4531 18.563C33.9334 18.1175 33.4879 17.5977 32.9681 17.1522C32.7453 17.0037 32.5226 16.781 32.2998 16.6325C29.3297 14.2564 25.9884 13.6624 22.35 14.0336C16.6326 14.5534 11.0636 19.8996 10.5439 25.3942C10.4696 25.914 10.3953 26.3595 10.3211 26.8793C10.7666 26.6565 10.9151 26.3595 10.8409 26.0625C10.9151 26.3595 10.8409 26.6565 10.3211 26.8793C10.3211 31.6315 10.3211 36.3836 10.3211 41.1358C10.3953 41.1358 10.3953 41.1358 10.4696 41.21C10.4696 41.21 10.3953 41.21 10.3953 41.1358C9.72707 41.507 9.43007 41.3585 9.43007 40.5418C9.43007 38.7597 9.43007 36.9034 9.43007 35.1213C9.43007 34.2303 9.28156 33.4878 8.61329 32.7452C7.94502 32.0027 7.27674 31.0374 7.20249 30.1464C6.90548 27.1763 6.90548 24.2805 6.75698 21.0133C9.57857 21.7559 11.2121 20.7906 12.6229 18.6373C13.5882 17.2265 14.0337 15.9642 13.7367 14.2564C11.5091 14.2564 9.20731 14.2564 7.05399 14.2564C7.05399 10.2467 7.05399 6.31136 7.05399 2.37598C4.90066 2.37598 2.59884 2.37598 0 2.37598C0 11.4348 0 20.4193 0 29.4039C0 30.2949 0.222757 31.2602 0.445515 32.1512C2.15332 38.0914 7.27674 41.8783 13.4397 41.804C14.702 41.804 15.89 41.804 17.3751 41.804C17.3751 39.428 17.3751 37.1261 17.3751 34.8243C23.1668 34.8243 28.9585 34.8243 34.7502 34.8243C34.7502 34.6016 34.7502 34.4531 34.7502 34.3045ZM10.9894 41.4328C10.9151 41.4328 10.8409 41.4328 10.7666 41.3585C10.8409 41.3585 10.9151 41.3585 10.9894 41.4328ZM16.7811 35.7896C16.7811 36.0866 16.7811 36.3836 16.7811 36.6806C16.7811 36.3836 16.7811 36.0866 16.7811 35.7896C16.7811 35.6411 16.8553 35.5668 16.9296 35.4183C16.8553 35.4926 16.8553 35.6411 16.7811 35.7896ZM17.2266 27.7703C17.3751 23.6864 20.5679 20.6421 24.5033 20.8648C28.1417 21.0876 31.2603 24.2805 31.0375 27.7703H17.2266ZM33.2651 34.3788C33.7849 34.3788 34.1561 34.2303 34.3046 33.9333C34.1561 34.2303 33.8591 34.3045 33.2651 34.3788Z" fill="#BABABA"/>
<path d="M184.295 36.7549C184.22 36.8291 184.22 36.9776 184.146 37.0519C184.22 36.9034 184.22 36.8291 184.295 36.7549Z" fill="#BABABA"/>
<path d="M96.8252 21.9786C96.8252 21.4589 96.751 20.8649 96.5282 20.4936C94.0036 16.4097 90.5138 13.7366 85.6131 13.5139C81.0837 13.2911 76.6286 13.4396 72.0992 13.4396C70.5399 13.4396 70.4656 13.4396 70.4656 14.9989C70.4656 21.4589 70.4656 27.9188 70.4656 34.3046C70.4656 40.8388 70.4656 47.373 70.4656 53.9072C70.4656 54.724 70.5399 55.2438 71.6536 55.2438C73.0644 55.1695 74.4752 55.1695 75.886 55.2438C77.0741 55.318 77.4453 54.9467 77.4453 53.7587C77.3711 50.0461 77.4453 46.3335 77.3711 42.6208C77.3711 41.5813 77.6681 41.2843 78.7076 41.3585C80.5639 41.4328 82.4203 41.4328 84.2766 41.3585C89.5485 41.2843 93.5581 38.9825 96.3797 34.6016C96.6767 34.0818 96.8995 33.4135 96.8995 32.8195C96.8252 29.1811 96.8252 25.617 96.8252 21.9786ZM91.2563 27.8446C91.0335 31.3345 88.1377 34.156 84.4993 34.3046C82.4945 34.3788 80.4897 34.3046 78.4849 34.3046C77.8909 34.3046 77.4453 34.3046 77.4453 33.4878C77.4453 29.2554 77.4453 25.023 77.5196 20.8649C77.5196 20.7906 77.5938 20.7163 77.6681 20.4936C80.2669 20.4936 82.8658 20.2708 85.3904 20.5678C88.8802 20.8649 91.4791 24.2062 91.2563 27.8446Z" fill="#BABABA"/>
</svg>
