<svg width="35" height="35" viewBox="0 0 35 35" fill="none" xmlns="http://www.w3.org/2000/svg">
<mask id="mask0" mask-type="alpha" maskUnits="userSpaceOnUse" x="0" y="0" width="35" height="35">
<circle cx="17.5" cy="17.5" r="17.5" fill="white"/>
</mask>
<g mask="url(#mask0)">
<path d="M17.6434 35C27.3876 35 35.2869 27.165 35.2869 17.5C35.2869 7.83502 27.3876 0 17.6434 0C7.89924 0 0 7.83502 0 17.5C0 27.165 7.89924 35 17.6434 35Z" fill="#F0F0F0"/>
<path d="M35.2869 17.4994C35.2869 9.97502 30.4989 3.56052 23.7803 1.08789V33.911C30.4989 31.4383 35.2869 25.0238 35.2869 17.4994Z" fill="#D80027"/>
<path d="M0 17.4994C0 25.0238 4.78806 31.4383 11.5066 33.9109V1.08789C4.78806 3.56052 0 9.97502 0 17.4994Z" fill="#0052B4"/>
<path d="M17.5 35C27.165 35 35 27.165 35 17.5C35 7.83502 27.165 0 17.5 0C7.83502 0 0 7.83502 0 17.5C0 27.165 7.83502 35 17.5 35Z" fill="#D80027"/>
<path d="M9.57715 10.6523L11.0879 15.3008H15.9756L12.0244 18.1787L13.5352 22.8272L9.57715 19.9561L5.61914 22.8272L7.13672 18.1787L3.17871 15.3008H8.06641L9.57715 10.6523Z" fill="#FFDA44"/>
<path d="M20.7471 27.1064L19.5918 25.6846L17.8828 26.3477L18.874 24.8096L17.7188 23.3809L19.4893 23.8525L20.4873 22.3145L20.583 24.1465L22.3603 24.6182L20.6445 25.2744L20.7471 27.1064Z" fill="#FFDA44"/>
<path d="M23.0439 22.9365L23.5908 21.1865L22.0938 20.127L23.9258 20.0996L24.4658 18.3496L25.0605 20.0859L26.8926 20.0654L25.4228 21.1592L26.0107 22.8955L24.5137 21.8359L23.0439 22.9365Z" fill="#FFDA44"/>
<path d="M26.1406 12.8457L25.334 14.4932L26.6465 15.7715L24.835 15.5117L24.0283 17.1523L23.7139 15.3477L21.8955 15.0879L23.5225 14.2334L23.208 12.4219L24.5205 13.7002L26.1406 12.8457Z" fill="#FFDA44"/>
<path d="M20.7949 7.85547L20.6582 9.68066L22.3603 10.3711L20.5762 10.8086L20.4463 12.6406L19.4824 11.082L17.6982 11.5195L18.8809 10.1182L17.9102 8.56641L19.6123 9.25684L20.7949 7.85547Z" fill="#FFDA44"/>
<path d="M17.5 35C27.165 35 35 27.165 35 17.5C35 7.83502 27.165 0 17.5 0C7.83502 0 0 7.83502 0 17.5C0 27.165 7.83502 35 17.5 35Z" fill="#F0F0F0"/>
<path d="M35 17.4994C35 9.97502 30.2509 3.56052 23.5869 1.08789V33.911C30.2509 31.4383 35 25.0238 35 17.4994Z" fill="#D80027"/>
<path d="M0 17.4994C0 25.0238 4.74906 31.4383 11.4131 33.9109V1.08789C4.74906 3.56052 0 9.97502 0 17.4994Z" fill="#6DA544"/>
<path d="M0 17.4993C0 19.6399 0.388225 21.6904 1.09741 23.5862L17.6434 25.108L34.1895 23.5862C34.8987 21.6904 35.2869 19.6399 35.2869 17.4993C35.2869 15.3587 34.8987 13.3082 34.1895 11.4124L17.6434 9.89062L1.09741 11.4124C0.388225 13.3082 0 15.3587 0 17.4993Z" fill="#FFDA44"/>
<path d="M34.1897 11.4131C31.6968 4.74913 25.2297 0 17.6437 0C10.0576 0 3.59055 4.74913 1.09766 11.4131H34.1897Z" fill="#D80027"/>
<path d="M1.09766 23.5879C3.59055 30.2518 10.0576 35.001 17.6437 35.001C25.2297 35.001 31.6968 30.2518 34.1897 23.5879H1.09766Z" fill="#D80027"/>
<path d="M1.08887 23.5861C3.5615 30.2501 9.976 34.9992 17.5004 34.9992C25.0248 34.9992 31.4393 30.2501 33.9119 23.5861L17.5004 22.0645L1.08887 23.5861Z" fill="#FFDA44"/>
<path d="M17.5004 0C9.976 0 3.5615 4.74906 1.08887 11.4131L17.5004 12.9348L33.9119 11.413C31.4393 4.74906 25.0248 0 17.5004 0Z" fill="black"/>
<path d="M1.08849 11.4121C0.385069 13.3079 0 15.3584 0 17.499C0 19.6396 0.385069 21.6901 1.08849 23.586H33.9116C34.615 21.6901 35 19.6396 35 17.499C35 15.3584 34.615 13.3079 33.9115 11.4121H1.08849Z" fill="#D80027"/>
<path d="M17.6434 35C27.3876 35 35.2868 27.1649 35.2868 17.5C35.2868 7.83501 27.3876 0 17.6434 0C7.89923 0 0 7.83501 0 17.5C0 27.1649 7.89923 35 17.6434 35Z" fill="#F0F0F0"/>
<path d="M34.1894 23.5859C34.8987 21.6901 35.2868 19.6396 35.2868 17.499C35.2868 15.3584 34.8987 13.3079 34.1894 11.4121H1.09741C0.388224 13.3079 0 15.3584 0 17.499C0 19.6396 0.388224 21.6901 1.09741 23.5859L17.6434 25.1077L34.1894 23.5859Z" fill="#0052B4"/>
<path d="M17.6437 35.0009C25.2297 35.0009 31.6968 30.2519 34.1897 23.5879H1.09766C3.59055 30.2519 10.0576 35.0009 17.6437 35.0009Z" fill="#D80027"/>
<path d="M17.5 35C27.165 35 35 27.165 35 17.5C35 7.83502 27.165 0 17.5 0C7.83502 0 0 7.83502 0 17.5C0 27.165 7.83502 35 17.5 35Z" fill="#F0F0F0"/>
<path d="M3.61726 6.8457C2.24262 8.63419 1.20608 10.6956 0.602539 12.935H9.7065L3.61726 6.8457Z" fill="#0052B4"/>
<path d="M34.3968 12.9349C33.7933 10.6956 32.7567 8.63419 31.3821 6.8457L25.293 12.9349H34.3968Z" fill="#0052B4"/>
<path d="M0.602539 22.0664C1.20615 24.3057 2.24269 26.3671 3.61726 28.1555L9.7063 22.0664H0.602539Z" fill="#0052B4"/>
<path d="M28.1536 3.6183C26.3651 2.24366 24.3038 1.20713 22.0645 0.603516V9.70741L28.1536 3.6183Z" fill="#0052B4"/>
<path d="M6.8457 31.382C8.63419 32.7566 10.6956 33.7932 12.9349 34.3968V25.293L6.8457 31.382Z" fill="#0052B4"/>
<path d="M12.9348 0.603516C10.6955 1.20713 8.63412 2.24366 6.8457 3.61823L12.9348 9.70734V0.603516Z" fill="#0052B4"/>
<path d="M22.0645 34.3968C24.3038 33.7932 26.3651 32.7566 28.1536 31.3821L22.0645 25.293V34.3968Z" fill="#0052B4"/>
<path d="M25.293 22.0664L31.3821 28.1556C32.7567 26.3672 33.7933 24.3057 34.3968 22.0664H25.293Z" fill="#0052B4"/>
<path d="M34.8519 15.2174H19.7827H19.7827V0.148135C19.0354 0.0508594 18.2736 0 17.5 0C16.7262 0 15.9646 0.0508594 15.2174 0.148135V15.2173V15.2173H0.148135C0.0508594 15.9646 0 16.7264 0 17.5C0 18.2738 0.0508594 19.0354 0.148135 19.7826H15.2173H15.2173V34.8519C15.9646 34.9491 16.7262 35 17.5 35C18.2736 35 19.0354 34.9492 19.7826 34.8519V19.7827V19.7827H34.8519C34.9491 19.0354 35 18.2738 35 17.5C35 16.7264 34.9491 15.9646 34.8519 15.2174Z" fill="#D80027"/>
<path d="M22.0654 22.0645L29.8745 29.8736C30.2337 29.5146 30.5763 29.1392 30.9032 28.7501L24.2175 22.0645H22.0654V22.0645Z" fill="#D80027"/>
<path d="M12.9342 22.0645H12.934L5.125 29.8735C5.48402 30.2326 5.85938 30.5753 6.24849 30.9022L12.9342 24.2163V22.0645Z" fill="#D80027"/>
<path d="M12.9354 12.9343V12.9342L5.12633 5.125C4.76717 5.48402 4.42455 5.85938 4.09766 6.24849L10.7834 12.9342H12.9354V12.9343Z" fill="#D80027"/>
<path d="M22.0654 12.9355L29.8746 5.12626C29.5156 4.7671 29.1402 4.42448 28.7511 4.09766L22.0654 10.7834V12.9355Z" fill="#D80027"/>
</g>
</svg>
