<svg width="25" height="25" viewBox="0 0 25 25" fill="none" xmlns="http://www.w3.org/2000/svg">
<path d="M0.777344 16.8486C2.54351 21.6086 7.1253 25.0008 12.4999 25.0008C17.8744 25.0008 22.4562 21.6086 24.2224 16.8486L12.4999 15.7617L0.777344 16.8486Z" fill="#FFDA44"/>
<path d="M12.4999 0C7.1253 0 2.54351 3.39219 0.777344 8.1522L12.4999 9.23911L24.2224 8.15215C22.4562 3.39219 17.8744 0 12.4999 0Z" fill="black"/>
<path d="M0.77749 8.15234C0.275049 9.50649 0 10.9711 0 12.5001C0 14.0292 0.275049 15.4938 0.77749 16.848H24.2226C24.725 15.4938 25 14.0292 25 12.5001C25 10.9711 24.725 9.50649 24.2225 8.15234H0.77749Z" fill="#D80027"/>
</svg>
