<svg width="25" height="25" viewBox="0 0 25 25" fill="none" xmlns="http://www.w3.org/2000/svg">
<path d="M12.5 25C19.4036 25 25 19.4036 25 12.5C25 5.59644 19.4036 0 12.5 0C5.59644 0 0 5.59644 0 12.5C0 19.4036 5.59644 25 12.5 25Z" fill="#D80027"/>
<path d="M6.84082 7.60547L7.91992 10.9258H11.4111L8.58887 12.9814L9.66797 16.3018L6.84082 14.251L4.01367 16.3018L5.09766 12.9814L2.27051 10.9258H5.76172L6.84082 7.60547Z" fill="#FFDA44"/>
<path d="M14.8193 19.3604L13.9941 18.3447L12.7734 18.8184L13.4814 17.7197L12.6562 16.6992L13.9209 17.0361L14.6338 15.9375L14.7021 17.2461L15.9717 17.583L14.7461 18.0518L14.8193 19.3604Z" fill="#FFDA44"/>
<path d="M16.46 16.3818L16.8506 15.1318L15.7812 14.375L17.0898 14.3555L17.4756 13.1055L17.9004 14.3457L19.209 14.3311L18.1592 15.1123L18.5791 16.3525L17.5098 15.5957L16.46 16.3818Z" fill="#FFDA44"/>
<path d="M18.6719 9.17383L18.0957 10.3506L19.0332 11.2637L17.7393 11.0781L17.1631 12.25L16.9385 10.9609L15.6396 10.7754L16.8018 10.165L16.5771 8.87109L17.5146 9.78418L18.6719 9.17383Z" fill="#FFDA44"/>
<path d="M14.8535 5.60938L14.7559 6.91309L15.9717 7.40625L14.6973 7.71875L14.6045 9.02734L13.916 7.91406L12.6416 8.22656L13.4863 7.22559L12.793 6.11719L14.0088 6.61035L14.8535 5.60938Z" fill="#FFDA44"/>
</svg>
