<svg width="25" height="25" viewBox="0 0 25 25" fill="none" xmlns="http://www.w3.org/2000/svg">
<path d="M12.6024 25C19.5626 25 25.2049 19.4035 25.2049 12.5C25.2049 5.59643 19.5626 0 12.6024 0C5.64231 0 0 5.59643 0 12.5C0 19.4035 5.64231 25 12.6024 25Z" fill="#F0F0F0"/>
<path d="M24.421 16.8479C24.9276 15.4938 25.2049 14.0291 25.2049 12.5001C25.2049 10.9711 24.9276 9.50649 24.421 8.15234H0.783862C0.277303 9.50649 0 10.9711 0 12.5001C0 14.0291 0.277303 15.4938 0.783862 16.8479L12.6024 17.9349L24.421 16.8479Z" fill="#0052B4"/>
<path d="M12.6028 24.9998C18.0214 24.9998 22.6407 21.6077 24.4213 16.8477H0.78418C2.56482 21.6077 7.18415 24.9998 12.6028 24.9998Z" fill="#D80027"/>
</svg>
