<svg width="25" height="25" viewBox="0 0 25 25" fill="none" xmlns="http://www.w3.org/2000/svg">
<path d="M0 12.5012C0 14.0302 0.277303 15.4948 0.783863 16.849L12.6025 17.9359L24.4211 16.849C24.9276 15.4948 25.2049 14.0302 25.2049 12.5012C25.2049 10.9722 24.9276 9.50752 24.4211 8.15337L12.6025 7.06641L0.783863 8.15337C0.277303 9.50752 0 10.9722 0 12.5012Z" fill="#FFDA44"/>
<path d="M24.4214 8.1522C22.6407 3.39224 18.0214 0 12.6028 0C7.18416 0 2.56482 3.39224 0.78418 8.1522H24.4214Z" fill="#D80027"/>
<path d="M0.78418 16.8477C2.56482 21.6076 7.18416 24.9999 12.6028 24.9999C18.0214 24.9999 22.6407 21.6076 24.4214 16.8477H0.78418Z" fill="#D80027"/>
</svg>
