<svg width="14" height="10" viewBox="0 0 14 10" fill="none" xmlns="http://www.w3.org/2000/svg">
<g opacity="0.5">
<path d="M11.5362 0H1.60685C0.7205 0 0 0.7205 0 1.60685V8.39315C0 9.2795 0.7205 10 1.60685 10H11.5334C12.4198 10 13.1403 9.2795 13.1403 8.39315V1.60957C13.143 0.723219 12.4225 0 11.5362 0ZM12.4089 8.39315C12.4089 8.87439 12.0174 9.26591 11.5362 9.26591H1.60685C1.12561 9.26591 0.734095 8.87439 0.734095 8.39315V1.60957C0.734095 1.12833 1.12561 0.736813 1.60685 0.736813H11.5334C12.0147 0.736813 12.4062 1.12833 12.4062 1.60957V8.39315H12.4089Z" fill="#232323"/>
<path d="M8.2869 4.91557L11.5006 2.03357C11.6501 1.89763 11.6637 1.66653 11.5278 1.51427C11.3919 1.36473 11.1607 1.35114 11.0085 1.48708L6.57674 5.46479L5.71214 4.69263C5.70942 4.68991 5.7067 4.68719 5.7067 4.68447C5.68766 4.66544 5.66863 4.64912 5.64688 4.63281L2.12867 1.48436C1.97641 1.34842 1.7453 1.36201 1.60936 1.51427C1.47342 1.66653 1.48701 1.89763 1.63927 2.03357L4.89104 4.94004L1.65286 7.97158C1.50604 8.11025 1.49789 8.34135 1.63655 8.49089C1.70996 8.56702 1.80784 8.6078 1.90572 8.6078C1.99544 8.6078 2.08516 8.57517 2.15585 8.50992L5.44297 5.43488L6.33476 6.23151C6.40545 6.29404 6.49245 6.32395 6.57945 6.32395C6.66646 6.32395 6.75618 6.29132 6.82415 6.22879L7.74041 5.40769L11.0085 8.51264C11.0792 8.58061 11.1716 8.61324 11.2613 8.61324C11.3592 8.61324 11.4544 8.57517 11.5278 8.49904C11.6665 8.35222 11.661 8.1184 11.5142 7.97974L8.2869 4.91557Z" fill="#232323"/>
</g>
</svg>
