<svg width="12" height="15" viewBox="0 0 12 15" fill="none" xmlns="http://www.w3.org/2000/svg">
<path d="M5.52215 0C2.47738 0 0 2.47738 0 5.52245C0 6.31673 0.162569 7.07508 0.48295 7.77663C1.86364 10.7979 4.51081 13.9877 5.28942 14.8933C5.34776 14.961 5.4328 15 5.5223 15C5.6118 15 5.69684 14.961 5.75518 14.8933C6.53349 13.9879 9.18065 10.7982 10.5618 7.77663C10.8823 7.07508 11.0448 6.31673 11.0448 5.52245C11.0444 2.47738 8.56706 0 5.52215 0ZM5.52215 8.39083C3.94051 8.39083 2.65361 7.10394 2.65361 5.5223C2.65361 3.94051 3.94051 2.65361 5.52215 2.65361C7.10379 2.65361 8.39068 3.94051 8.39068 5.5223C8.39083 7.10394 7.10394 8.39083 5.52215 8.39083Z" fill="#232323"/>
</svg>
