<svg width="26" height="30" viewBox="0 0 26 30" fill="none" xmlns="http://www.w3.org/2000/svg">
<path d="M1.00094 4.84635L1.00268 4.31582L1.00268 4.31527L1.00586 3.34636V4.31542V4.31597L1.00094 4.84635ZM1.00094 4.84635C1.00002 4.84636 0.9991 4.84636 0.998179 4.84636H0.998194H0.998209H0.998224H0.998239H0.998254H0.998269H0.998284H0.998299H0.998314H0.998329H0.998344H0.998359H0.998374H0.998389H0.998404H0.998419H0.998434H0.998449H0.998464H0.998479H0.998494H0.998509H0.998524H0.998539H0.998554H0.998569H0.998584H0.998599H0.998614H0.998629H0.998644H0.998659H0.998674H0.998689H0.998704H0.998719H0.998734H0.998749H0.998764H0.998779H0.998794H0.998809H0.998824H0.998839H0.998854H0.998869H0.998884H0.998899H0.998914H0.998929H0.998944H0.998959H0.998974H0.998989H0.999004H0.999019H0.999034H0.999049H0.999064H0.999079H0.999094H0.999109H0.999124H0.999139H0.999154H0.999169H0.999184H0.999199H0.999214H0.999229H0.999244H0.999259H0.999274H0.999289H0.999304H0.999319H0.999334H0.999349H0.999364H0.999379H0.999394H0.999409H0.999424H0.999439H0.999454H0.999469H0.999484H0.999499H0.999514H0.999529H0.999544H0.999559H0.999574H0.999589H0.999604H0.999619H0.999634H0.999649H0.999664H0.999679H0.999694H0.999709H0.999724H0.999739H0.999754H0.999769H0.999784H0.999799H0.999814H0.999829H0.999844H0.999858H0.999874H0.999889H0.999904H0.999919H0.999933H0.999949H0.999963H0.999978H0.999994H1.00001H1.00002H1.00004H1.00005H1.00007H1.00008H1.0001H1.00011H1.00013H1.00014H1.00016H1.00017H1.00019H1.0002H1.00022H1.00023H1.00025H1.00026H1.00028H1.00029H1.00031H1.00032H1.00034H1.00035H1.00037H1.00038H1.0004H1.00041H1.00043H1.00044H1.00046H1.00047H1.00049H1.0005H1.00052H1.00053H1.00055H1.00056H1.00058H1.00059H1.00061H1.00062H1.00064H1.00065H1.00067H1.00068H1.0007H1.00071H1.00073H1.00074H1.00076H1.00077H1.00079H1.0008H1.00082H1.00083H1.00085H1.00086H1.00088H1.00089H1.00091H1.00092H1.00094H1.00095H1.00097H1.00098H1.001H1.00101H1.00103H1.00104H1.00106H1.00107H1.00109H1.0011H1.00112H1.00113H1.00115H1.00116H1.00118H1.00119H1.00121H1.00122H1.00124H1.00125H1.00127H1.00128H1.0013H1.00131H1.00133H1.00134H1.00136H1.00137H1.00139H1.0014H1.00142H1.00143H1.00145H1.00146H1.00148H1.00149H1.00151H1.00152H1.00154H1.00155H1.00157H1.00158H1.0016H1.00161H1.00163H1.00164H1.00166H1.00167H1.00169H1.0017H1.00172H1.00173H1.00175H1.00176H1.00178H1.00179H1.00181H1.00182H1.00184H1.00185H1.00187H1.00188H1.0019H1.00191H1.00193H1.00194H1.00196H1.00197H1.00199H1.002H1.00202H1.00203H1.00205H1.00206H1.00208H1.00209H1.00211H1.00212H1.00214H1.00215H1.00217H1.00218H1.0022H1.00221H1.00223H1.00224H1.00226H1.00227H1.00229H1.0023H1.00232H1.00233H1.00235H1.00236H1.00238H1.00239H1.00241H1.00242H1.00244H1.00245H1.00247H1.00248H1.0025H1.00251H1.00253H1.00254H1.00256H1.00257H1.00259H1.0026H1.00262H1.00263H1.00265H1.00266H1.00268H1.00269H1.00271H1.00272H1.00274H1.00275H1.00277H1.00278H1.0028H1.00281H1.00283H1.00284H1.00286H1.00287H1.00289H1.0029H1.00292H1.00293H1.00295H1.00296H1.00298H1.00299H1.00301H1.00302H1.00304H1.00305H1.00307H1.00308H1.0031H1.00311H1.00313H1.00314H1.00316H1.00317H1.00319H1.0032H1.00322H1.00323H1.00325H1.00326H1.00328H1.00329H1.00331H1.00332H1.00334H1.00335H1.00337H1.00338H1.0034H1.00341H1.00343H1.00344H1.00346H1.00347H1.00349H1.0035H1.00352H1.00353H1.00355H1.00356H1.00358H1.00359H1.00361H1.00362H1.00364H1.00365H1.00367H1.00368H1.0037H1.00371H1.00373H1.00374H1.00376H1.00377H1.00379H1.0038H1.00382H1.00383H1.00385H1.00386H1.00388H1.00389H1.00391H1.00392H1.00394H1.00395H1.00397H1.00398H1.004H1.00401H1.00403H1.00404H1.00406H1.00407H1.00409H1.0041H1.00412H1.00413H1.00415H1.00416H1.00418H1.00419H1.00421H1.00422H1.00424H1.00425H1.00427H1.00428H1.0043H1.00431H1.00433H1.00434H1.00436H1.00437H1.00439H1.0044H1.00442H1.00443H1.00445H1.00446H1.00448H1.00449H1.00451H1.00452H1.00454H1.00455H1.00457H1.00458H1.0046H1.00461H1.00463H1.00464H1.00466H1.00467H1.00469H1.0047H1.00472H1.00473H1.00475H1.00476H1.00478H1.00479H1.00481H1.00482H1.00484H1.00485H1.00487H1.00488H1.0049H1.00491H1.00493H1.00494H1.00496H1.00497H1.00499H1.005H1.00502H1.00503H1.00505H1.00506H1.00508H1.00509H1.00511H1.00512H1.00514H1.00515H1.00517H1.00518H1.0052H1.00521H1.00523H1.00524H1.00526H1.00527H1.00529H1.0053H1.00532H1.00533H1.00535H1.00536H1.00538H1.00539H1.00541H1.00542H1.00544H1.00545H1.00547H1.00548H1.0055H1.00551H1.00553H1.00554H1.00556H1.00557H1.00559H1.0056H1.00562H1.00563H1.00565L1.00094 4.84635ZM23.2697 13.9707C21.8788 19.0265 18.984 24.7698 13.0001 28.4159C7.01574 24.7709 4.12079 19.0269 2.72997 13.9704C1.57555 9.77335 1.48821 6.1518 1.50108 4.84532C7.56488 4.77829 11.3875 2.71319 13.0001 1.60854C14.6125 2.71326 18.4361 4.77862 24.4989 4.84534C24.5117 6.15258 24.4242 9.7739 23.2697 13.9707Z" stroke="#38AAEB" stroke-width="3"/>
</svg>
