<svg width="28" height="30" viewBox="0 0 28 30" fill="none" xmlns="http://www.w3.org/2000/svg">
<path d="M27.6066 7.0726C27.6066 6.95863 27.5812 6.84466 27.5306 6.73702C27.4293 6.52174 27.233 6.37611 27.0177 6.33179L14.1199 0.0759814C13.9109 -0.0253271 13.664 -0.0253271 13.455 0.0759814L0.430561 6.38877C0.17729 6.50908 0.0126636 6.76235 0 7.04728V7.05361C0 7.05994 0 7.06627 0 7.07894V22.9211C0 23.2123 0.164626 23.4783 0.430561 23.6049L13.455 29.9177C13.4614 29.9177 13.4614 29.9177 13.4677 29.924C13.4867 29.9304 13.5057 29.9367 13.5247 29.9493C13.531 29.9493 13.5373 29.9557 13.55 29.9557C13.569 29.962 13.588 29.9683 13.607 29.9747C13.6133 29.9747 13.6197 29.981 13.626 29.981C13.645 29.9873 13.6703 29.9873 13.6893 29.9937C13.6956 29.9937 13.702 29.9937 13.7083 29.9937C13.7336 29.9937 13.7653 30 13.7906 30C13.8159 30 13.8476 30 13.8729 29.9937C13.8793 29.9937 13.8856 29.9937 13.8919 29.9937C13.9109 29.9937 13.9362 29.9873 13.9552 29.981C13.9616 29.981 13.9679 29.9747 13.9742 29.9747C13.9932 29.9683 14.0122 29.962 14.0312 29.9557C14.0376 29.9557 14.0439 29.9493 14.0566 29.9493C14.0755 29.943 14.0945 29.9367 14.1135 29.924C14.1199 29.924 14.1199 29.924 14.1262 29.9177L27.1887 23.5859C27.4483 23.4593 27.6192 23.1933 27.6192 22.9021V7.0916C27.6066 7.08527 27.6066 7.07894 27.6066 7.0726ZM13.7843 1.60194L25.0802 7.07894L20.9202 9.09878L9.62431 3.62178L13.7843 1.60194ZM13.7843 12.5559L2.48839 7.07894L7.88307 4.46391L19.179 9.9409L13.7843 12.5559ZM1.51963 8.30097L13.0245 13.8793V28.0182L1.51963 22.4398V8.30097ZM14.5441 28.0182V13.8793L19.9451 11.2579V14.9557C19.9451 15.3736 20.287 15.7155 20.7049 15.7155C21.1228 15.7155 21.4647 15.3736 21.4647 14.9557V10.5171L26.0869 8.27564V22.4145L14.5441 28.0182Z" fill="#FF7800"/>
</svg>
