<svg width="33" height="30" viewBox="0 0 33 30" fill="none" xmlns="http://www.w3.org/2000/svg">
<path d="M25.9544 21.8242C23.7007 21.8242 21.8672 23.6578 21.8672 25.9114C21.8672 28.165 23.7007 29.9986 25.9544 29.9986C28.208 29.9986 30.0416 28.165 30.0416 25.9114C30.0416 23.6578 28.208 21.8242 25.9544 21.8242ZM25.9544 27.5463C25.0527 27.5463 24.3195 26.813 24.3195 25.9114C24.3195 25.0098 25.0527 24.2765 25.9544 24.2765C26.856 24.2765 27.5892 25.0098 27.5892 25.9114C27.5892 26.813 26.856 27.5463 25.9544 27.5463Z" fill="#232323"/>
<path d="M11.1175 21.8242C8.86374 21.8242 7.03027 23.6578 7.03027 25.9114C7.03027 28.165 8.86381 29.9986 11.1175 29.9986C13.3711 29.9986 15.2046 28.165 15.2046 25.9114C15.2046 23.6578 13.3711 21.8242 11.1175 21.8242ZM11.1175 27.5463C10.2158 27.5463 9.48258 26.813 9.48258 25.9114C9.48258 25.0098 10.2158 24.2765 11.1175 24.2765C12.0191 24.2765 12.7523 25.0098 12.7523 25.9114C12.7523 26.813 12.0191 27.5463 11.1175 27.5463Z" fill="#232323"/>
<path d="M32.5186 6.02898C32.2865 5.73185 31.9305 5.55854 31.5532 5.55854H7.56871L6.46516 0.941255C6.33315 0.389512 5.83979 5.5997e-09 5.27249 5.5997e-09H1.22615C0.548927 -6.40167e-05 0 0.548863 0 1.22609C0 1.90332 0.548927 2.45224 1.22615 2.45224H4.30466L8.28967 19.1264C8.42168 19.6786 8.91504 20.0677 9.48234 20.0677H28.5696C29.1333 20.0677 29.6245 19.6835 29.7598 19.1366L32.7435 7.07933C32.8338 6.71318 32.7508 6.3261 32.5186 6.02898ZM27.6103 17.6154H10.4502L8.15477 8.01085H29.9866L27.6103 17.6154Z" fill="#232323"/>
</svg>
