<svg width="23" height="30" viewBox="0 0 23 30" fill="none" xmlns="http://www.w3.org/2000/svg">
<path d="M10.9768 11.5252C10.6112 11.1595 10.0168 11.1577 9.6493 11.5233L6.56305 14.6114L5.3518 13.3983C4.98617 13.0327 4.3918 13.0327 4.02617 13.3983C3.66055 13.7639 3.66055 14.3583 4.02617 14.7239L5.90117 16.5989C6.08305 16.7827 6.32305 16.8745 6.56305 16.8745C6.80305 16.8745 7.04305 16.7827 7.2268 16.6008L10.9768 12.8508C11.3424 12.4852 11.3424 11.8908 10.9768 11.5252Z" fill="#232323"/>
<path d="M10.9768 19.0252C10.6112 18.6595 10.0168 18.6577 9.6493 19.0233L6.56305 22.1114L5.3518 20.9002C4.98617 20.5345 4.3918 20.5345 4.02617 20.9002C3.66055 21.2658 3.66055 21.8602 4.02617 22.2258L5.90117 24.1008C6.08305 24.2826 6.32305 24.3745 6.56305 24.3745C6.80305 24.3745 7.04305 24.2826 7.2268 24.1008L10.9768 20.3508C11.3424 19.9852 11.3424 19.3908 10.9768 19.0252Z" fill="#232323"/>
<path d="M17.8125 13.125H14.0625C13.545 13.125 13.125 13.545 13.125 14.0625C13.125 14.58 13.545 15 14.0625 15H17.8125C18.33 15 18.75 14.58 18.75 14.0625C18.75 13.545 18.33 13.125 17.8125 13.125Z" fill="#232323"/>
<path d="M17.8125 20.625H14.0625C13.545 20.625 13.125 21.045 13.125 21.5625C13.125 22.08 13.545 22.5 14.0625 22.5H17.8125C18.33 22.5 18.75 22.08 18.75 21.5625C18.75 21.045 18.33 20.625 17.8125 20.625Z" fill="#232323"/>
<path d="M20.625 3.75H16.875V2.8125C16.875 2.295 16.455 1.875 15.9375 1.875H13.9031C13.515 0.78375 12.4725 0 11.25 0C10.0275 0 8.985 0.78375 8.59688 1.875H6.5625C6.045 1.875 5.625 2.295 5.625 2.8125V3.75H1.875C0.841875 3.75 0 4.59188 0 5.625V28.125C0 29.1581 0.841875 30 1.875 30H20.625C21.6581 30 22.5 29.1581 22.5 28.125V5.625C22.5 4.59188 21.6581 3.75 20.625 3.75ZM7.5 3.75H9.375C9.8925 3.75 10.3125 3.33 10.3125 2.8125C10.3125 2.295 10.7325 1.875 11.25 1.875C11.7675 1.875 12.1875 2.295 12.1875 2.8125C12.1875 3.33 12.6075 3.75 13.125 3.75H15V5.625H7.5V3.75ZM20.625 28.125H1.875V5.625H5.625V6.5625C5.625 7.08 6.045 7.5 6.5625 7.5H15.9375C16.455 7.5 16.875 7.08 16.875 6.5625V5.625H20.625V28.125Z" fill="#232323"/>
</svg>
