<svg width="24" height="19" viewBox="0 0 24 19" fill="none" xmlns="http://www.w3.org/2000/svg">
<path d="M21.0701 0H2.93482C1.31595 0 0 1.31595 0 2.93482V15.3296C0 16.9485 1.31595 18.2644 2.93482 18.2644H21.0652C22.684 18.2644 24 16.9485 24 15.3296V2.93979C24.005 1.32092 22.689 0 21.0701 0ZM22.6642 15.3296C22.6642 16.2086 21.9491 16.9236 21.0701 16.9236H2.93482C2.05586 16.9236 1.34078 16.2086 1.34078 15.3296V2.93979C1.34078 2.06083 2.05586 1.34575 2.93482 1.34575H21.0652C21.9441 1.34575 22.6592 2.06083 22.6592 2.93979V15.3296H22.6642Z" fill="#232323"/>
<path d="M15.1359 8.9784L21.0055 3.71459C21.2787 3.4663 21.3035 3.0442 21.0552 2.76611C20.8069 2.49299 20.3848 2.46816 20.1067 2.71645L12.0124 9.9815L10.4332 8.5712C10.4283 8.56623 10.4233 8.56127 10.4233 8.5563C10.3885 8.52154 10.3538 8.49174 10.3141 8.46195L3.88824 2.71149C3.61015 2.46319 3.18805 2.48802 2.93976 2.76611C2.69147 3.0442 2.71629 3.4663 2.99438 3.71459L8.93355 9.02309L3.01921 14.56C2.75106 14.8133 2.73616 15.2354 2.98942 15.5085C3.1235 15.6475 3.30227 15.722 3.48104 15.722C3.64491 15.722 3.80878 15.6624 3.9379 15.5433L9.94162 9.92688L11.5704 11.3819C11.6995 11.4961 11.8584 11.5507 12.0173 11.5507C12.1763 11.5507 12.3401 11.4911 12.4643 11.3769L14.1378 9.87722L20.1067 15.5482C20.2358 15.6724 20.4047 15.732 20.5686 15.732C20.7473 15.732 20.9211 15.6624 21.0552 15.5234C21.3085 15.2552 21.2985 14.8282 21.0304 14.5749L15.1359 8.9784Z" fill="#232323"/>
</svg>
