<svg width="54" height="42" viewBox="0 0 54 42" version="1.1" xmlns="http://www.w3.org/2000/svg" xmlns:xlink="http://www.w3.org/1999/xlink">
<g id="Canvas" fill="none">
<g id="&#208;&#156;&#208;&#190;&#208;&#189;&#209;&#130;&#208;&#176;&#208;&#182;&#208;&#189;&#208;&#176;&#209;&#143; &#208;&#190;&#208;&#177;&#208;&#187;&#208;&#176;&#209;&#129;&#209;&#130;&#209;&#140; 3 &#208;&#186;&#208;&#190;&#208;&#191;&#208;&#184;&#209;&#143; 5">
<g id="Vector">
<path d="M 0 0L 49 0" stroke-width="2" stroke-miterlimit="10" transform="translate(2 41)" stroke="#F88453"/>
</g>
<g id="Vector_2">
<path d="M 32 2L 32 32L 17 32C 16.5343 31.379 15.9303 30.875 15.2361 30.5279C 14.5418 30.1807 13.7762 30 13 30C 12.2238 30 11.4582 30.1807 10.7639 30.5279C 10.0697 30.875 9.46574 31.379 9 32L 2 32L 2 2L 32 2ZM 34 0L 0 0L 0 34L 10.18 34C 10.3902 33.4208 10.7736 32.9205 11.2782 32.5668C 11.7827 32.2132 12.3839 32.0235 13 32.0235C 13.6161 32.0235 14.2173 32.2132 14.7218 32.5668C 15.2264 32.9205 15.6098 33.4208 15.82 34L 34 34L 34 0Z" fill="#F88453"/>
</g>
<g id="Vector_3">
<path d="M 0 0L 22 0" stroke-width="2" stroke-miterlimit="10" transform="translate(6 21)" stroke="#F88453"/>
</g>
<g id="Vector_4">
<path d="M 0 0L 22 0" stroke-width="2" stroke-miterlimit="10" transform="translate(6 11)" stroke="#F88453"/>
</g>
<g id="Vector_5">
<path d="M 6.56 2L 8.1 6.63L 8.56 8L 11.17 8L 20 16.83L 20 28L 15 28C 14.5343 27.379 13.9303 26.875 13.2361 26.5279C 12.5418 26.1807 11.7762 26 11 26C 10.2238 26 9.45821 26.1807 8.76393 26.5279C 8.06965 26.875 7.46574 27.379 7 28L 2 28L 2 2L 6.56 2ZM 8 0L 0 0L 0 30L 8.18 30C 8.3902 29.4208 8.77363 28.9205 9.27816 28.5668C 9.7827 28.2132 10.3839 28.0235 11 28.0235C 11.6161 28.0235 12.2173 28.2132 12.7218 28.5668C 13.2264 28.9205 13.6098 29.4208 13.82 30L 22 30L 22 16L 12 6L 10 6L 8 0Z" transform="translate(32 4)" fill="#F88453"/>
</g>
<g id="Vector_6">
<path d="M 3.17 2L 7.17 6L 2 6L 2 2L 3.17 2ZM 4 0L 0 0L 0 8L 10 8L 10 6L 4 0Z" transform="translate(38 14)" fill="#F88453"/>
</g>
<g id="Vector_7">
<path d="M 5 2C 5.59335 2 6.17336 2.17595 6.66671 2.50559C 7.16006 2.83524 7.54458 3.30377 7.77164 3.85195C 7.9987 4.40013 8.05811 5.00333 7.94236 5.58527C 7.8266 6.16721 7.54088 6.70176 7.12132 7.12132C 6.70177 7.54088 6.16722 7.8266 5.58527 7.94236C 5.00333 8.05811 4.40013 7.9987 3.85195 7.77164C 3.30377 7.54457 2.83524 7.16006 2.50559 6.66671C 2.17595 6.17336 2 5.59334 2 5C 2 4.20435 2.31607 3.44129 2.87868 2.87868C 3.44129 2.31607 4.20435 2 5 2ZM 5 0C 4.0111 0 3.0444 0.293244 2.22215 0.842651C 1.39991 1.39206 0.759042 2.17295 0.380604 3.08658C 0.00216594 4.00021 -0.0968507 5.00555 0.0960754 5.97545C 0.289002 6.94536 0.765206 7.83627 1.46447 8.53553C 2.16373 9.2348 3.05465 9.711 4.02455 9.90393C 4.99445 10.0969 5.99979 9.99783 6.91342 9.6194C 7.82705 9.24096 8.60794 8.6001 9.15735 7.77785C 9.70676 6.95561 10 5.98891 10 5C 10 4.34339 9.87067 3.69321 9.6194 3.08658C 9.36813 2.47995 8.99983 1.92876 8.53554 1.46447C 8.07124 1.00017 7.52005 0.631877 6.91342 0.380604C 6.30679 0.12933 5.65661 0 5 0Z" transform="translate(8 30)" fill="#F88453"/>
</g>
<g id="Vector_8">
<path d="M 5 2C 5.59335 2 6.17336 2.17595 6.66671 2.50559C 7.16006 2.83524 7.54458 3.30377 7.77164 3.85195C 7.9987 4.40013 8.05811 5.00333 7.94236 5.58527C 7.8266 6.16721 7.54088 6.70176 7.12132 7.12132C 6.70176 7.54088 6.16722 7.8266 5.58527 7.94236C 5.00333 8.05811 4.40013 7.9987 3.85195 7.77164C 3.30378 7.54457 2.83524 7.16006 2.50559 6.66671C 2.17595 6.17336 2 5.59334 2 5C 2 4.20435 2.31607 3.44129 2.87868 2.87868C 3.44129 2.31607 4.20435 2 5 2ZM 5 0C 4.0111 0 3.0444 0.293244 2.22215 0.842651C 1.39991 1.39206 0.759044 2.17295 0.380606 3.08658C 0.00216785 4.00021 -0.0968507 5.00555 0.0960754 5.97545C 0.289002 6.94536 0.765206 7.83627 1.46447 8.53553C 2.16373 9.2348 3.05465 9.711 4.02455 9.90393C 4.99445 10.0969 5.99979 9.99783 6.91342 9.6194C 7.82705 9.24096 8.60794 8.6001 9.15735 7.77785C 9.70676 6.95561 10 5.98891 10 5C 10 3.67392 9.47322 2.40215 8.53554 1.46447C 7.59785 0.526784 6.32609 0 5 0Z" transform="translate(38 30)" fill="#F88453"/>
</g>
</g>
</g>
</svg>

