<svg width="48" height="48" viewBox="0 0 48 48" version="1.1" xmlns="http://www.w3.org/2000/svg" xmlns:xlink="http://www.w3.org/1999/xlink">
<g id="Canvas" fill="none">
<g id="&#208;&#156;&#208;&#190;&#208;&#189;&#209;&#130;&#208;&#176;&#208;&#182;&#208;&#189;&#208;&#176;&#209;&#143; &#208;&#190;&#208;&#177;&#208;&#187;&#208;&#176;&#209;&#129;&#209;&#130;&#209;&#140; 3 &#208;&#186;&#208;&#190;&#208;&#191;&#208;&#184;&#209;&#143; 3">
<g id="Vector">
<path d="M 0 0L 46 0L 46 6L 0 6L 0 0Z" stroke-width="2" stroke-miterlimit="10" transform="translate(1 1)" stroke="#F88453"/>
</g>
<g id="Vector_2">
<path d="M 0 0L 46 0L 46 6L 0 6L 0 0Z" stroke-width="2" stroke-miterlimit="10" transform="translate(1 41)" stroke="#F88453"/>
</g>
<g id="Vector_3">
<path d="M 0 0L 0 32" stroke-width="2" stroke-miterlimit="10" transform="translate(43 8)" stroke="#F88453"/>
</g>
<g id="Vector_4">
<path d="M 0 0L 0 32" stroke-width="2" stroke-miterlimit="10" transform="translate(5 8)" stroke="#F88453"/>
</g>
<g id="Vector_5">
<path d="M 20.0017 2.00709C 23.0017 2.00709 27.0017 8.00709 27.0017 8.00709C 27.0017 8.00709 23.0017 14.0071 20.0017 14.0071C 14.0017 14.0071 6.00167 10.0071 6.00167 10.0071C 6.00167 10.0071 6.00167 14.0071 2.00167 14.0071C 1.8979 11.8278 2.61109 9.68825 4.00167 8.00709C 2.61109 6.32593 1.8979 4.18637 2.00167 2.00709C 6.00167 2.00709 6.00167 6.00709 6.00167 6.00709C 6.00167 6.00709 14.0017 2.00709 20.0017 2.00709ZM 20.0017 0.00709348C 15.5617 0.00709348 10.2717 1.95709 7.34167 3.19709C 6.86661 2.19706 6.10577 1.36028 5.15531 0.79249C 4.20485 0.224704 3.10741 -0.0486068 2.00167 0.00709348L 0.0016711 0.00709348L 0.0016711 2.00709C -0.0338716 4.10919 0.498142 6.18196 1.54167 8.00709C 0.498142 9.83222 -0.0338716 11.905 0.0016711 14.0071L 0.0016711 16.0071L 2.00167 16.0071C 3.10741 16.0628 4.20485 15.7895 5.15531 15.2217C 6.10577 14.6539 6.86661 13.8171 7.34167 12.8171C 10.2717 14.0571 15.5617 16.0071 20.0017 16.0071C 23.7817 16.0071 27.5917 10.7371 28.6617 9.11709L 29.4017 8.00709L 28.6617 6.89709C 27.5917 5.27709 23.7817 0.00709348 20.0017 0.00709348Z" transform="translate(10 15.9932)" fill="#F88453"/>
</g>
<g id="Vector_6">
<path d="M 1 0C 0.802219 0 0.608881 0.0586481 0.444432 0.16853C 0.279983 0.278411 0.15181 0.434591 0.0761227 0.617317C 0.000435099 0.800043 -0.0193701 1.00111 0.0192151 1.19509C 0.0578003 1.38907 0.15304 1.56726 0.292893 1.70711C 0.432745 1.84696 0.610928 1.9422 0.804909 1.98079C 0.99889 2.01937 1.19996 1.99957 1.38268 1.92388C 1.56541 1.84819 1.72159 1.72002 1.83147 1.55557C 1.94135 1.39112 2 1.19778 2 1C 2 0.734784 1.89464 0.480429 1.70711 0.292892C 1.51957 0.105356 1.26522 0 1 0Z" transform="translate(31 23)" fill="#F88453"/>
</g>
<g id="Vector_7">
<path d="M 4 14C 4 14 0 11 0 7C 0 3 4 0 4 0" stroke-width="2" stroke-miterlimit="10" transform="translate(25 17)" stroke="#F88453"/>
</g>
<g id="Vector_8">
<path d="M 0 0L 0 5C 5 5 6 2 6 0" stroke-width="2" stroke-miterlimit="10" transform="translate(23 30)" stroke="#F88453"/>
</g>
<g id="Vector_9">
<path d="M 0 7L 0 0C 6 0 9 4 9 6" stroke-width="2" stroke-miterlimit="10" transform="translate(21 12)" stroke="#F88453"/>
</g>
</g>
</g>
</svg>

