<svg width="44" height="48" viewBox="0 0 44 48" version="1.1" xmlns="http://www.w3.org/2000/svg" xmlns:xlink="http://www.w3.org/1999/xlink">
<g id="Canvas" fill="none">
<g id="&#208;&#156;&#208;&#190;&#208;&#189;&#209;&#130;&#208;&#176;&#208;&#182;&#208;&#189;&#208;&#176;&#209;&#143; &#208;&#190;&#208;&#177;&#208;&#187;&#208;&#176;&#209;&#129;&#209;&#130;&#209;&#140; 3 &#208;&#186;&#208;&#190;&#208;&#191;&#208;&#184;&#209;&#143; 7">
<g id="Vector">
<path d="M 12 2C 13.9778 2 15.9112 2.58649 17.5557 3.6853C 19.2002 4.78412 20.4819 6.34591 21.2388 8.17317C 21.9957 10.0004 22.1937 12.0111 21.8079 13.9509C 21.422 15.8907 20.4696 17.6725 19.0711 19.0711C 17.6725 20.4696 15.8907 21.422 13.9509 21.8079C 12.0111 22.1937 10.0004 21.9957 8.17317 21.2388C 6.34591 20.4819 4.78412 19.2002 3.68531 17.5557C 2.5865 15.9112 2.00001 13.9778 2.00001 12C 2.00001 9.34784 3.05357 6.8043 4.92894 4.92893C 6.8043 3.05357 9.34784 2 12 2ZM 12 0C 9.62663 0 7.30655 0.703788 5.33316 2.02236C 3.35977 3.34094 1.8217 5.21509 0.913452 7.4078C 0.00520027 9.60051 -0.23244 12.0133 0.230583 14.3411C 0.693606 16.6689 1.83649 18.8071 3.51472 20.4853C 5.19295 22.1635 7.33115 23.3064 9.65892 23.7694C 11.9867 24.2324 14.3995 23.9948 16.5922 23.0866C 18.7849 22.1783 20.6591 20.6402 21.9776 18.6668C 23.2962 16.6935 24 14.3734 24 12C 24 8.8174 22.7357 5.76516 20.4853 3.51472C 18.2349 1.26428 15.1826 0 12 0Z" transform="translate(9 3)" fill="#F88453"/>
</g>
<g id="Vector_2">
<path d="M 27.39 11C 26.7058 7.88141 24.9763 5.09036 22.4881 3.08966C 20 1.08896 16.9028 -0.00118615 13.71 9.68522e-07C 10.4913 -0.000725213 7.37062 1.10766 4.87348 3.13853C 2.37633 5.16939 0.65524 7.99868 9.15527e-07 11.15" stroke-width="2" stroke-miterlimit="10" transform="translate(7.28906 1)" stroke="#F88453"/>
</g>
<g id="Vector_3">
<path d="M 6 2L 6 10L 2 10L 2 2L 6 2ZM 8 0L 0 0L 0 12L 8 12L 8 0Z" transform="translate(31 11)" fill="#F88453"/>
</g>
<g id="Vector_4">
<path d="M 6 2L 6 10L 2 10L 2 2L 6 2ZM 8 0L 0 0L 0 12L 8 12L 8 0Z" transform="translate(3 11)" fill="#F88453"/>
</g>
<g id="Vector_5">
<path d="M 0 9L 7 9C 9.38695 9 11.6761 8.05179 13.364 6.36396C 15.0518 4.67613 16 2.38695 16 0L 16 0" stroke-width="2" stroke-miterlimit="10" stroke-linecap="round" transform="translate(19 20)" stroke="#F88453"/>
</g>
<g id="Vector_6">
<path d="M 0 0L 0 8" stroke-width="2" stroke-miterlimit="10" transform="translate(22 39)" stroke="#F88453"/>
</g>
<g id="Vector_7">
<path d="M 44 0L 0 0" stroke-width="2" stroke-miterlimit="10" transform="translate(0 47)" stroke="#F88453"/>
</g>
<g id="Vector_8">
<path d="M 42 16L 42 10C 42 8.68678 41.7413 7.38642 41.2388 6.17316C 40.7362 4.95991 39.9997 3.85752 39.0711 2.92893C 38.1425 2.00035 37.0401 1.26375 35.8268 0.761204C 34.6136 0.258657 33.3132 0 32 0L 10 0C 7.34784 0 4.8043 1.05357 2.92893 2.92893C 1.05357 4.8043 0 7.34784 0 10L 0 16" stroke-width="2" stroke-miterlimit="10" transform="translate(1 32)" stroke="#F88453"/>
</g>
<g id="Vector_9">
<path d="M 18 0C 18 0.656609 17.8707 1.30679 17.6194 1.91342C 17.3681 2.52005 16.9998 3.07124 16.5355 3.53553C 16.0712 3.99983 15.52 4.36812 14.9134 4.6194C 14.3068 4.87067 13.6566 5 13 5L 5 5C 3.67392 5 2.40215 4.47322 1.46447 3.53553C 0.526784 2.59785 0 1.32608 0 0" stroke-width="2" stroke-miterlimit="10" transform="translate(13 33)" stroke="#F88453"/>
</g>
<g id="Vector_10">
<path d="M 0 0L 3 0" stroke-width="2" stroke-miterlimit="10" transform="translate(10 22)" stroke="#F88453"/>
</g>
<g id="Vector_11">
<path d="M 0 0L 3 0" stroke-width="2" stroke-miterlimit="10" transform="translate(29 22)" stroke="#F88453"/>
</g>
</g>
</g>
</svg>

