<svg width="48" height="48" viewBox="0 0 48 48" version="1.1" xmlns="http://www.w3.org/2000/svg" xmlns:xlink="http://www.w3.org/1999/xlink">
<g id="Canvas" fill="none">
<g id="&#208;&#156;&#208;&#190;&#208;&#189;&#209;&#130;&#208;&#176;&#208;&#182;&#208;&#189;&#208;&#176;&#209;&#143; &#208;&#190;&#208;&#177;&#208;&#187;&#208;&#176;&#209;&#129;&#209;&#130;&#209;&#140; 3 &#208;&#186;&#208;&#190;&#208;&#191;&#208;&#184;&#209;&#143;">
<g id="Vector">
<path d="M 46 2L 46 34L 2 34L 2 2L 46 2ZM 48 0L 0 0L 0 36L 48 36L 48 0Z" transform="translate(0 12)" fill="#F88453"/>
</g>
<g id="Vector_2">
<path d="M 0 0L 18 0" stroke-width="2" stroke-miterlimit="10" transform="translate(22 21)" stroke="#F88453"/>
</g>
<g id="Vector_3">
<path d="M 0 0L 4 0" stroke-width="2" stroke-miterlimit="10" transform="translate(38 7)" stroke="#F88453"/>
</g>
<g id="Vector_4">
<path d="M 0 0L 18 0" stroke-width="2" stroke-miterlimit="10" transform="translate(22 25)" stroke="#F88453"/>
</g>
<g id="Vector_5">
<path d="M 0 3L 3 6L 9 0" stroke-width="2" stroke-miterlimit="10" transform="translate(8 19)" stroke="#F88453"/>
</g>
<g id="Vector_6">
<path d="M 0 0L 18 0" stroke-width="2" stroke-miterlimit="10" transform="translate(22 35)" stroke="#F88453"/>
</g>
<g id="Vector_7">
<path d="M 0 0L 18 0" stroke-width="2" stroke-miterlimit="10" transform="translate(22 39)" stroke="#F88453"/>
</g>
<g id="Vector_8">
<path d="M 0 3L 3 6L 9 0" stroke-width="2" stroke-miterlimit="10" transform="translate(8 33)" stroke="#F88453"/>
</g>
<g id="Vector_9">
<path d="M 46 2L 46 12L 2 12L 2 2L 46 2ZM 48 0L 0 0L 0 14L 48 14L 48 0Z" fill="#F88453"/>
</g>
<g id="Vector_10">
<path d="M 0 0L 10 0" stroke-width="2" stroke-miterlimit="10" transform="translate(6 7)" stroke="#F88453"/>
</g>
<g id="Vector_11">
<path d="M 0 0L 4 0" stroke-width="2" stroke-miterlimit="10" transform="translate(18 7)" stroke="#F88453"/>
</g>
</g>
</g>
</svg>

