<svg width="56" height="50" viewBox="0 0 56 50" fill="none" xmlns="http://www.w3.org/2000/svg">
<path d="M50.9259 0H4.62963C2.07384 0.00316479 0.00316479 2.07384 0 4.62963V34.2593C0.00316479 36.815 2.07384 38.8857 4.62963 38.8889H22.0992L21.4048 44.4444H18.5185C18.0072 44.4444 17.5926 44.859 17.5926 45.3704V49.0741C17.5926 49.5854 18.0072 50 18.5185 50H37.037C37.5484 50 37.963 49.5854 37.963 49.0741V45.3704C37.963 44.859 37.5484 44.4444 37.037 44.4444H34.1508L33.4563 38.8889H50.9259C53.4817 38.8857 55.5524 36.815 55.5556 34.2593V4.62963C55.5524 2.07384 53.4817 0.00316479 50.9259 0ZM4.62963 1.85185H50.9259C52.4599 1.85185 53.7037 3.09561 53.7037 4.62963V29.6296H1.85185V4.62963C1.85185 3.09561 3.09561 1.85185 4.62963 1.85185ZM36.1111 48.1481H19.4444V46.2963H36.1111V48.1481ZM32.2844 44.4444H23.2711L23.9656 38.8889H31.59L32.2844 44.4444ZM50.9259 37.037H4.62963C3.09561 37.037 1.85185 35.7933 1.85185 34.2593V31.4815H53.7037V34.2593C53.7037 35.7933 52.4599 37.037 50.9259 37.037Z" fill="#FF7800"/>
<path d="M49.4261 33.4075C49.0811 33.2669 48.6851 33.3429 48.417 33.602C48.0589 33.9673 48.0589 34.5514 48.417 34.9167C48.4608 34.9565 48.5074 34.9936 48.5558 35.0279C48.6073 35.0627 48.6634 35.0908 48.7226 35.1111C48.7751 35.1378 48.8311 35.1568 48.889 35.1667C48.9505 35.1776 49.0124 35.1839 49.0744 35.1853C49.4505 35.1875 49.7905 34.9619 49.9347 34.6142C50.079 34.267 49.9989 33.8669 49.7317 33.602C49.6418 33.5201 49.5382 33.4546 49.4261 33.4075Z" fill="#FF7800"/>
<path d="M11.1115 14.8143H18.5189C19.0302 14.8143 19.4448 14.3997 19.4448 13.8884V8.71622L21.9513 6.20971L20.642 4.90039L19.3802 6.16224C19.249 5.79919 18.905 5.55641 18.5189 5.55505H11.1115C10.6001 5.55505 10.1855 5.96964 10.1855 6.48098V13.8884C10.1855 14.3997 10.6001 14.8143 11.1115 14.8143ZM12.0374 7.4069H17.593V7.94944L15.7411 9.80129L14.5439 8.60409L13.2346 9.91341L15.0864 11.7653C15.4481 12.1265 16.0341 12.1265 16.3958 11.7653L17.593 10.5681V12.9625H12.0374V7.4069Z" fill="#FF7800"/>
<path d="M11.1115 25.9256H18.5189C19.0302 25.9256 19.4448 25.511 19.4448 24.9997V19.8275L21.9513 17.321L20.642 16.0117L19.3802 17.2736C19.249 16.9105 18.905 16.6677 18.5189 16.6664H11.1115C10.6001 16.6664 10.1855 17.081 10.1855 17.5923V24.9997C10.1855 25.511 10.6001 25.9256 11.1115 25.9256ZM12.0374 18.5182H17.593V19.0608L15.7411 20.9126L14.5439 19.7154L13.2346 21.0247L15.0864 22.8766C15.4481 23.2378 16.0341 23.2378 16.3958 22.8766L17.593 21.6794V24.0738H12.0374V18.5182Z" fill="#FF7800"/>
<path d="M25.9258 12.9629H42.5924V14.8147H25.9258V12.9629Z" fill="#FF7800"/>
<path d="M25.9258 7.40625H37.0369V9.2581H25.9258V7.40625Z" fill="#FF7800"/>
<path d="M25.9258 24.0742H42.5924V25.9261H25.9258V24.0742Z" fill="#FF7800"/>
<path d="M25.9258 18.5176H29.6295V20.3694H25.9258V18.5176Z" fill="#FF7800"/>
<path d="M31.4814 18.5176H42.5926V20.3694H31.4814V18.5176Z" fill="#FF7800"/>
</svg>
