<svg width="55" height="42" viewBox="0 0 55 42" fill="none" xmlns="http://www.w3.org/2000/svg">
<path d="M54.8548 21.2129C50.274 13.0128 42.7434 7.9985 33.9168 7.0693C29.4915 1.48011 15.606 0.0641728 15.0067 0.00584248C14.6162 -0.0344409 14.2234 0.135609 13.9839 0.453472C13.7433 0.769079 13.684 1.18749 13.8273 1.55788C15.1887 5.09165 16.5833 9.11107 16.9524 10.7555C14.4309 11.9093 12.2269 13.1363 10.806 14.1587C7.72432 9.22849 1.43344 9.16693 1.14587 9.16693C0.512512 9.16693 0 9.67945 0 10.3128C0 16.9517 2.31409 20.2841 3.86162 21.7712C2.31409 23.2583 0 26.5906 0 33.2295C0 33.8629 0.512512 34.3754 1.14587 34.3754C1.43344 34.3754 7.72442 34.3139 10.806 29.3836C12.6938 30.7421 15.9577 32.4599 19.5243 33.8879C18.7362 35.1627 18.3335 37.1903 18.3335 40.1046C18.3335 40.7379 18.846 41.2505 19.4793 41.2505C19.8201 41.2505 27.6121 41.1829 31.4926 36.631C41.3615 36.4403 49.8595 31.2716 54.8548 22.3295C55.0484 21.9826 55.0484 21.5597 54.8548 21.2129ZM16.6404 2.51577C20.4905 3.07307 26.8113 4.44421 30.3834 6.89849C27.0898 7.02719 22.8874 8.27243 19.0779 9.83499C18.5706 7.82082 17.4452 4.6741 16.6404 2.51577ZM20.652 38.8928C20.8046 35.7054 21.54 34.8908 21.7462 34.7241C23.979 35.5079 26.2414 36.1307 28.2956 36.4433C25.8099 38.1922 22.4215 38.7366 20.652 38.8928ZM21.6132 34.682L21.6136 34.6789C21.6167 34.68 21.6199 34.6808 21.6229 34.682C21.6165 34.6811 21.62 34.683 21.6132 34.682ZM30.9377 34.3754C24.2417 34.3754 13.2935 28.8779 11.2659 26.8032C11.0488 26.5805 10.7523 26.4586 10.4468 26.4586C10.3774 26.4586 10.307 26.4654 10.2376 26.4776C9.86267 26.547 9.54598 26.7999 9.39495 27.1501C7.8485 30.7364 4.21182 31.7155 2.32183 31.983C2.67987 24.8025 6.07828 22.8835 6.25284 22.7906C6.6299 22.597 6.86268 22.2064 6.86827 21.7824C6.87385 21.3538 6.63323 20.9544 6.25392 20.753C6.10063 20.6713 2.68212 18.7657 2.32183 11.5661C4.21064 11.8425 7.86074 12.8362 9.39495 16.3923C9.54598 16.7425 9.86267 16.9954 10.2376 17.0647C10.6158 17.1352 10.9996 17.0121 11.2659 16.7391C13.2935 14.6645 24.2417 9.16693 30.9377 9.16693C39.9847 9.16693 47.8209 13.7514 52.5341 21.7711C47.8209 29.791 39.9847 34.3754 30.9377 34.3754Z" fill="#FF7800"/>
<path d="M34.3756 21.7738C34.3756 16.5011 36.4559 13.2717 36.4771 13.2393C36.824 12.7111 36.6785 12.0017 36.1526 11.6525C35.6267 11.3057 34.9172 11.4478 34.5681 11.9715C34.4663 12.1237 32.084 15.767 32.084 21.7738C32.084 27.7805 34.4663 31.4238 34.5681 31.576C34.7886 31.9072 35.1523 32.0863 35.5226 32.0863C35.7407 32.0863 35.9612 32.0237 36.157 31.8938C36.684 31.5424 36.8261 30.8319 36.4748 30.3048C36.4536 30.2737 34.3756 27.0946 34.3756 21.7738Z" fill="#FF7800"/>
<path d="M31.5686 11.6525C31.0416 11.3057 30.3343 11.4478 29.9841 11.9715C29.8823 12.1236 27.5 15.767 27.5 21.7736C27.5 24.9818 28.1915 27.5028 28.7723 29.0526C28.9446 29.5125 29.3811 29.7967 29.8455 29.7967C29.9787 29.7967 30.1151 29.7732 30.2472 29.724C30.8403 29.5024 31.1402 28.8423 30.9186 28.2492C30.405 26.8762 29.7917 24.6382 29.7917 21.7736C29.7917 16.501 31.872 13.2716 31.8933 13.2392C32.24 12.7111 32.0946 12.0016 31.5686 11.6525Z" fill="#FF7800"/>
<path d="M41.2506 20.6243C42.5163 20.6243 43.5423 19.5983 43.5423 18.3327C43.5423 17.067 42.5163 16.041 41.2506 16.041C39.985 16.041 38.959 17.067 38.959 18.3327C38.959 19.5983 39.985 20.6243 41.2506 20.6243Z" fill="#FF7800"/>
</svg>
