<svg width="53" height="50" viewBox="0 0 53 50" fill="none" xmlns="http://www.w3.org/2000/svg">
<path d="M33.5505 34.6632V33.7547C33.8073 33.5473 34.0542 33.3202 34.2912 33.0832C36.1889 30.9936 37.3839 28.3619 37.7082 25.558C39.4137 25.2981 40.9509 24.3841 41.9942 23.0101C43.4261 20.9856 43.5545 18.0723 42.3596 14.4183C42.2893 14.2076 42.1502 14.0266 41.9645 13.9048L41.4214 13.5394C41.5015 10.2424 40.3621 7.0319 38.2217 4.52301C35.5652 1.53071 31.4865 0.0197511 26.0846 0C20.6926 0 16.6041 1.53071 13.9475 4.48351C11.8071 6.9924 10.6677 10.2029 10.7479 13.4999L10.2047 13.8653C10.019 13.9871 9.87992 14.1681 9.80968 14.3788C8.61473 18.0525 8.74311 20.9461 10.1751 22.9706C11.2144 24.3543 12.7516 25.2787 14.4611 25.5481C14.7867 28.3565 15.9854 30.9919 17.8879 33.0832C18.1231 33.3197 18.3702 33.5438 18.6286 33.7547V34.6632C14.8462 35.394 -0.253529 38.9394 0.00323564 49.0124C0.00323564 49.5578 0.445414 50 0.990793 50H51.1883C51.7337 50 52.1759 49.5578 52.1759 49.0124C52.4326 38.9394 37.3329 35.394 33.5505 34.6632ZM13.8685 23.3458C13.0294 23.064 12.2979 22.5294 11.7749 21.8151L11.8243 21.825C10.8367 20.3832 10.7479 18.2007 11.6268 15.317L12.3477 14.8331C12.651 14.6307 12.818 14.2776 12.7822 13.9147C12.6161 10.9631 13.5761 8.05834 15.4684 5.78708C17.7003 3.25894 21.2851 1.99486 26.0846 1.97511C30.8841 1.95536 34.469 3.25894 36.7404 5.78708C38.6326 8.05834 39.5927 10.9631 39.4265 13.9147C39.3907 14.2776 39.5577 14.6307 39.861 14.8331L40.5819 15.317C41.4609 18.1908 41.4016 20.3832 40.3844 21.825C39.8578 22.5399 39.1232 23.0745 38.2809 23.3557C39.4722 22.0003 40.0542 20.215 39.8907 18.4179C39.7056 17.3367 39.142 16.3567 38.3007 15.6528C37.876 5.77721 30.9533 4.67114 27.9708 4.67114C27.3396 4.66929 26.709 4.71558 26.0846 4.8094C25.4604 4.71546 24.8297 4.66929 24.1984 4.67114C21.2357 4.67114 14.3228 5.75746 13.8685 15.6528C13.0218 16.351 12.4513 17.3277 12.2588 18.4081C12.0941 20.2053 12.6763 21.991 13.8685 23.3458ZM36.3355 15.2479C32.1915 15.4874 28.0736 14.4535 24.5341 12.2852C24.1336 12.0039 23.5873 12.0586 23.2503 12.4136C21.2752 14.5368 17.6706 15.0306 15.9325 15.1392C16.4658 8.15722 20.6926 6.63638 24.2478 6.63638C24.8136 6.63231 25.3788 6.6786 25.9365 6.77464C26.0668 6.8013 26.2011 6.8013 26.3315 6.77464C26.8892 6.67885 27.4544 6.63255 28.0202 6.63638C31.5458 6.63638 35.7923 8.19672 36.2861 15.238L36.3355 15.2479ZM16.2782 23.5335L16.3177 23.5434C16.3198 23.2999 16.2319 23.0643 16.0708 22.8817C14.7178 21.3312 14.0957 19.919 14.2636 18.7537C14.344 18.1046 14.6646 17.5093 15.1622 17.0847C16.4658 17.0847 21.0876 16.8378 24.0502 14.2801C27.3868 16.1983 31.1635 17.219 35.0121 17.2427C35.6738 17.2427 36.3453 17.2427 37.0465 17.1341C37.5305 17.5474 37.8467 18.1234 37.9353 18.7537C38.1032 19.8993 37.481 21.3312 36.1281 22.8817C35.967 23.0643 35.8791 23.2999 35.8812 23.5434C35.8812 23.5434 35.8812 23.7409 35.8812 24.0569L30.1336 27.1381C28.993 26.0582 27.1928 26.1074 26.1129 27.248C25.033 28.3887 25.0822 30.1889 26.2229 31.2688C27.3635 32.3487 29.1637 32.2994 30.2436 31.1588C30.744 30.6302 31.0228 29.9299 31.0224 29.2021C31.0268 29.1132 31.0268 29.0243 31.0224 28.9354L35.5553 26.506C35.1662 28.4534 34.2508 30.2568 32.9086 31.7203C31.1579 33.4058 28.7882 34.2923 26.3611 34.1695H25.8674C23.4455 34.2897 21.0809 33.4076 19.3297 31.7302C16.209 28.6194 16.2782 23.5829 16.2782 23.5335ZM29.0473 29.2021C29.0473 29.6874 28.6537 30.081 28.1684 30.081C27.683 30.081 27.2894 29.6874 27.2894 29.2021C27.2894 28.7167 27.683 28.3231 28.1684 28.3231C28.6537 28.3231 29.0473 28.7167 29.0473 29.2021ZM25.0971 47.9656H2.00798C2.78815 40.5491 14.8462 37.4482 18.6187 36.6482V38.416C18.6187 40.6577 21.3443 42.3662 25.0971 42.6526V47.9656ZM20.5938 38.416V38.3863V35.0089C22.2354 35.7702 24.0285 36.1484 25.8377 36.115H26.3315C28.1407 36.1484 29.9339 35.7702 31.5754 35.0089V38.416C31.5754 39.3541 29.4324 40.7071 26.0846 40.7071C22.7368 40.7071 20.5938 39.3541 20.5938 38.416ZM27.0722 47.9953V42.6427C30.8249 42.3859 33.5505 40.6676 33.5505 38.4061V36.6779C37.3526 37.4679 49.3515 40.5688 50.1613 47.9953H27.0722Z" fill="#FF7800"/>
</svg>
