<svg width="59" height="40" viewBox="0 0 59 40" fill="none" xmlns="http://www.w3.org/2000/svg">
<path d="M47.9689 29.2473C46.5352 29.2473 45.1732 29.8088 44.1458 30.8244C43.1183 31.8519 42.5448 33.19 42.5448 34.6237C42.5448 36.0573 43.1063 37.3955 44.1458 38.4229C45.1852 39.4385 46.5352 40 47.9689 40C50.908 40 53.2975 37.5866 53.2975 34.6237C53.2975 31.6607 50.908 29.2473 47.9689 29.2473ZM47.9689 37.6105C46.3202 37.6105 44.9343 36.2485 44.9343 34.6237C44.9343 32.9988 46.3202 31.6368 47.9689 31.6368C49.5938 31.6368 50.908 32.9749 50.908 34.6237C50.908 36.2724 49.5938 37.6105 47.9689 37.6105ZM49.3548 11.3381C49.1398 11.135 48.853 11.0275 48.5544 11.0275H42.4253C41.7682 11.0275 41.2306 11.5651 41.2306 12.2222V22.0191C41.2306 22.6762 41.7682 23.2139 42.4253 23.2139H52.1505C52.8076 23.2139 53.3453 22.6762 53.3453 22.0191V15.46C53.3453 15.1254 53.2019 14.8029 52.951 14.5759L49.3548 11.3381ZM50.9558 20.8244H43.6201V13.405H48.0884L50.9558 15.9857V20.8244ZM18.7933 29.2473C17.3596 29.2473 15.9976 29.8088 14.9701 30.8244C13.9427 31.8519 13.3692 33.19 13.3692 34.6237C13.3692 36.0573 13.9307 37.3955 14.9701 38.4229C16.0096 39.4385 17.3596 40 18.7933 40C21.7324 40 24.1219 37.5866 24.1219 34.6237C24.1219 31.6607 21.7324 29.2473 18.7933 29.2473ZM18.7933 37.6105C17.1446 37.6105 15.7587 36.2485 15.7587 34.6237C15.7587 32.9988 17.1446 31.6368 18.7933 31.6368C20.4182 31.6368 21.7324 32.9749 21.7324 34.6237C21.7324 36.2724 20.4182 37.6105 18.7933 37.6105ZM10.8244 30.7168H8.42294V27.5388C8.42294 26.8817 7.8853 26.3441 7.2282 26.3441C6.57109 26.3441 6.03345 26.8817 6.03345 27.5388V31.9116C6.03345 32.5687 6.57109 33.1063 7.2282 33.1063H10.8244C11.4815 33.1063 12.0191 32.5687 12.0191 31.9116C12.0191 31.2545 11.4815 30.7168 10.8244 30.7168ZM16.8817 24.2055C16.8817 23.5484 16.3441 23.0107 15.687 23.0107H1.19474C0.537634 23.0107 0 23.5484 0 24.2055C0 24.8626 0.537634 25.4002 1.19474 25.4002H15.687C16.3441 25.4002 16.8817 24.8745 16.8817 24.2055ZM3.62007 19.8925L18.1123 19.9761C18.7694 19.9761 19.307 19.4504 19.319 18.7933C19.3309 18.1243 18.7933 17.5866 18.1362 17.5866L3.64397 17.503C3.63202 17.503 3.63202 17.503 3.63202 17.503C2.97491 17.503 2.43728 18.0287 2.43728 18.6858C2.42533 19.3548 2.96296 19.8925 3.62007 19.8925ZM6.05735 14.4683H20.5496C21.2067 14.4683 21.7443 13.9307 21.7443 13.2736C21.7443 12.6165 21.2067 12.0788 20.5496 12.0788H6.05735C5.40024 12.0788 4.8626 12.6165 4.8626 13.2736C4.8626 13.9307 5.40024 14.4683 6.05735 14.4683ZM58.2318 12.8554L49.6774 5.77061C49.4624 5.5914 49.1995 5.49582 48.9128 5.49582H38.8531V1.19474C38.8531 0.537634 38.3154 0 37.6583 0H7.2282C6.57109 0 6.03345 0.537634 6.03345 1.19474V9.94026C6.03345 10.5974 6.57109 11.135 7.2282 11.135C7.8853 11.135 8.42294 10.5974 8.42294 9.94026V2.38949H36.4755V30.7168H26.6786C26.0215 30.7168 25.4839 31.2545 25.4839 31.9116C25.4839 32.5687 26.0215 33.1063 26.6786 33.1063H41.2664C41.9235 33.1063 42.4612 32.5687 42.4612 31.9116C42.4612 31.2545 41.9235 30.7168 41.2664 30.7168H38.865V7.8853H48.4946L56.2844 14.3369L56.2007 30.6929H54.9582C54.3011 30.6929 53.7634 31.2306 53.7634 31.8877C53.7634 32.5448 54.3011 33.0824 54.9582 33.0824H57.3835C58.0406 33.0824 58.5783 32.5568 58.5783 31.8996L58.6738 13.7873C58.6619 13.4289 58.5066 13.0824 58.2318 12.8554Z" fill="#FF7800"/>
</svg>
