<svg width="12" height="12" viewBox="0 0 12 12" fill="none" xmlns="http://www.w3.org/2000/svg">
<path d="M11.1412 0H7.71261C7.48528 0 7.26726 0.090306 7.10652 0.251051C6.94577 0.411797 6.85547 0.629814 6.85547 0.857143V4.28571C6.85547 4.51304 6.94577 4.73106 7.10652 4.89181C7.26726 5.05255 7.48528 5.14286 7.71261 5.14286H11.1412C11.3685 5.14286 11.5865 5.05255 11.7473 4.89181C11.908 4.73106 11.9983 4.51304 11.9983 4.28571V0.857143C11.9983 0.629814 11.908 0.411797 11.7473 0.251051C11.5865 0.090306 11.3685 0 11.1412 0Z" fill="white"/>
<path d="M4.28571 0H0.857143C0.629814 0 0.411797 0.090306 0.251051 0.251051C0.090306 0.411797 0 0.629814 0 0.857143V4.28571C0 4.51304 0.090306 4.73106 0.251051 4.89181C0.411797 5.05255 0.629814 5.14286 0.857143 5.14286H4.28571C4.51304 5.14286 4.73106 5.05255 4.89181 4.89181C5.05255 4.73106 5.14286 4.51304 5.14286 4.28571V0.857143C5.14286 0.629814 5.05255 0.411797 4.89181 0.251051C4.73106 0.090306 4.51304 0 4.28571 0Z" fill="white"/>
<path d="M11.1412 6.85742H7.71261C7.48528 6.85742 7.26726 6.94773 7.10652 7.10847C6.94577 7.26922 6.85547 7.48724 6.85547 7.71456V11.1431C6.85547 11.3705 6.94577 11.5885 7.10652 11.7492C7.26726 11.91 7.48528 12.0003 7.71261 12.0003H11.1412C11.3685 12.0003 11.5865 11.91 11.7473 11.7492C11.908 11.5885 11.9983 11.3705 11.9983 11.1431V7.71456C11.9983 7.48724 11.908 7.26922 11.7473 7.10847C11.5865 6.94773 11.3685 6.85742 11.1412 6.85742Z" fill="white"/>
<path d="M4.28571 6.85742H0.857143C0.629814 6.85742 0.411797 6.94773 0.251051 7.10847C0.090306 7.26922 0 7.48724 0 7.71456V11.1431C0 11.3705 0.090306 11.5885 0.251051 11.7492C0.411797 11.91 0.629814 12.0003 0.857143 12.0003H4.28571C4.51304 12.0003 4.73106 11.91 4.89181 11.7492C5.05255 11.5885 5.14286 11.3705 5.14286 11.1431V7.71456C5.14286 7.48724 5.05255 7.26922 4.89181 7.10847C4.73106 6.94773 4.51304 6.85742 4.28571 6.85742Z" fill="white"/>
</svg>
