<svg width="103" height="22" viewBox="0 0 103 22" version="1.1" xmlns="http://www.w3.org/2000/svg" xmlns:xlink="http://www.w3.org/1999/xlink">
<g id="Canvas" fill="none">
<g id="01-y-mainpage">
<g id="ORSO">
<path fill-rule="evenodd" clip-rule="evenodd" d="M 12.7873 0.001059L 6.92013 0.001059C 5.08571 0.0003448 3.32612 0.717676 2.02838 1.99528C 0.730632 3.27288 0.00101271 5.00612 -1.43403e-06 6.81378L -1.43403e-06 12.4134C 0.00086786 14.2212 0.730424 15.9546 2.02818 17.2323C 3.32594 18.51 5.08561 19.2274 6.92013 19.2267L 12.7873 19.2267C 13.6957 19.2271 14.5953 19.0512 15.4348 18.7091C 16.2742 18.3669 17.037 17.8651 17.6796 17.2325C 18.3223 16.5998 18.8322 15.8486 19.1802 15.0217C 19.5282 14.1949 19.7076 13.3086 19.708 12.4134L 19.708 6.81378C 19.707 5.00603 18.9773 3.27271 17.6794 1.99509C 16.3816 0.717472 14.6219 0.000201971 12.7873 0.001059ZM 16.599 12.4134C 16.5984 13.4091 16.1966 14.3638 15.4818 15.0676C 14.767 15.7714 13.7978 16.1666 12.7873 16.1663L 6.92013 16.1663C 5.90969 16.1666 4.9405 15.7714 4.22571 15.0676C 3.51091 14.3638 3.10904 13.4091 3.10846 12.4134L 3.10846 6.81378C 3.10904 5.81808 3.51091 4.86337 4.22571 4.15961C 4.9405 3.45585 5.90969 3.06066 6.92013 3.06094L 12.7873 3.06094C 13.7978 3.06066 14.767 3.45585 15.4818 4.15961C 16.1966 4.86337 16.5984 5.81808 16.599 6.81378L 16.599 12.4134ZM 75.5384 0.001059L 69.6706 0.001059C 67.8362 0.0003448 66.0766 0.717676 64.7789 1.99528C 63.4811 3.27288 62.7515 5.00612 62.7505 6.81378L 62.7505 12.4134C 62.7514 14.2212 63.4809 15.9546 64.7787 17.2323C 66.0764 18.51 67.8361 19.2274 69.6706 19.2267L 75.5384 19.2267C 77.3729 19.2274 79.1326 18.51 80.4303 17.2323C 81.7281 15.9546 82.4576 14.2212 82.4585 12.4134L 82.4585 6.81378C 82.4575 5.00612 81.7279 3.27288 80.4301 1.99528C 79.1324 0.717676 77.3728 0.0003448 75.5384 0.001059ZM 79.3495 12.4134C 79.3488 13.4091 78.9469 14.3637 78.2321 15.0674C 77.5173 15.7712 76.5482 16.1664 75.5378 16.1663L 69.6706 16.1663C 68.6603 16.1664 67.6912 15.7712 66.9766 15.0674C 66.2619 14.3637 65.8601 13.409 65.8595 12.4134L 65.8595 6.81378C 65.8601 5.81818 66.2619 4.86355 66.9766 4.1598C 67.6912 3.45606 68.6603 3.0608 69.6706 3.06094L 75.5384 3.06094C 76.5487 3.06094 77.5176 3.45624 78.2323 4.15996C 78.9469 4.86368 79.3488 5.81822 79.3495 6.81378L 79.3495 12.4134ZM 33.9002 0.001059L 21.1144 0.001059L 21.1144 19.1944L 24.4475 19.1944L 24.4475 14.6102L 29.005 14.6102L 29.005 14.614L 33.8892 14.614C 35.9939 14.614 37.7009 15.9854 37.7009 18.0599L 37.7009 19.2321L 40.8093 19.2321L 40.8093 18.0572C 40.8187 17.0869 40.6006 16.1275 40.172 15.2538C 39.7435 14.3802 39.116 13.6158 38.3385 13.0202C 39.1158 12.3825 39.7411 11.5839 40.1701 10.6813C 40.5991 9.77874 40.8212 8.79418 40.8208 7.79749L 40.8208 6.81378C 40.8198 5.00603 40.0901 3.27271 38.7923 1.99509C 37.4944 0.717472 35.7347 0.000201971 33.9002 0.001059ZM 24.4475 9.59799L 24.4475 3.06202L 33.9002 3.06202C 34.4006 3.0616 34.8962 3.1583 35.3586 3.34661C 35.8211 3.53493 36.2414 3.81116 36.5956 4.15955C 36.9497 4.50793 37.2308 4.92164 37.4227 5.37705C 37.6146 5.83247 37.7136 6.32067 37.714 6.81378L 37.714 7.79534C 37.7134 8.79094 37.3116 9.74557 36.5969 10.4493C 35.8823 11.1531 34.9132 11.5483 33.9029 11.5482L 24.4502 11.5482L 24.4502 9.59799L 24.4475 9.59799ZM 61.6397 12.9901L 61.6315 12.9901C 61.6227 12.3337 61.4821 11.6856 61.2179 11.083C 60.9538 10.4804 60.5712 9.93523 60.0922 9.47902C 59.6132 9.02281 59.0474 8.66452 58.4272 8.4248C 57.8071 8.18509 57.1449 8.06869 56.4789 8.08232L 52.8432 8.08232L 49.1326 8.08232L 47.3732 8.08232C 46.8294 8.08161 46.3081 7.86853 45.9234 7.48978C 45.5388 7.11102 45.3221 6.59746 45.321 6.0616L 45.321 5.08166C 45.3223 4.54585 45.5389 4.03237 45.9236 3.65364C 46.3082 3.27491 46.8295 3.0618 47.3732 3.06094L 49.1326 3.06094L 60.4671 3.06094L 60.4671 0.001059L 49.1326 0.001059L 47.3732 0.001059C 46.692 -0.0127841 46.0149 0.109171 45.3827 0.359601C 44.7505 0.61003 44.1761 0.983771 43.6941 1.45838C 43.2121 1.933 42.8324 2.49869 42.5778 3.12151C 42.3232 3.74432 42.199 4.41142 42.2125 5.08274L 42.2125 6.23767L 42.2207 6.23767C 42.2294 6.89408 42.3699 7.5423 42.6341 8.14497C 42.8982 8.74763 43.2808 9.29281 43.7598 9.74908C 44.2387 10.2054 44.8046 10.5637 45.4248 10.8034C 46.045 11.0432 46.7072 11.1596 47.3732 11.146L 51.009 11.146L 54.7195 11.146L 56.4789 11.146C 57.0219 11.1467 57.5425 11.3591 57.927 11.7368C 58.3115 12.1145 58.5288 12.6268 58.5312 13.1618L 58.5312 14.1493C 58.5299 14.6852 58.3131 15.1988 57.9284 15.5775C 57.5436 15.9563 57.0222 16.1693 56.4784 16.17L 54.719 16.17L 43.3851 16.17L 43.3851 19.231L 54.719 19.231L 56.4784 19.231C 57.1596 19.2448 57.8367 19.1229 58.4689 18.8725C 59.1011 18.6221 59.6755 18.2484 60.1575 17.7739C 60.6395 17.2993 61.0193 16.7337 61.274 16.111C 61.5287 15.4882 61.6531 14.8212 61.6397 14.1499L 61.6397 13.1672L 61.6397 12.9922L 61.6397 12.9901Z" transform="translate(19.543 2.76758)" fill="#ffffff"/>
</g>
<g id="Y">
<path fill-rule="evenodd" clip-rule="evenodd" d="M 19.5173 2.21778L 17.2744 -8.05144e-07L 9.75866 7.43784L 2.24296 -8.05144e-07L -5.00242e-07 2.21778L 8.11838 10.2522L 8.11838 18.6102L 11.2875 18.6102L 11.2875 10.3615L 19.5173 2.21778Z" transform="translate(0 3.07715)" fill="#FF7800"/>
</g>
<g id="head">
<path fill-rule="evenodd" clip-rule="evenodd" d="M 6.00451 4.1857C 5.8843 4.57211 5.68633 4.9307 5.42241 5.24007C 5.1585 5.54944 4.83404 5.80325 4.46841 5.98637C 4.10278 6.16948 3.70347 6.27814 3.29429 6.30586C 2.88512 6.33359 2.47446 6.2798 2.08684 6.14773C 1.30158 5.85217 0.66337 5.26783 0.306647 4.51779C -0.0500768 3.76774 -0.0974696 2.91055 0.17445 2.12675C 0.294659 1.74041 0.492614 1.38189 0.756502 1.07258C 1.02039 0.763274 1.3448 0.509518 1.71038 0.326454C 2.07596 0.14339 2.47522 0.034769 2.88433 0.00707453C 3.29344 -0.0206199 3.70402 0.0331793 4.09157 0.165261C 4.87681 0.460713 5.51504 1.04492 5.87186 1.79485C 6.22868 2.54479 6.27624 3.4019 6.00451 4.1857Z" transform="translate(6.79688 0)" fill="#ffffff"/>
</g>
</g>
</g>
</svg>

