<svg width="149" height="32" viewBox="0 0 149 32" fill="none" xmlns="http://www.w3.org/2000/svg">
<path fill-rule="evenodd" clip-rule="evenodd" d="M47.0832 4.02693H38.5388C35.8673 4.02589 33.3048 5.06928 31.4149 6.92762C29.525 8.78594 28.4624 11.307 28.4609 13.9363V22.0812C28.4622 24.7108 29.5247 27.2321 31.4146 29.0906C33.3045 30.949 35.8672 31.9925 38.5388 31.9915H47.0832C48.4061 31.9921 49.7162 31.7362 50.9388 31.2386C52.1612 30.7409 53.2721 30.011 54.2079 29.0908C55.1439 28.1706 55.8865 27.0779 56.3933 25.8751C56.9001 24.6725 57.1613 23.3834 57.1619 22.0812V13.9363C57.1604 11.3069 56.0978 8.7857 54.2076 6.92734C52.3176 5.06899 49.755 4.02568 47.0832 4.02693ZM52.6342 22.0812C52.6334 23.5295 52.0482 24.9182 51.0072 25.9419C49.9663 26.9656 48.5548 27.5404 47.0832 27.54H38.5388C37.0673 27.5404 35.6558 26.9656 34.6149 25.9419C33.5739 24.9182 32.9887 23.5295 32.9878 22.0812V13.9363C32.9887 12.4881 33.5739 11.0994 34.6149 10.0757C35.6558 9.05208 37.0673 8.47726 38.5388 8.47767H47.0832C48.5548 8.47726 49.9663 9.05208 51.0072 10.0757C52.0482 11.0994 52.6334 12.4881 52.6342 13.9363V22.0812ZM138.468 4.02693H129.923C127.252 4.02589 124.689 5.06928 122.799 6.92762C120.909 8.78594 119.847 11.307 119.845 13.9363V22.0812C119.846 24.7108 120.909 27.2321 122.799 29.0906C124.689 30.949 127.251 31.9925 129.923 31.9915H138.468C141.14 31.9925 143.703 30.949 145.592 29.0906C147.482 27.2321 148.545 24.7108 148.546 22.0812V13.9363C148.545 11.307 147.482 8.78594 145.592 6.92762C143.702 5.06928 141.14 4.02589 138.468 4.02693ZM144.018 22.0812C144.017 23.5295 143.432 24.918 142.391 25.9416C141.35 26.9653 139.939 27.5402 138.467 27.54H129.923C128.452 27.5402 127.04 26.9653 126 25.9416C124.959 24.918 124.374 23.5294 124.373 22.0812V13.9363C124.374 12.4882 124.959 11.0996 126 10.076C127.04 9.05239 128.452 8.47746 129.923 8.47767H138.468C139.94 8.47767 141.351 9.05265 142.391 10.0762C143.432 11.0998 144.017 12.4883 144.018 13.9363V22.0812ZM77.8302 4.02693H59.2101V31.9445H64.0641V25.2766H70.7012V25.2821H77.8141C80.8792 25.2821 83.3652 27.2769 83.3652 30.2943V31.9994H87.8919V30.2904C87.9056 28.8791 87.588 27.4836 86.9638 26.2127C86.3398 24.942 85.426 23.8302 84.2937 22.9639C85.4257 22.0363 86.3363 20.8747 86.9611 19.5618C87.5858 18.249 87.9093 16.8169 87.9087 15.3672V13.9363C87.9072 11.3069 86.8446 8.7857 84.9546 6.92734C83.0644 5.06899 80.5018 4.02568 77.8302 4.02693ZM64.0641 17.9861V8.47924H77.8302C78.5589 8.47863 79.2806 8.61928 79.954 8.89319C80.6276 9.16711 81.2397 9.5689 81.7555 10.0756C82.2712 10.5824 82.6805 11.1841 82.96 11.8466C83.2395 12.509 83.3836 13.2191 83.3842 13.9363V15.3641C83.3834 16.8122 82.7982 18.2008 81.7574 19.2244C80.7167 20.2481 79.3054 20.8229 77.8341 20.8228H64.068V17.9861H64.0641ZM118.227 22.9201H118.216C118.203 21.9653 117.998 21.0226 117.613 20.1461C117.229 19.2696 116.671 18.4766 115.974 17.8131C115.276 17.1495 114.452 16.6283 113.549 16.2796C112.646 15.931 111.682 15.7617 110.712 15.7815H105.417H100.013H97.451C96.6591 15.7805 95.8999 15.4705 95.3397 14.9196C94.7796 14.3687 94.464 13.6217 94.4624 12.8423V11.4169C94.4643 10.6375 94.7797 9.89066 95.34 9.33978C95.9001 8.7889 96.6592 8.47892 97.451 8.47767H100.013H116.52V4.02693H100.013H97.451C96.459 4.0068 95.4729 4.18419 94.5522 4.54845C93.6316 4.91271 92.7951 5.45633 92.0931 6.14667C91.3912 6.83703 90.8382 7.65985 90.4674 8.56577C90.0967 9.47167 89.9158 10.442 89.9354 11.4185V13.0984H89.9474C89.9601 14.0531 90.1647 14.996 90.5494 15.8726C90.934 16.7492 91.4912 17.5422 92.1888 18.2059C92.8862 18.8696 93.7104 19.3908 94.6136 19.7394C95.5168 20.0882 96.4811 20.2575 97.451 20.2378H102.746H108.15H110.712C111.503 20.2388 112.261 20.5477 112.821 21.0971C113.381 21.6465 113.697 22.3916 113.701 23.1698V24.6062C113.699 25.3857 113.383 26.1327 112.823 26.6836C112.262 27.2346 111.503 27.5444 110.711 27.5454H108.149H91.6431V31.9978H108.149H110.711C111.703 32.0178 112.689 31.8405 113.61 31.4763C114.53 31.1121 115.367 30.5685 116.069 29.8783C116.771 29.188 117.324 28.3653 117.695 27.4596C118.066 26.5537 118.247 25.5835 118.227 24.6071V23.1777V22.9231V22.9201Z" fill="#31365E"/>
<path fill-rule="evenodd" clip-rule="evenodd" d="M28.4233 7.70243L25.1569 4.47656L14.2116 15.2952L3.26645 4.47656L0 7.70243L11.8229 19.3889V31.5459H16.4381V19.5478L28.4233 7.70243Z" fill="#FF7800"/>
<path fill-rule="evenodd" clip-rule="evenodd" d="M18.6429 6.08829C18.4678 6.65034 18.1795 7.17193 17.7952 7.62192C17.4108 8.07191 16.9383 8.44109 16.4058 8.70745C15.8734 8.97379 15.2918 9.13184 14.6959 9.17216C14.1001 9.21249 13.502 9.13425 12.9375 8.94215C11.7939 8.51225 10.8645 7.6623 10.345 6.57133C9.82551 5.48035 9.75649 4.23353 10.1525 3.09345C10.3276 2.53151 10.6158 2.01002 11.0001 1.56012C11.3844 1.11022 11.8569 0.741117 12.3893 0.474842C12.9217 0.208567 13.5031 0.050573 14.0989 0.0102902C14.6947 -0.0299926 15.2926 0.0482608 15.857 0.24038C17.0006 0.670128 17.93 1.51988 18.4497 2.61069C18.9693 3.70151 19.0386 4.94822 18.6429 6.08829Z" fill="#31365E"/>
</svg>
