<svg width="16" height="16" viewBox="0 0 16 16" version="1.1" xmlns="http://www.w3.org/2000/svg" xmlns:xlink="http://www.w3.org/1999/xlink">
<g id="Canvas" fill="none">
<g id="Group 4">
<g id="&#208;&#156;&#208;&#190;&#208;&#189;&#209;&#130;&#208;&#176;&#208;&#182;&#208;&#189;&#208;&#176;&#209;&#143; &#208;&#190;&#208;&#177;&#208;&#187;&#208;&#176;&#209;&#129;&#209;&#130;&#209;&#140; 28">
<g id="Vector">
<path d="M 1.5 1.5L 0 0" stroke-miterlimit="10" transform="translate(10 10)" stroke="#F77640"/>
</g>
<g id="Vector_2">
<path d="M 6 1C 6.98891 1 7.95561 1.29324 8.77785 1.84265C 9.6001 2.39206 10.241 3.17295 10.6194 4.08658C 10.9978 5.00021 11.0969 6.00555 10.9039 6.97545C 10.711 7.94536 10.2348 8.83627 9.53554 9.53553C 8.83627 10.2348 7.94536 10.711 6.97545 10.9039C 6.00555 11.0969 5.00022 10.9978 4.08659 10.6194C 3.17296 10.241 2.39206 9.6001 1.84265 8.77785C 1.29325 7.95561 1 6.98891 1 6C 1 4.67392 1.52679 3.40215 2.46447 2.46447C 3.40215 1.52678 4.67392 1 6 1ZM 6 0C 4.81331 0 3.65328 0.351894 2.66658 1.01118C 1.67989 1.67047 0.910851 2.60754 0.456726 3.7039C 0.00259972 4.80026 -0.11622 6.00666 0.115291 7.17054C 0.346802 8.33443 0.918247 9.40353 1.75736 10.2426C 2.59648 11.0818 3.66558 11.6532 4.82946 11.8847C 5.99335 12.1162 7.19975 11.9974 8.2961 11.5433C 9.39246 11.0892 10.3295 10.3201 10.9888 9.33342C 11.6481 8.34673 12 7.18669 12 6C 12 4.4087 11.3679 2.88258 10.2426 1.75736C 9.11742 0.632141 7.5913 0 6 0L 6 0Z" fill="#F77640"/>
</g>
<g id="Vector_3">
<path d="M 0.705 -2.67029e-07C 1.09436 -2.67029e-07 1.41 0.317878 1.41 0.71L 1.41 4.24C 1.41 4.63212 1.09436 4.95 0.705 4.95C 0.315639 4.95 -3.8147e-08 4.63212 -3.8147e-08 4.24L -3.8147e-08 0.71C -3.8147e-08 0.317878 0.315639 -2.67029e-07 0.705 -2.67029e-07Z" stroke-miterlimit="10" transform="matrix(0.707107 -0.707107 0.707107 0.707107 11 12.0059)" stroke="#F77640"/>
</g>
</g>
</g>
</g>
</svg>

