<svg width="14" height="10" viewBox="0 0 14 10" version="1.1" xmlns="http://www.w3.org/2000/svg" xmlns:xlink="http://www.w3.org/1999/xlink">
<g id="Canvas" fill="none">
<g id="Vector">
<path d="M 12.7922 -9.92942e-08L 1.20795 -9.92942e-08C 0.541882 -9.92942e-08 0 0.535229 0 1.19312L 0 8.8072C 0 9.46493 0.541882 10 1.20795 10L 12.7922 10C 13.4581 10 14 9.46493 14 8.8072L 14 1.19312C 14 0.535229 13.4581 -9.92942e-08 12.7922 -9.92942e-08ZM 8.72941 5.00008L 13.3264 1.04703C 13.3395 1.09388 13.3488 1.1422 13.3488 1.19312L 13.3488 8.8072C 13.3488 8.85812 13.3395 8.90628 13.3264 8.95297L 8.72941 5.00008ZM 12.7922 0.643088C 12.7958 0.643088 12.7995 0.644064 12.8031 0.644227L 7.36548 5.32008C 7.15384 5.50245 6.84633 5.50245 6.63435 5.32008L 1.19675 0.64439C 1.20054 0.644227 1.204 0.643251 1.20795 0.643251L 12.7922 0.643251L 12.7922 0.643088ZM 0.673482 8.95313C 0.660306 8.90612 0.651082 8.85812 0.651082 8.80737L 0.651082 1.19312C 0.651082 1.1422 0.660306 1.09405 0.673482 1.04719L 5.27059 5.00008L 0.673482 8.95313ZM 1.20795 9.35691C 1.20416 9.35691 1.20071 9.35594 1.19692 9.35594L 5.76652 5.42648L 6.20678 5.8052C 6.43654 6.00254 6.71819 6.10161 6.99984 6.10161C 7.28132 6.10161 7.56313 6.00254 7.79306 5.8052L 8.23348 5.42648L 12.8029 9.35594C 12.7993 9.35594 12.7957 9.35691 12.7922 9.35691L 1.20795 9.35691Z" fill="white" fill-opacity="0.6"/>
</g>
</g>
</svg>

