<svg width="16" height="18" viewBox="0 0 16 18" fill="none" xmlns="http://www.w3.org/2000/svg">
<path d="M8.39934 0.0314677C8.05486 -0.0230834 7.70182 -0.00656094 7.36486 0.0798824C7.0279 0.166326 6.71512 0.320608 6.44836 0.531965C6.1816 0.743322 5.96728 1.00666 5.82035 1.30362C5.67342 1.60057 5.59741 1.92398 5.59764 2.25129V2.76312C4.64046 3.18848 3.8316 3.85934 3.26487 4.6979C2.69814 5.53646 2.39677 6.50835 2.3957 7.50086V9.23884C2.39637 9.61052 2.2486 9.96898 1.98145 10.2438L0.536577 11.7436C0.26685 12.0235 0.0895131 12.3706 0.0260443 12.7429C-0.0374245 13.1152 0.0156971 13.4968 0.178976 13.8415C0.342254 14.1861 0.608685 14.479 0.946001 14.6846C1.28332 14.8903 1.67705 14.9999 2.07951 15.0002H4.79716C4.79716 15.7958 5.1345 16.5588 5.73498 17.1214C6.33546 17.684 7.14989 18 7.9991 18C8.8483 18 9.66273 17.684 10.2632 17.1214C10.8637 16.5588 11.201 15.7958 11.201 15.0002H13.9187C14.3215 15.0003 14.7157 14.8907 15.0534 14.685C15.3911 14.4792 15.6578 14.1861 15.8212 13.8411C15.9846 13.4961 16.0375 13.1141 15.9737 12.7415C15.9099 12.3688 15.732 12.0215 15.4616 11.7418L14.0167 10.2419C13.7501 9.96758 13.6023 9.60987 13.6025 9.23884V7.68834C13.6074 6.6722 13.3105 5.67482 12.745 4.80769C12.1796 3.94055 11.3678 3.23784 10.4005 2.77812V2.3319C10.4082 1.7894 10.2118 1.26168 9.84599 0.841118C9.48013 0.420553 8.96803 0.133946 8.39934 0.0314677ZM7.9991 16.5001C7.57449 16.5001 7.16728 16.3421 6.86704 16.0608C6.5668 15.7795 6.39813 15.398 6.39813 15.0002H9.60006C9.60006 15.398 9.43139 15.7795 9.13115 16.0608C8.83091 16.3421 8.4237 16.5001 7.9991 16.5001ZM12.0015 7.68834V9.23884C12.0014 9.98219 12.296 10.6991 12.828 11.2506L14.2749 12.7504C14.3366 12.8151 14.3771 12.895 14.3914 12.9807C14.4057 13.0664 14.3933 13.1541 14.3557 13.2333C14.3181 13.3126 14.2568 13.3799 14.1793 13.4273C14.1017 13.4747 14.0112 13.5 13.9187 13.5004H2.07951C1.98695 13.5 1.89645 13.4747 1.81892 13.4273C1.74138 13.3799 1.68011 13.3126 1.64248 13.2333C1.60484 13.1541 1.59245 13.0664 1.60679 12.9807C1.62112 12.895 1.66158 12.8151 1.7233 12.7504L3.17017 11.2506C3.70221 10.6991 3.99674 9.98219 3.99667 9.23884V7.50086C3.99771 6.72636 4.25471 5.97115 4.73237 5.33901C5.21003 4.70688 5.88491 4.22882 6.66429 3.97052C6.82044 3.91894 6.95568 3.82327 7.05137 3.69668C7.14707 3.5701 7.19851 3.41882 7.19861 3.2637V2.25129C7.19861 2.05239 7.28295 1.86164 7.43307 1.721C7.58319 1.58036 7.78679 1.50135 7.9991 1.50135C8.04605 1.50137 8.09291 1.50514 8.13918 1.5126C8.33298 1.55728 8.50444 1.66314 8.62472 1.81235C8.74499 1.96157 8.80674 2.14504 8.79958 2.3319V3.26933C8.79961 3.42246 8.84968 3.57191 8.94305 3.6976C9.03642 3.82329 9.16863 3.91918 9.3219 3.9724C10.8989 4.52173 12.0015 6.04973 12.0015 7.68834Z" fill="#F77640"/>
</svg>
