<svg width="19" height="19" viewBox="0 0 19 19" fill="none" xmlns="http://www.w3.org/2000/svg">
<path d="M18.0276 7.50554L16.694 7.2793C16.555 6.83079 16.3764 6.39816 16.1581 5.98538L16.944 4.88594C17.2774 4.41759 17.2258 3.77857 16.817 3.37372L15.6342 2.19093C15.412 1.96867 15.1182 1.84562 14.8047 1.84562C14.5586 1.84562 14.3244 1.92104 14.126 2.06392L13.0226 2.8498C12.5939 2.62356 12.1454 2.43702 11.681 2.2981L11.4587 0.980364C11.3635 0.412785 10.8753 0 10.2998 0H8.62879C8.05327 0 7.56507 0.412785 7.46981 0.980364L7.23961 2.32985C6.79507 2.46877 6.36244 2.65135 5.94966 2.87362L4.85816 2.08774C4.6597 1.94485 4.42156 1.86944 4.17548 1.86944C3.86192 1.86944 3.56424 1.99248 3.34594 2.21475L2.15918 3.39754C1.75433 3.80238 1.69877 4.4414 2.03217 4.90976L2.82599 6.02507C2.60769 6.44182 2.43305 6.87445 2.2981 7.32296L0.980364 7.54523C0.412785 7.64048 0 8.12868 0 8.7042V10.3752C0 10.9507 0.412785 11.4389 0.980364 11.5342L2.32985 11.7644C2.46877 12.2089 2.65135 12.6415 2.87362 13.0543L2.09171 14.1418C1.7583 14.6102 1.8099 15.2492 2.21872 15.6541L3.4015 16.8368C3.62377 17.0591 3.91749 17.1822 4.23104 17.1822C4.47713 17.1822 4.7113 17.1067 4.90976 16.9639L6.02507 16.17C6.42595 16.3804 6.84667 16.5511 7.2793 16.686L7.50157 18.0196C7.59683 18.5872 8.08502 19 8.66054 19H10.3355C10.911 19 11.3992 18.5872 11.4945 18.0196L11.7207 16.686C12.1692 16.5471 12.6018 16.3685 13.0146 16.1502L14.1141 16.9361C14.3125 17.079 14.5507 17.1544 14.7967 17.1544C15.1103 17.1544 15.404 17.0313 15.6263 16.8091L16.8091 15.6263C17.2139 15.2214 17.2695 14.5824 16.9361 14.1141L16.1502 13.0107C16.3685 12.5939 16.5511 12.1613 16.686 11.7167L18.0196 11.4945C18.5872 11.3992 19 10.911 19 10.3355V8.66451C19.0079 8.08899 18.5952 7.60079 18.0276 7.50554ZM17.9363 10.3355C17.9363 10.3871 17.9006 10.4307 17.849 10.4387L16.182 10.7165C15.9716 10.7522 15.8049 10.907 15.7533 11.1095C15.6025 11.6929 15.3723 12.2526 15.0627 12.7725C14.9555 12.9551 14.9634 13.1813 15.0865 13.356L16.0668 14.7372C16.0946 14.7769 16.0907 14.8364 16.0549 14.8722L14.8722 16.0549C14.8444 16.0827 14.8166 16.0867 14.7967 16.0867C14.7729 16.0867 14.7531 16.0788 14.7372 16.0668L13.3599 15.0865C13.1893 14.9634 12.9591 14.9555 12.7765 15.0627C12.2565 15.3723 11.6969 15.6025 11.1134 15.7533C10.907 15.8049 10.7522 15.9756 10.7205 16.182L10.4387 17.849C10.4308 17.9006 10.3871 17.9363 10.3355 17.9363H8.66451C8.61291 17.9363 8.56925 17.9006 8.56131 17.849L8.28348 16.182C8.24776 15.9716 8.09296 15.8049 7.89054 15.7533C7.32296 15.6064 6.77523 15.3802 6.26321 15.0865C6.17986 15.0389 6.0846 15.015 5.99332 15.015C5.88615 15.015 5.77502 15.0468 5.68373 15.1143L4.29455 16.1026C4.2747 16.1145 4.25486 16.1224 4.23501 16.1224C4.21914 16.1224 4.18738 16.1184 4.1596 16.0907L2.97681 14.9079C2.94109 14.8722 2.93712 14.8166 2.96491 14.7729L3.9413 13.4036C4.06434 13.229 4.07228 12.9987 3.96511 12.8162C3.65553 12.3002 3.41738 11.7405 3.26656 11.1571C3.21099 10.9547 3.04429 10.7999 2.83789 10.7642L1.15897 10.4784C1.10737 10.4704 1.07165 10.4268 1.07165 10.3752V8.7042C1.07165 8.6526 1.10737 8.60894 1.15897 8.601L2.81408 8.32317C3.02444 8.28745 3.19511 8.13265 3.24671 7.92626C3.39357 7.3428 3.6198 6.77919 3.92542 6.25924C4.03259 6.07667 4.02068 5.85043 3.89764 5.67976L2.90934 4.29058C2.88155 4.25089 2.88552 4.19135 2.92125 4.15563L4.10403 2.97284C4.13182 2.94506 4.1596 2.94109 4.17944 2.94109C4.20326 2.94109 4.2231 2.94903 4.23898 2.96094L5.60831 3.93733C5.78295 4.06037 6.01316 4.06831 6.19574 3.96114C6.71172 3.65156 7.27136 3.41341 7.85482 3.26259C8.05724 3.20702 8.21203 3.04032 8.24776 2.83393L8.53353 1.155C8.54147 1.10341 8.58513 1.06768 8.63673 1.06768H10.3077C10.3593 1.06768 10.403 1.10341 10.4109 1.155L10.6887 2.81011C10.7245 3.02047 10.8793 3.19114 11.0856 3.24274C11.685 3.39357 12.2565 3.62774 12.7884 3.9413C12.971 4.04846 13.1972 4.04053 13.3718 3.91748L14.7412 2.93315C14.761 2.92125 14.7809 2.91331 14.8007 2.91331C14.8166 2.91331 14.8483 2.91728 14.8761 2.94506L16.0589 4.12785C16.0946 4.16357 16.0986 4.21914 16.0708 4.26279L15.0905 5.64007C14.9674 5.81074 14.9595 6.04094 15.0666 6.22352C15.3762 6.74347 15.6064 7.30311 15.7573 7.88657C15.8089 8.09296 15.9795 8.24775 16.1859 8.27951L17.8529 8.56131C17.9045 8.56925 17.9403 8.61291 17.9403 8.66451V10.3355H17.9363Z" fill="#232323"/>
<path d="M9.50241 5.39844C7.24003 5.39844 5.40234 7.23612 5.40234 9.4985C5.40234 11.7609 7.24003 13.5986 9.50241 13.5986C11.7648 13.5986 13.6025 11.7609 13.6025 9.4985C13.6025 7.23612 11.7648 5.39844 9.50241 5.39844ZM9.50241 12.5269C7.83142 12.5269 6.474 11.1695 6.474 9.4985C6.474 7.82752 7.83142 6.47009 9.50241 6.47009C11.1734 6.47009 12.5308 7.82752 12.5308 9.4985C12.5308 11.1695 11.1734 12.5269 9.50241 12.5269Z" fill="#232323"/>
</svg>
