<svg width="19" height="19" viewBox="0 0 19 19" fill="none" xmlns="http://www.w3.org/2000/svg">
<path d="M17.9176 0H0.486452C0.218903 0 0 0.218903 0 0.486452C0 0.754 0.218903 0.972904 0.486452 0.972904H1.53638V18.5014C1.53638 18.6798 1.63367 18.846 1.79176 18.9311C1.94986 19.0162 2.14039 19.0081 2.29038 18.9068L4.40239 17.5001L6.52251 18.9108C6.68466 19.0203 6.89951 19.0203 7.06166 18.9108L9.17367 17.5042L11.2938 18.9149C11.4559 19.0243 11.6708 19.0243 11.8329 18.9149L13.945 17.5082L16.0651 18.9189C16.1461 18.9716 16.2394 19 16.3326 19C16.4096 19 16.4907 18.9797 16.5637 18.9432C16.7218 18.8581 16.8191 18.6919 16.8191 18.5135L16.811 0.985065H17.9176C18.1852 0.985065 18.4041 0.766162 18.4041 0.498613C18.4041 0.231065 18.1852 0 17.9176 0ZM15.8502 17.5933L14.2166 16.5069C14.0544 16.3975 13.8396 16.3975 13.6774 16.5069L11.5654 17.9176L9.44527 16.5069C9.28312 16.3975 9.06827 16.3975 8.90612 16.5069L6.79411 17.9136L4.67399 16.5069C4.51184 16.3975 4.29699 16.3975 4.13484 16.5069L2.50928 17.5893V0.96885H15.8462L15.8502 17.5933Z" fill="#232323"/>
<path d="M4.74719 7.76783H9.84278C10.1103 7.76783 10.3292 7.54892 10.3292 7.28137C10.3292 7.01383 10.1103 6.79492 9.84278 6.79492H4.74719C4.47965 6.79492 4.26074 7.01383 4.26074 7.28137C4.26074 7.54892 4.47559 7.76783 4.74719 7.76783Z" fill="#232323"/>
<path d="M4.74719 9.45728H8.56584C8.83339 9.45728 9.05229 9.23838 9.05229 8.97083C9.05229 8.70328 8.83339 8.48438 8.56584 8.48438H4.74719C4.47965 8.48438 4.26074 8.70328 4.26074 8.97083C4.26074 9.23838 4.47559 9.45728 4.74719 9.45728Z" fill="#232323"/>
<path d="M12.3888 7.76783H13.6617C13.9292 7.76783 14.1481 7.54892 14.1481 7.28137C14.1481 7.01383 13.9292 6.79492 13.6617 6.79492H12.3888C12.1212 6.79492 11.9023 7.01383 11.9023 7.28137C11.9023 7.54892 12.1172 7.76783 12.3888 7.76783Z" fill="#232323"/>
<path d="M12.3888 9.45728H13.6617C13.9292 9.45728 14.1481 9.23838 14.1481 8.97083C14.1481 8.70328 13.9292 8.48438 13.6617 8.48438H12.3888C12.1212 8.48438 11.9023 8.70328 11.9023 8.97083C11.9023 9.23838 12.1172 9.45728 12.3888 9.45728Z" fill="#232323"/>
<path d="M4.74719 3.86353H9.84278C10.1103 3.86353 10.3292 3.64463 10.3292 3.37708C10.3292 3.10953 10.1103 2.89062 9.84278 2.89062H4.74719C4.47965 2.89062 4.26074 3.10953 4.26074 3.37708C4.26074 3.64463 4.47559 3.86353 4.74719 3.86353Z" fill="#232323"/>
<path d="M4.74719 5.54908H8.56584C8.83339 5.54908 9.05229 5.33017 9.05229 5.06262C9.05229 4.79508 8.83339 4.57617 8.56584 4.57617H4.74719C4.47965 4.57617 4.26074 4.79508 4.26074 5.06262C4.26074 5.33017 4.47559 5.54908 4.74719 5.54908Z" fill="#232323"/>
<path d="M12.3888 3.86353H13.6617C13.9292 3.86353 14.1481 3.64463 14.1481 3.37708C14.1481 3.10953 13.9292 2.89062 13.6617 2.89062H12.3888C12.1212 2.89062 11.9023 3.10953 11.9023 3.37708C11.9023 3.64463 12.1172 3.86353 12.3888 3.86353Z" fill="#232323"/>
<path d="M12.3888 5.54908H13.6617C13.9292 5.54908 14.1481 5.33017 14.1481 5.06262C14.1481 4.79508 13.9292 4.57617 13.6617 4.57617H12.3888C12.1212 4.57617 11.9023 4.79508 11.9023 5.06262C11.9023 5.33017 12.1172 5.54908 12.3888 5.54908Z" fill="#232323"/>
<path d="M4.74719 11.719H9.84278C10.1103 11.719 10.3292 11.5001 10.3292 11.2325C10.3292 10.965 10.1103 10.7461 9.84278 10.7461H4.74719C4.47965 10.7461 4.26074 10.965 4.26074 11.2325C4.26074 11.5001 4.47559 11.719 4.74719 11.719Z" fill="#232323"/>
<path d="M4.74719 13.4065H8.56584C8.83339 13.4065 9.05229 13.1876 9.05229 12.92C9.05229 12.6525 8.83339 12.4336 8.56584 12.4336H4.74719C4.47965 12.4336 4.26074 12.6525 4.26074 12.92C4.26074 13.1876 4.47559 13.4065 4.74719 13.4065Z" fill="#232323"/>
<path d="M12.3888 11.719H13.6617C13.9292 11.719 14.1481 11.5001 14.1481 11.2325C14.1481 10.965 13.9292 10.7461 13.6617 10.7461H12.3888C12.1212 10.7461 11.9023 10.965 11.9023 11.2325C11.9023 11.5001 12.1172 11.719 12.3888 11.719Z" fill="#232323"/>
<path d="M12.3888 13.4065H13.6617C13.9292 13.4065 14.1481 13.1876 14.1481 12.92C14.1481 12.6525 13.9292 12.4336 13.6617 12.4336H12.3888C12.1212 12.4336 11.9023 12.6525 11.9023 12.92C11.9023 13.1876 12.1172 13.4065 12.3888 13.4065Z" fill="#232323"/>
</svg>
