<svg width="23" height="17" viewBox="0 0 23 17" fill="none" xmlns="http://www.w3.org/2000/svg">
<path d="M0 2.83486V14.1651C0 15.7264 1.27363 17 2.83486 17H11.9922C13.5534 17 14.8271 15.7264 14.8271 14.1651V12.33C14.8271 12.0196 14.576 11.7685 14.2656 11.7685C13.9552 11.7685 13.7041 12.0196 13.7041 12.33V14.1651C13.7041 15.1101 12.9326 15.8816 11.9876 15.8816H2.83486C1.8899 15.8816 1.11842 15.1101 1.11842 14.1651V2.83486C1.11842 1.8899 1.8899 1.11842 2.83486 1.11842H11.9922C12.9372 1.11842 13.7086 1.8899 13.7086 2.83486V4.66998C13.7086 4.9804 13.9597 5.23147 14.2701 5.23147C14.5806 5.23147 14.8316 4.9804 14.8316 4.66998V2.83486C14.8316 1.27363 13.558 0 11.9968 0H2.83486C1.27363 0 0 1.26907 0 2.83486Z" fill="#232323"/>
<path d="M17.5939 12.7235C17.7034 12.8331 17.8449 12.8878 17.991 12.8878C18.1371 12.8878 18.2786 12.8331 18.3882 12.7235L22.2182 8.89348C22.4373 8.67436 22.4373 8.32285 22.2182 8.10374L18.3882 4.27371C18.169 4.0546 17.8175 4.0546 17.5984 4.27371C17.3793 4.49283 17.3793 4.84434 17.5984 5.06346L20.4744 7.9394H9.97946C9.66904 7.9394 9.41797 8.19047 9.41797 8.50089C9.41797 8.81131 9.66904 9.06238 9.97946 9.06238H20.4698L17.5939 11.9383C17.3747 12.1529 17.3747 12.5089 17.5939 12.7235Z" fill="#232323"/>
</svg>
