<svg width="24" height="24" viewBox="0 0 24 24" fill="none" xmlns="http://www.w3.org/2000/svg">
<path d="M12 1C14.1756 1 16.3023 1.64514 18.1113 2.85383C19.9202 4.06253 21.3301 5.7805 22.1627 7.79048C22.9952 9.80047 23.2131 12.0122 22.7886 14.146C22.3642 16.2798 21.3166 18.2398 19.7782 19.7782C18.2398 21.3166 16.2798 22.3642 14.146 22.7886C12.0122 23.2131 9.80048 22.9952 7.79049 22.1627C5.7805 21.3301 4.06254 19.9202 2.85384 18.1113C1.64514 16.3023 1.00001 14.1756 1.00001 12C1.00001 9.08262 2.15893 6.28473 4.22183 4.22183C6.28473 2.15893 9.08262 1 12 1ZM12 0C9.62663 0 7.30655 0.703788 5.33316 2.02236C3.35977 3.34094 1.8217 5.21509 0.913451 7.4078C0.00519943 9.60051 -0.232441 12.0133 0.230582 14.3411C0.693605 16.6689 1.83649 18.8071 3.51472 20.4853C5.19295 22.1635 7.33115 23.3064 9.65892 23.7694C11.9867 24.2324 14.3995 23.9948 16.5922 23.0866C18.7849 22.1783 20.6591 20.6402 21.9776 18.6668C23.2962 16.6935 24 14.3734 24 12C24 8.8174 22.7357 5.76516 20.4853 3.51472C18.2348 1.26428 15.1826 0 12 0Z" fill="#717582" fill-opacity="0.3"/>
<path d="M7.5 7.5L16.5 16.5" stroke="#C9CBCF" stroke-miterlimit="10"/>
<path d="M16.5 7.5L7.5 16.5" stroke="#C9CBCF" stroke-miterlimit="10"/>
</svg>
