<svg width="24" height="24" viewBox="0 0 24 24" fill="none" xmlns="http://www.w3.org/2000/svg">
<path d="M17.25 17.25L15 15" stroke="white" stroke-miterlimit="10"/>
<path d="M9 1.5C10.4834 1.5 11.9334 1.93987 13.1668 2.76398C14.4001 3.58809 15.3614 4.75943 15.9291 6.12987C16.4968 7.50032 16.6453 9.00832 16.3559 10.4632C16.0665 11.918 15.3522 13.2544 14.3033 14.3033C13.2544 15.3522 11.918 16.0665 10.4632 16.3559C9.00832 16.6453 7.50032 16.4968 6.12988 15.9291C4.75943 15.3614 3.58809 14.4001 2.76398 13.1668C1.93987 11.9334 1.5 10.4834 1.5 9C1.5 7.01088 2.29018 5.10322 3.6967 3.6967C5.10323 2.29018 7.01088 1.5 9 1.5ZM9 0C7.21997 0 5.47991 0.527841 3.99987 1.51677C2.51983 2.50571 1.36628 3.91131 0.685088 5.55585C0.00389957 7.20038 -0.17433 9.00998 0.172937 10.7558C0.520204 12.5016 1.37737 14.1053 2.63604 15.364C3.89472 16.6226 5.49836 17.4798 7.24419 17.8271C8.99002 18.1743 10.7996 17.9961 12.4442 17.3149C14.0887 16.6337 15.4943 15.4802 16.4832 14.0001C17.4722 12.5201 18 10.78 18 9C18 6.61305 17.0518 4.32387 15.364 2.63604C13.6761 0.948211 11.387 0 9 0V0Z" fill="white"/>
<path d="M18.7486 17.2673C18.3327 16.8514 17.6607 16.849 17.2478 17.262C16.8348 17.675 16.8372 18.3469 17.2531 18.7628L20.9972 22.507C21.4131 22.9229 22.0851 22.9252 22.498 22.5123C22.911 22.0993 22.9086 21.4273 22.4927 21.0114L18.7486 17.2673Z" stroke="white" stroke-miterlimit="10"/>
</svg>
