<svg width="22" height="17" viewBox="0 0 22 17" version="1.1" xmlns="http://www.w3.org/2000/svg" xmlns:xlink="http://www.w3.org/1999/xlink">
<g id="Canvas" fill="none">
<g id="Vector">
<path fill-rule="evenodd" clip-rule="evenodd" d="M 22 1.68275C 22 0.754888 21.2936 0 20.4253 0L 1.57476 0C 0.706431 0 0 0.754888 0 1.68275L 0 15.3172C 0 16.2451 0.706431 17 1.57476 17L 20.4253 17C 21.2936 17 22 16.2451 22 15.3172L 22 1.68275ZM 20.4253 1.26634C 20.6098 1.26634 20.7644 1.40419 20.8045 1.58844L 11 8.63556L 1.19553 1.58844C 1.23568 1.40419 1.39026 1.26634 1.57476 1.26634L 20.4253 1.26634ZM 1.18506 3.14127L 10.6536 9.9297C 10.757 10.0094 10.8785 10.0492 11 10.0492C 11.1215 10.0492 11.243 10.0094 11.3464 9.9297L 20.8149 3.14127L 20.8149 15.3172C 20.8149 15.5468 20.6401 15.7337 20.4253 15.7337L 1.57476 15.7337C 1.35987 15.7337 1.18506 15.5468 1.18506 15.3172L 1.18506 3.14127Z" fill="#F5BC40"/>
</g>
</g>
</svg>

