<svg width="28" height="18" viewBox="0 0 28 18" version="1.1" xmlns="http://www.w3.org/2000/svg" xmlns:xlink="http://www.w3.org/1999/xlink">
<g id="Canvas" fill="none">
<g id="Vector">
<path d="M 1.16283 15.6844L 1.16283 16.8422L 9.33612 16.8422L 9.33612 15.6844L 1.16283 15.6844ZM 5.25366 1.74086C 5.57156 1.74086 5.83089 1.99907 5.83089 2.32392C 5.83089 2.64044 5.57156 2.90699 5.25366 2.90699C 4.9274 2.90699 4.66806 2.64044 4.66806 2.32392C 4.66806 1.99907 4.9274 1.74086 5.25366 1.74086ZM 26.695 0L 27.4144 0C 27.7323 0 28 0.258214 28 0.583063L 28 4.06479C 28 4.38963 27.7323 4.64785 27.4144 4.64785L 8.16492 4.64785L 8.16492 14.5183L 9.91335 14.5183C 10.2396 14.5183 10.499 14.7765 10.499 15.1013L 10.499 17.4253C 10.499 17.7418 10.2396 18 9.91335 18L 0.585599 18C 0.259337 18 0 17.7418 0 17.4253L 0 15.1013C 0 14.7765 0.259337 14.5183 0.585599 14.5183L 2.33403 14.5183L 2.33403 0.583063C 2.33403 0.258214 2.59337 0 2.91963 0L 26.695 0L 26.695 0ZM 7.00209 14.5183L 7.00209 4.06479L 7.00209 1.1578L 3.49686 1.1578L 3.49686 14.5183L 7.00209 14.5183ZM 23.3319 3.48172L 24.6788 1.1578L 23.3319 1.1578L 21.9851 3.48172L 23.3319 3.48172ZM 26.0257 1.1578L 24.6788 3.48172L 26.8288 3.48172L 26.8288 1.1578L 26.0257 1.1578ZM 20.6382 3.48172L 21.9851 1.1578L 20.1948 1.1578L 18.8479 3.48172L 20.6382 3.48172ZM 17.501 3.48172L 18.8479 1.1578L 17.4927 1.1578L 16.1458 3.48172L 17.501 3.48172ZM 14.8073 3.48172L 16.1542 1.1578L 14.3555 1.1578L 13.0087 3.48172L 14.8073 3.48172ZM 11.6702 3.48172L 13.017 1.1578L 11.6618 1.1578L 10.3149 3.48172L 11.6702 3.48172ZM 8.9764 3.48172L 10.3233 1.1578L 8.16492 1.1578L 8.16492 3.48172L 8.9764 3.48172Z" fill="#F5BC40"/>
</g>
</g>
</svg>

