<svg width="24" height="24" viewBox="0 0 24 24" version="1.1" xmlns="http://www.w3.org/2000/svg" xmlns:xlink="http://www.w3.org/1999/xlink">
<g id="Canvas" fill="none">
<g id="Vector">
<path d="M 23.2 10.3494L 23.2 5.86674C 23.2 5.78701 23.1915 5.71208 23.1819 5.63821C 23.1128 5.10568 22.8088 4.72568 22.4323 4.50222C 22.4077 4.48782 22.3843 4.47155 22.3597 4.45848C 22.3411 4.44835 22.3208 4.44008 22.3019 4.43075C 22.2563 4.40888 22.2104 4.38862 22.164 4.37102C 21.9883 4.30462 21.7987 4.26675 21.6 4.26675C 21.6 4.26675 21.6 3.92249 21.6 3.73342C 21.6 2.84996 20.8835 2.13343 20 2.13343C 19.4973 2.13343 18.6645 2.13343 17.6256 2.13343L 18.0541 3.20009C 18.2192 3.20009 18.3669 3.20009 18.4931 3.20009C 18.8341 3.20009 19.0267 3.20009 19.0267 3.20009L 20 3.20009C 20.2941 3.20009 20.5333 3.43929 20.5333 3.73342C 20.5333 4.02755 20.5333 4.26675 20.5333 4.26675L 18.9333 4.26675L 18.4931 4.26675L 18.4829 4.26675L 17.908 4.26675L 16.3275 0.334501C 16.2749 0.203301 16.172 0.0985017 16.0421 0.0427686C 15.9123 -0.0124312 15.7653 -0.0145645 15.6339 0.038502L 10.4224 2.13343C 5.936 2.13343 1.6432 2.13343 1.6 2.13343C 0.717333 2.13343 0 2.85076 0 3.73342L 0 22.4C 0 23.2827 0.717333 24 1.6 24C 1.69067 24 21.6 24 21.6 24C 22.6667 24 23.2 23.4667 23.2 22.4L 23.2 16.5547C 23.664 16.2614 24 15.7387 24 15.2L 24 11.7334C 24 11.1414 23.6773 10.6241 23.2 10.3494ZM 15.5368 1.2273L 16.7584 4.26675L 7.97493 4.26675L 15.5368 1.2273ZM 1.6 3.20009C 1.64373 3.20009 4.43387 3.20009 7.7688 3.20009L 5.1152 4.26675L 3.46667 4.26675L 1.6 4.26675C 1.30667 4.26675 1.06667 4.02675 1.06667 3.73342C 1.06667 3.44009 1.30667 3.20009 1.6 3.20009ZM 22.1333 22.4C 22.1333 22.6933 21.8933 22.9333 21.6 22.9333C 21.6 22.9333 1.69333 22.9333 1.6 22.9333C 1.30667 22.9333 1.06667 22.6933 1.06667 22.4L 1.06667 5.24008C 1.23467 5.30141 1.41333 5.33341 1.6 5.33341C 1.60267 5.33341 1.60533 5.33341 1.608 5.33341C 1.608 5.33341 2.31653 5.33341 3.46667 5.33341C 7.0272 5.33341 14.8192 5.33341 18.9333 5.33341C 20.5459 5.33341 21.5947 5.33341 21.6 5.33341C 21.8941 5.33341 22.1333 5.57261 22.1333 5.86674C 22.1333 5.89421 22.1333 11.7334 22.1333 11.7334L 13.088 11.7334L 11.2 13.936L 11.2 14.5971L 13.088 16.8L 22.1333 16.8L 22.1333 22.4ZM 22.9333 15.2C 22.9333 15.4667 22.6667 15.7334 22.4 15.7334L 13.6 15.7334L 12.3216 14.2667L 13.6 12.8L 22.9333 12.8L 22.9333 15.2Z" fill="#F5BC40"/>
</g>
</g>
</svg>

