<svg width="27" height="21" viewBox="0 0 27 21" version="1.1" xmlns="http://www.w3.org/2000/svg" xmlns:xlink="http://www.w3.org/1999/xlink">
<g id="Canvas" fill="none">
<g id="Compound Path">
<path d="M 9.30872e-09 15.8677C 9.30872e-09 16.3836 0.205676 16.8783 0.57178 17.243C 0.937885 17.6078 1.43443 17.8127 1.95218 17.8127L 2.64102 17.8127C 2.8175 18.5718 3.24688 19.249 3.85917 19.7339C 4.47146 20.2188 5.23056 20.4828 6.01272 20.4828C 6.79487 20.4828 7.55397 20.2188 8.16626 19.7339C 8.77855 19.249 9.20794 18.5718 9.38441 17.8127L 17.221 17.8127C 17.3975 18.5718 17.8269 19.249 18.4392 19.7339C 19.0515 20.2188 19.8106 20.4828 20.5927 20.4828C 21.3749 20.4828 22.134 20.2188 22.7463 19.7339C 23.3586 19.249 23.7879 18.5718 23.9644 17.8127L 25.0465 17.8127C 25.3091 17.8128 25.569 17.7602 25.8107 17.658C 26.0524 17.5558 26.2709 17.406 26.4532 17.2177C 26.6354 17.0294 26.7777 16.8064 26.8714 16.562C 26.9651 16.3176 27.0084 16.0569 26.9987 15.7955L 26.8146 10.7971C 26.8076 10.6209 26.7446 10.4515 26.6349 10.3132C 26.5252 10.175 26.3743 10.0749 26.2038 10.0274L 24.8094 5.64304L 24.8094 4.14267C 24.8094 3.62685 24.6037 3.13215 24.2376 2.76741C 23.8715 2.40267 23.375 2.19776 22.8572 2.19776L 17.4441 2.19776L 17.4441 1.94492C 17.4441 1.42909 17.2385 0.934396 16.8723 0.569653C 16.5062 0.20491 16.0097 9.53906e-08 15.4919 9.53906e-08L 1.95218 9.53906e-08C 1.43443 9.53906e-08 0.937885 0.20491 0.57178 0.569653C 0.205676 0.934396 9.30872e-09 1.42909 9.30872e-09 1.94492L 9.30872e-09 11.5C 9.30872e-09 11.5195 9.30872e-09 11.5389 9.30872e-09 11.5584L 9.30872e-09 15.8677ZM 6.01272 18.8157C 5.6586 18.8157 5.31244 18.7111 5.01801 18.5151C 4.72357 18.3191 4.49409 18.0405 4.35858 17.7145C 4.22306 17.3886 4.18761 17.0299 4.25669 16.6839C 4.32577 16.3379 4.4963 16.0201 4.74669 15.7706C 4.99709 15.5211 5.31611 15.3513 5.66342 15.2824C 6.01073 15.2136 6.37072 15.2489 6.69788 15.3839C 7.02504 15.5189 7.30467 15.7476 7.5014 16.0409C 7.69814 16.3342 7.80314 16.6791 7.80314 17.0319C 7.80241 17.5048 7.61354 17.9581 7.27792 18.2924C 6.94231 18.6268 6.48734 18.815 6.01272 18.8157ZM 20.5955 18.8157C 20.2414 18.8157 19.8952 18.7111 19.6008 18.5151C 19.3064 18.3191 19.0769 18.0405 18.9414 17.7145C 18.8058 17.3886 18.7704 17.0299 18.8395 16.6839C 18.9086 16.3379 19.0791 16.0201 19.3295 15.7706C 19.5799 15.5211 19.8989 15.3513 20.2462 15.2824C 20.5935 15.2136 20.9535 15.2489 21.2807 15.3839C 21.6078 15.5189 21.8875 15.7476 22.0842 16.0409C 22.2809 16.3342 22.3859 16.6791 22.3859 17.0319C 22.3852 17.5048 22.1963 17.9581 21.8607 18.2924C 21.5251 18.6268 21.0701 18.815 20.5955 18.8157ZM 24.3242 9.64679L 20.3947 8.81325L 20.3947 6.62939L 23.3732 6.62939L 24.3242 9.64679ZM 22.8712 3.86483C 22.9452 3.86483 23.0161 3.8941 23.0684 3.94621C 23.1207 3.99831 23.1501 4.06898 23.1501 4.14267L 23.1501 4.96232L 19.5581 4.96232C 19.3362 4.96232 19.1234 5.05014 18.9665 5.20645C 18.8096 5.36277 18.7214 5.57479 18.7214 5.79585L 18.7214 9.47453C 18.7216 9.66504 18.7873 9.84974 18.9076 9.99787C 19.0278 10.146 19.1954 10.2486 19.3824 10.2886L 25.1664 11.5195L 25.3281 15.8566C 25.3281 15.9303 25.2988 16.001 25.2465 16.0531C 25.1942 16.1052 25.1232 16.1345 25.0493 16.1345L 23.9337 16.1345C 23.7389 15.3982 23.3049 14.7469 22.6996 14.2822C 22.0942 13.8174 21.3514 13.5654 20.5871 13.5654C 19.8229 13.5654 19.0801 13.8174 18.4747 14.2822C 17.8693 14.7469 17.4354 15.3982 17.2405 16.1345L 9.35652 16.1345C 9.1617 15.3982 8.72774 14.7469 8.12235 14.2822C 7.51696 13.8174 6.77419 13.5654 6.00993 13.5654C 5.24567 13.5654 4.5029 13.8174 3.89751 14.2822C 3.29212 14.7469 2.85816 15.3982 2.66333 16.1345L 1.95218 16.1345C 1.87822 16.1345 1.80728 16.1052 1.75498 16.0531C 1.70268 16.001 1.6733 15.9303 1.6733 15.8566L 1.6733 12.3336L 16.6075 12.3336C 16.8294 12.3336 17.0422 12.2457 17.1991 12.0894C 17.356 11.9331 17.4441 11.7211 17.4441 11.5L 17.4441 3.86483L 22.8712 3.86483ZM 1.67609 1.94492C 1.67609 1.87123 1.70547 1.80056 1.75777 1.74845C 1.81007 1.69635 1.881 1.66707 1.95497 1.66707L 15.4919 1.66707C 15.5659 1.66707 15.6368 1.69635 15.6891 1.74845C 15.7414 1.80056 15.7708 1.87123 15.7708 1.94492L 15.7708 10.6665L 1.6733 10.6665L 1.67609 1.94492Z" fill="#F5BC40"/>
</g>
</g>
</svg>

