<svg width="28" height="16" viewBox="0 0 28 16" fill="none" xmlns="http://www.w3.org/2000/svg">
<path d="M26.9353 14.3545C26.8636 14.2344 26.4197 13.2698 24.2837 11.2874C22.0476 9.21149 22.348 9.54858 25.0413 5.95914C26.6817 3.7731 27.3375 2.43812 27.1322 1.86741C26.937 1.32341 25.7305 1.46692 25.7305 1.46692L21.7189 1.49028C21.7189 1.49028 21.4219 1.45023 21.1999 1.58206C20.9846 1.71222 20.8461 2.01259 20.8461 2.01259C20.8461 2.01259 20.2104 3.70468 19.3626 5.14313C17.5754 8.17855 16.8595 8.33875 16.5675 8.15018C15.8883 7.7113 16.0586 6.38466 16.0586 5.4435C16.0586 2.50153 16.5041 1.27501 15.1891 0.957955C14.7519 0.852825 14.4315 0.782738 13.3152 0.771057C11.8834 0.756038 10.6702 0.776063 9.98438 1.11148C9.52715 1.33509 9.17505 1.83404 9.39031 1.86241C9.65564 1.89745 10.2564 2.02427 10.5751 2.45814C10.9873 3.01717 10.9723 4.27539 10.9723 4.27539C10.9723 4.27539 11.2092 7.738 10.4199 8.16854C9.87758 8.4639 9.13499 7.86149 7.54136 5.10642C6.72535 3.69634 6.10792 2.13608 6.10792 2.13608C6.10792 2.13608 5.98944 1.84572 5.77751 1.69053C5.52053 1.50196 5.16008 1.44189 5.16008 1.44189L1.34537 1.46525C1.34537 1.46525 0.772992 1.48194 0.562732 1.73058C0.375835 1.95252 0.547714 2.40975 0.547714 2.40975C0.547714 2.40975 3.53474 9.39672 6.91559 12.9194C10.0178 16.1484 13.5388 15.9365 13.5388 15.9365H15.1341C15.1341 15.9365 15.6163 15.8831 15.8616 15.6177C16.0886 15.3741 16.0802 14.9169 16.0802 14.9169C16.0802 14.9169 16.0485 12.7759 17.0431 12.4605C18.0226 12.1501 19.2809 14.5297 20.6142 15.4459C21.6221 16.1384 22.388 15.9865 22.388 15.9865L25.9541 15.9365C25.9541 15.9365 27.8198 15.8213 26.9353 14.3545Z" fill="#232323"/>
</svg>
