<svg width="25" height="16" viewBox="0 0 25 16" fill="none" xmlns="http://www.w3.org/2000/svg">
<path d="M21.3268 6.85911V3.8125H19.8034V6.85911H16.7568V8.38242H19.8034V11.429H21.3268V8.38242H24.3734V6.85911H21.3268Z" fill="#232323"/>
<path d="M7.61653 6.85885V9.90547H11.926C11.2968 11.6786 9.60293 12.9521 7.61653 12.9521C5.09698 12.9521 3.04661 10.9017 3.04661 8.38216C3.04661 5.86261 5.09698 3.81224 7.61653 3.81224C8.70875 3.81224 9.75983 4.20373 10.5763 4.91511L12.5779 2.61797C11.207 1.42369 9.44603 0.765625 7.61653 0.765625C3.41678 0.765625 0 4.1824 0 8.38216C0 12.5819 3.41678 15.9987 7.61653 15.9987C11.8163 15.9987 15.2331 12.5819 15.2331 8.38216V6.85885H7.61653Z" fill="#232323"/>
</svg>
