<svg width="20" height="16" viewBox="0 0 20 16" fill="none" xmlns="http://www.w3.org/2000/svg">
<path d="M19.4837 2.56899C18.7865 2.87482 18.0436 3.07754 17.2691 3.17597C18.0659 2.70022 18.674 1.95263 18.96 1.05154C18.2171 1.49447 17.3968 1.80733 16.5227 1.98193C15.8173 1.23082 14.8119 0.765625 13.7151 0.765625C11.5872 0.765625 9.87402 2.49282 9.87402 4.61022C9.87402 4.91488 9.8998 5.20782 9.96308 5.4867C6.76765 5.33086 3.94015 3.79935 2.04071 1.46635C1.7091 2.04169 1.51458 2.70022 1.51458 3.40915C1.51458 4.74028 2.20007 5.92026 3.22186 6.60341C2.60433 6.59169 1.99852 6.41241 1.48529 6.13001C1.48529 6.14173 1.48529 6.15696 1.48529 6.17219C1.48529 8.04 2.81759 9.59143 4.56471 9.94882C4.25185 10.0344 3.91086 10.0754 3.55698 10.0754C3.31091 10.0754 3.0625 10.0613 2.82931 10.0098C3.32732 11.5319 4.74048 12.6509 6.4208 12.6873C5.1131 13.7102 3.4527 14.3266 1.65519 14.3266C1.33999 14.3266 1.03767 14.3125 0.735352 14.2738C2.43794 15.3718 4.45574 15.9987 6.63172 15.9987C13.7046 15.9987 17.5714 10.1398 17.5714 5.06135C17.5714 4.89144 17.5655 4.7274 17.5573 4.56452C18.3202 4.02316 18.9611 3.34704 19.4837 2.56899Z" fill="#FF7800"/>
</svg>
