<svg width="21" height="20" viewBox="0 0 21 20" fill="none" xmlns="http://www.w3.org/2000/svg">
<path d="M5.08089 6.25H0.608398V20H5.08089V6.25Z" fill="#232323"/>
<path d="M17.2634 6.41125C17.2159 6.39625 17.1709 6.38 17.1209 6.36625C17.0609 6.3525 17.0009 6.34125 16.9396 6.33125C16.7021 6.28375 16.4421 6.25 16.1371 6.25C13.5296 6.25 11.8759 8.14625 11.3309 8.87874V6.25H6.8584V20H11.3309V12.5C11.3309 12.5 14.7109 7.7925 16.1371 11.25C16.1371 14.3362 16.1371 20 16.1371 20H20.6084V10.7212C20.6084 8.64374 19.1846 6.9125 17.2634 6.41125Z" fill="#232323"/>
<path d="M2.79589 4.37499C4.00401 4.37499 4.98339 3.39562 4.98339 2.18749C4.98339 0.979375 4.00401 0 2.79589 0C1.58777 0 0.608398 0.979375 0.608398 2.18749C0.608398 3.39562 1.58777 4.37499 2.79589 4.37499Z" fill="#232323"/>
</svg>
