<svg width="60" height="60" viewBox="0 0 60 60" version="1.1" xmlns="http://www.w3.org/2000/svg" xmlns:xlink="http://www.w3.org/1999/xlink">
<g id="Canvas" fill="none">
<g id="&#208;&#161;&#208;&#191;&#208;&#181;&#209;&#134;&#208;&#184;&#209;&#132;&#208;&#184;&#208;&#186;&#208;&#176;&#209;&#134;&#208;&#184;&#209;&#143;">
<g id="Vector">
<path d="M 19 13L 19.2 13C 22.3157 13 25.3474 14.0106 27.84 15.88L 27.84 15.88C 27.8549 15.8911 27.8725 15.8979 27.891 15.8996C 27.9095 15.9013 27.9281 15.8977 27.9447 15.8894C 27.9613 15.8811 27.9753 15.8684 27.9851 15.8526C 27.9948 15.8368 28 15.8186 28 15.8L 28 0L 0 0L 0 13L 5 13" stroke-width="2" stroke-miterlimit="10" transform="translate(1 1)" stroke="#F88453"/>
</g>
<g id="Vector_2">
<path d="M 0 9L 0 23L 30 23L 30 0L 26 0" stroke-width="2" stroke-miterlimit="10" transform="translate(29 36)" stroke="#F88453"/>
</g>
<g id="Vector_3">
<path d="M 16 0L 12 0C 8.8174 0 5.76516 1.26428 3.51472 3.51472C 1.26428 5.76516 0 8.8174 0 12L 0 14C 0 16.1217 0.842854 18.1566 2.34315 19.6569C 3.84344 21.1571 5.87827 22 8 22L 20 22C 22.1217 22 24.1566 21.1571 25.6569 19.6569C 27.1571 18.1566 28 16.1217 28 14L 28 12C 28 8.8174 26.7357 5.76516 24.4853 3.51472C 22.2348 1.26428 19.1826 0 16 0Z" stroke-width="2" stroke-miterlimit="10" transform="translate(16 20)" stroke="#F88453"/>
</g>
<g id="Vector_4">
<path d="M 3 2C 3.19778 2 3.39112 2.05865 3.55557 2.16853C 3.72002 2.27841 3.84819 2.43459 3.92388 2.61732C 3.99957 2.80004 4.01937 3.00111 3.98079 3.19509C 3.9422 3.38907 3.84696 3.56726 3.70711 3.70711C 3.56726 3.84696 3.38907 3.9422 3.19509 3.98079C 3.00111 4.01937 2.80004 3.99957 2.61732 3.92388C 2.43459 3.84819 2.27841 3.72002 2.16853 3.55557C 2.05865 3.39112 2 3.19778 2 3C 2 2.73478 2.10536 2.48043 2.29289 2.29289C 2.48043 2.10536 2.73478 2 3 2ZM 3 0C 2.40666 0 1.82664 0.175946 1.33329 0.50559C 0.839944 0.835235 0.455427 1.30377 0.228364 1.85195C 0.0013015 2.40013 -0.0581104 3.00333 0.0576452 3.58527C 0.173401 4.16721 0.459125 4.70176 0.878683 5.12132C 1.29824 5.54088 1.83279 5.8266 2.41473 5.94236C 2.99667 6.05811 3.59987 5.9987 4.14805 5.77164C 4.69623 5.54458 5.16476 5.16006 5.49441 4.66671C 5.82405 4.17336 6 3.59334 6 3C 6 2.20435 5.68393 1.44129 5.12132 0.878679C 4.55871 0.31607 3.79565 0 3 0Z" transform="translate(32 24)" fill="#F88453"/>
</g>
<g id="Vector_5">
<path d="M 7 2C 7.98891 2 8.95561 2.29324 9.77785 2.84265C 10.6001 3.39206 11.241 4.17295 11.6194 5.08658C 11.9978 6.00021 12.0969 7.00555 11.9039 7.97545C 11.711 8.94536 11.2348 9.83627 10.5355 10.5355C 9.83627 11.2348 8.94536 11.711 7.97545 11.9039C 7.00555 12.0969 6.00022 11.9978 5.08659 11.6194C 4.17296 11.241 3.39206 10.6001 2.84265 9.77785C 2.29325 8.95561 2 7.98891 2 7C 2 5.67392 2.52679 4.40215 3.46447 3.46447C 4.40215 2.52678 5.67392 2 7 2ZM 7 0C 5.61553 0 4.26216 0.410544 3.11101 1.17971C 1.95987 1.94888 1.06266 3.04213 0.532847 4.32122C 0.0030331 5.6003 -0.13559 7.00776 0.134506 8.36563C 0.404603 9.7235 1.07129 10.9708 2.05026 11.9497C 3.02922 12.9287 4.2765 13.5954 5.63437 13.8655C 6.99224 14.1356 8.3997 13.997 9.67879 13.4672C 10.9579 12.9373 12.0511 12.0401 12.8203 10.889C 13.5895 9.73785 14 8.38447 14 7C 14 5.14348 13.2625 3.36301 11.9497 2.05025C 10.637 0.737496 8.85652 0 7 0Z" transform="translate(0 46)" fill="#F88453"/>
</g>
<g id="Vector_6">
<path d="M 4 2C 4.39556 2 4.78224 2.1173 5.11114 2.33706C 5.44004 2.55682 5.69639 2.86918 5.84776 3.23463C 5.99914 3.60009 6.03874 4.00222 5.96157 4.39018C 5.8844 4.77814 5.69392 5.13451 5.41422 5.41421C 5.13451 5.69392 4.77815 5.8844 4.39018 5.96157C 4.00222 6.03874 3.60009 5.99913 3.23464 5.84776C 2.86918 5.69638 2.55682 5.44004 2.33706 5.11114C 2.1173 4.78224 2 4.39556 2 4C 2 3.46957 2.21071 2.96086 2.58579 2.58579C 2.96086 2.21071 3.46957 2 4 2ZM 4 0C 3.20888 0 2.43552 0.234596 1.77772 0.674122C 1.11992 1.11365 0.607234 1.73836 0.304483 2.46927C 0.00173277 3.20017 -0.0774806 4.00444 0.0768603 4.78036C 0.231201 5.55629 0.612165 6.26902 1.17158 6.82843C 1.73099 7.38784 2.44372 7.7688 3.21964 7.92314C 3.99556 8.07748 4.79983 7.99827 5.53074 7.69552C 6.26164 7.39277 6.88635 6.88008 7.32588 6.22228C 7.76541 5.56448 8 4.79113 8 4C 8 2.93913 7.57857 1.92172 6.82843 1.17157C 6.07828 0.421427 5.06087 0 4 0Z" transform="translate(32 7)" fill="#F88453"/>
</g>
<g id="Vector_7">
<path d="M 3 2C 3.19778 2 3.39112 2.05865 3.55557 2.16853C 3.72002 2.27841 3.84819 2.43459 3.92388 2.61732C 3.99957 2.80004 4.01937 3.00111 3.98079 3.19509C 3.9422 3.38907 3.84696 3.56725 3.70711 3.70711C 3.56726 3.84696 3.38907 3.9422 3.19509 3.98079C 3.00111 4.01937 2.80004 3.99957 2.61732 3.92388C 2.43459 3.84819 2.27841 3.72002 2.16853 3.55557C 2.05865 3.39112 2 3.19778 2 3C 2 2.73478 2.10536 2.48043 2.29289 2.29289C 2.48043 2.10536 2.73478 2 3 2ZM 3 0C 2.40666 0 1.82664 0.175947 1.33329 0.505591C 0.839944 0.835235 0.455427 1.30377 0.228364 1.85195C 0.0013015 2.40013 -0.0581104 3.00333 0.0576452 3.58527C 0.173401 4.16721 0.459125 4.70176 0.878683 5.12132C 1.29824 5.54088 1.83279 5.8266 2.41473 5.94236C 2.99667 6.05811 3.59987 5.9987 4.14805 5.77164C 4.69623 5.54458 5.16476 5.16006 5.49441 4.66671C 5.82405 4.17336 6 3.59334 6 3C 6 2.20435 5.68393 1.44129 5.12132 0.87868C 4.55871 0.316071 3.79565 0 3 0Z" transform="translate(38 0)" fill="#F88453"/>
</g>
<g id="Vector_8">
<path d="M 3 2C 3.19778 2 3.39112 2.05865 3.55557 2.16853C 3.72002 2.27841 3.84819 2.43459 3.92388 2.61732C 3.99957 2.80004 4.01937 3.00111 3.98079 3.19509C 3.9422 3.38907 3.84696 3.56726 3.70711 3.70711C 3.56726 3.84696 3.38907 3.9422 3.19509 3.98079C 3.00111 4.01937 2.80004 3.99957 2.61732 3.92388C 2.43459 3.84819 2.27841 3.72002 2.16853 3.55557C 2.05865 3.39112 2 3.19778 2 3C 2 2.73478 2.10536 2.48043 2.29289 2.29289C 2.48043 2.10536 2.73478 2 3 2ZM 3 0C 2.40666 0 1.82664 0.175946 1.33329 0.50559C 0.839944 0.835235 0.455425 1.30377 0.228362 1.85195C 0.00129959 2.40013 -0.0581104 3.00333 0.0576452 3.58527C 0.173401 4.16721 0.459123 4.70176 0.878681 5.12132C 1.29824 5.54088 1.83279 5.8266 2.41473 5.94236C 2.99667 6.05811 3.59987 5.9987 4.14805 5.77164C 4.69623 5.54458 5.16477 5.16006 5.49441 4.66671C 5.82406 4.17336 6 3.59334 6 3C 6 2.20435 5.68393 1.44129 5.12132 0.878679C 4.55871 0.31607 3.79565 0 3 0Z" transform="translate(22 24)" fill="#F88453"/>
</g>
<g id="Vector_9">
<path d="M 2.42735 11.4608C 3.04828 11.7715 3.73304 11.9332 4.42735 11.9332C 5.12165 11.9332 5.80641 11.7715 6.42735 11.4608L 6.42735 11.4608C 8.21735 10.7408 9.15735 8.0908 8.77735 6.2008L 7.57735 0.200799C 7.56705 0.149494 7.54091 0.102713 7.50261 0.0670502C 7.46432 0.031387 7.4158 0.00863897 7.36389 0.00201246C 7.31199 -0.00461405 7.25931 0.00521548 7.21328 0.0301144C 7.16726 0.0550133 7.1302 0.0937269 7.10735 0.1408L 5.32735 3.7008C 5.24441 3.86721 5.11672 4.0072 4.95862 4.10505C 4.80052 4.2029 4.61828 4.25473 4.43235 4.25473C 4.24642 4.25473 4.06417 4.2029 3.90607 4.10505C 3.74797 4.0072 3.62028 3.86721 3.53735 3.7008L 1.75735 0.1408C 1.73449 0.0937269 1.69744 0.0550133 1.65141 0.0301144C 1.60539 0.00521548 1.55271 -0.00461405 1.5008 0.00201246C 1.44889 0.00863897 1.40037 0.031387 1.36208 0.0670502C 1.32378 0.102713 1.29765 0.149494 1.28735 0.200799L 0.0873468 6.2008C -0.302653 8.0908 0.637347 10.7408 2.42735 11.4608Z" stroke-width="2" stroke-miterlimit="10" transform="translate(42.5742 10.5391)" stroke="#F88453"/>
</g>
<g id="Vector_10">
<path d="M 4 0C 4 0.795649 3.68393 1.55871 3.12132 2.12132C 2.55871 2.68393 1.79565 3 1 3L 0 3" stroke-width="2" stroke-miterlimit="10" transform="translate(43 23)" stroke="#F88453"/>
</g>
<g id="Vector_11">
<path d="M 0 4L 5 4C 5.79565 4 6.55871 3.68393 7.12132 3.12132C 7.68393 2.55871 8 1.79565 8 1L 8 0" stroke-width="2" stroke-miterlimit="10" transform="translate(44 26)" stroke="#F88453"/>
</g>
<g id="Vector_12">
<path d="M 0 0L 5 0C 5.79565 0 6.55871 0.316072 7.12132 0.878681C 7.68393 1.44129 8 2.20435 8 3L 8 4" stroke-width="2" stroke-miterlimit="10" transform="translate(44 36)" stroke="#F88453"/>
</g>
<g id="Vector_13">
<path d="M 6.4335 11.4608C 5.81257 11.7715 5.12781 11.9332 4.4335 11.9332C 3.7392 11.9332 3.05444 11.7715 2.4335 11.4608L 2.4335 11.4608C 0.643504 10.7408 -0.296496 8.0908 0.0835035 6.2008L 1.2835 0.200799C 1.2938 0.149494 1.31994 0.102713 1.35824 0.0670502C 1.39653 0.031387 1.44505 0.00863897 1.49696 0.00201246C 1.54886 -0.00461405 1.60154 0.00521548 1.64757 0.0301144C 1.69359 0.0550133 1.73065 0.0937269 1.7535 0.1408L 3.5335 3.7008C 3.61644 3.86721 3.74413 4.0072 3.90223 4.10505C 4.06033 4.2029 4.24257 4.25473 4.4285 4.25473C 4.61443 4.25473 4.79668 4.2029 4.95478 4.10505C 5.11288 4.0072 5.24057 3.86721 5.3235 3.7008L 7.1035 0.1408C 7.12636 0.0937269 7.16341 0.0550133 7.20944 0.0301144C 7.25547 0.00521548 7.30814 -0.00461405 7.36005 0.00201246C 7.41196 0.00863897 7.46048 0.031387 7.49877 0.0670502C 7.53707 0.102713 7.5632 0.149494 7.5735 0.200799L 8.7735 6.2008C 9.1635 8.0908 8.2235 10.7408 6.4335 11.4608Z" stroke-width="2" stroke-miterlimit="10" transform="translate(8.56641 10.5391)" stroke="#F88453"/>
</g>
<g id="Vector_14">
<path d="M 0 0C 0 0.795649 0.31607 1.55871 0.878679 2.12132C 1.44129 2.68393 2.20435 3 3 3L 4 3" stroke-width="2" stroke-miterlimit="10" transform="translate(13 23)" stroke="#F88453"/>
</g>
<g id="Vector_15">
<path d="M 8 4L 3 4C 2.20435 4 1.44129 3.68393 0.878679 3.12132C 0.31607 2.55871 0 1.79565 0 1L 0 0" stroke-width="2" stroke-miterlimit="10" transform="translate(8 26)" stroke="#F88453"/>
</g>
<g id="Vector_16">
<path d="M 8 0L 3 0C 2.20435 0 1.44129 0.316072 0.878679 0.878681C 0.31607 1.44129 0 2.20435 0 3L 0 4" stroke-width="2" stroke-miterlimit="10" transform="translate(8 36)" stroke="#F88453"/>
</g>
<g id="Vector_17">
<path d="M 0 0L 24 0" stroke-width="2" stroke-miterlimit="10" transform="translate(32 47)" stroke="#F88453"/>
</g>
<g id="Vector_18">
<path d="M 0 0L 14 0" stroke-width="2" stroke-miterlimit="10" transform="translate(10 6)" stroke="#F88453"/>
</g>
<g id="Vector_19">
<path d="M 0 0L 4 0" stroke-width="2" stroke-miterlimit="10" transform="translate(4 6)" stroke="#F88453"/>
</g>
<g id="Vector_20">
<path d="M 0 0L 4 0" stroke-width="2" stroke-miterlimit="10" transform="translate(52 6)" stroke="#F88453"/>
</g>
<g id="Vector_21">
<path d="M 0 0L 24 0" stroke-width="2" stroke-miterlimit="10" transform="translate(32 51)" stroke="#F88453"/>
</g>
<g id="Vector_22">
<path d="M 0 0L 4 0" stroke-width="2" stroke-miterlimit="10" transform="translate(52 55)" stroke="#F88453"/>
</g>
<g id="Vector_23">
<path d="M 0 0L 4 0" stroke-width="2" stroke-miterlimit="10" transform="translate(32 55)" stroke="#F88453"/>
</g>
<g id="Vector_24">
<path d="M 5 3C 5 2.20435 4.68393 1.44129 4.12132 0.878681C 3.55871 0.316072 2.79565 0 2 0L 0 0" stroke-width="2" stroke-miterlimit="10" transform="translate(41 40)" stroke="#F88453"/>
</g>
<g id="Vector_25">
<path d="M 0 3C 0 2.20435 0.31607 1.44129 0.878679 0.878681C 1.44129 0.316072 2.20435 0 3 0L 5 0" stroke-width="2" stroke-miterlimit="10" transform="translate(14 40)" stroke="#F88453"/>
</g>
<g id="Vector_26">
<path d="M 5 18L 10 18L 10 0L 0 0L 0 7" stroke-width="2" stroke-miterlimit="10" transform="translate(49 1)" stroke="#F88453"/>
</g>
<g id="Vector_27">
<path d="M 10 0L 10 5L 0 5" stroke-width="2" stroke-miterlimit="10" transform="translate(15 45)" stroke="#F88453"/>
</g>
<g id="Vector_28">
<path d="M 4 0L 0 0L 0 19" stroke-width="2" stroke-miterlimit="10" transform="translate(1 27)" stroke="#F88453"/>
</g>
</g>
</g>
</svg>

