<svg width="61" height="61" viewBox="0 0 61 61" version="1.1" xmlns="http://www.w3.org/2000/svg" xmlns:xlink="http://www.w3.org/1999/xlink">
<g id="Canvas" fill="none">
<g id="&#208;&#159;&#209;&#128;&#208;&#190;&#208;&#180;&#208;&#176;&#208;&#182;&#208;&#184;">
<g id="&#208;&#156;&#208;&#190;&#208;&#189;&#209;&#130;&#208;&#176;&#208;&#182;&#208;&#189;&#208;&#176;&#209;&#143; &#208;&#190;&#208;&#177;&#208;&#187;&#208;&#176;&#209;&#129;&#209;&#130;&#209;&#140; 3 &#208;&#186;&#208;&#190;&#208;&#191;&#208;&#184;&#209;&#143; 10">
<g id="Vector">
<path d="M -5.34058e-07 39.14C 3.32398 40.4548 6.86544 41.1332 10.44 41.14C 18.1313 41.14 25.5075 38.0847 30.9461 32.6461C 36.3847 27.2075 39.44 19.8313 39.44 12.14C 39.4237 7.94185 38.4884 3.79818 36.7 6.10352e-07M 4.67 33.32C 7.92875 34.2057 11.3477 34.3293 14.6619 33.6813C 17.9761 33.0332 21.0966 31.6309 23.7817 29.583C 26.4669 27.5351 28.6445 24.8965 30.1459 21.8717C 31.6474 18.8468 32.4323 15.517 32.44 12.14C 32.4254 9.03141 31.7433 5.96221 30.44 3.14" stroke-width="2" stroke-miterlimit="10" transform="translate(19.5586 18.3721)" stroke="#F88453"/>
</g>
<g id="Vector_2">
<path d="M 41.19 2.68644C 36.7714 0.639481 31.9085 -0.261826 27.0498 0.065655C 22.1911 0.393136 17.4931 1.93886 13.3892 4.56025C 9.28522 7.18163 5.90747 10.7943 3.56747 15.0649C 1.22748 19.3356 0.00059925 24.1267 0 28.9964C 0.0067578 32.571 0.685198 36.1125 2 39.4364M 38 8.99644C 35.1778 7.69311 32.1086 7.01107 29 6.99644C 25.6188 6.99642 22.2831 7.77574 19.252 9.2739C 16.2208 10.7721 13.5757 12.9487 11.5222 15.6349C 9.46866 18.321 8.0619 21.4443 7.41116 24.7623C 6.76041 28.0803 6.88321 31.5036 7.77 34.7664" stroke-width="2" stroke-miterlimit="10" transform="translate(1 1.51562)" stroke="#F88453"/>
</g>
<g id="Vector_3">
<path d="M 9.78 8.15L 0 0" stroke-width="2" stroke-miterlimit="10" transform="translate(18 20.5127)" stroke="#F88453"/>
</g>
<g id="Vector_4">
<path d="M 23.9996 12C 24.003 13.4452 23.742 14.8788 23.2296 16.23C 22.5223 18.1076 21.3555 19.7778 19.836 21.0879C 18.3165 22.398 16.4927 23.3063 14.5316 23.7295C 12.5704 24.1528 10.5344 24.0776 8.60977 23.5108C 6.68517 22.9439 4.93341 21.9036 3.51472 20.4849C 2.09603 19.0662 1.05569 17.3144 0.48886 15.3898C -0.0779676 13.4652 -0.15319 11.4292 0.270072 9.46806C 0.693334 7.50688 1.60157 5.68313 2.91171 4.16361C 4.22184 2.6441 5.89206 1.47734 7.76959 0.770034C 9.12084 0.25758 10.5544 -0.00338123 11.9996 3.30743e-05C 15.1822 3.30743e-05 18.2344 1.26431 20.4849 3.51475C 22.7353 5.76519 23.9996 8.81744 23.9996 12Z" stroke-width="2" stroke-miterlimit="10" transform="translate(1 35.5127)" stroke="#F88453"/>
</g>
<g id="Vector_5">
<path d="M 20 10.5125C 20.0125 13.0002 19.0973 15.4032 17.4331 17.2523C 15.7689 19.1013 13.4752 20.2638 11 20.5125C 10.66 20.5125 10.31 20.5125 10 20.5125C 7.34784 20.5125 4.8043 19.4589 2.92893 17.5836C 1.05357 15.7082 0 13.1647 0 10.5125C 0 10.1525 0 9.80249 0 9.51249C 0.132608 6.86033 1.31335 4.36947 3.28249 2.58787C 4.2575 1.70572 5.39672 1.02424 6.63511 0.582356C 7.87349 0.140471 9.18678 -0.0531683 10.5 0.0124927C 11.8132 0.0781536 13.1006 0.401829 14.2888 0.965039C 15.4769 1.52825 16.5425 2.31996 17.4246 3.29498C 18.3068 4.26999 18.9883 5.40921 19.4301 6.6476C 19.872 7.88598 20.0657 9.19927 20 10.5125Z" stroke-width="2" stroke-miterlimit="10" transform="translate(39 1)" stroke="#F88453"/>
</g>
<g id="Vector_6">
<path d="M 8.51 13.62L 1.67847e-06 1.06812e-06" stroke-width="2" stroke-miterlimit="10" transform="translate(31.4883 32.8926)" stroke="#F88453"/>
</g>
<g id="Vector_7">
<path d="M 6 3C 6 4.65685 4.65685 6 3 6C 1.34315 6 0 4.65685 0 3C 0 1.34315 1.34315 0 3 0C 4.65685 0 6 1.34315 6 3Z" stroke-width="2" stroke-miterlimit="10" transform="translate(27 27.5127)" stroke="#F88453"/>
</g>
<g id="Vector_8">
<path d="M 0 0L 0 6" stroke-width="2" stroke-miterlimit="10" transform="translate(30 11.5127)" stroke="#F88453"/>
</g>
<g id="Vector_9">
<path d="M 6 0L 0 0" stroke-width="2" stroke-miterlimit="10" transform="translate(43 30.5127)" stroke="#F88453"/>
</g>
<g id="Vector_10">
<path d="M 0 0L 6 0" stroke-width="2" stroke-miterlimit="10" transform="translate(11 30.5127)" stroke="#F88453"/>
</g>
<g id="Vector_11">
<path d="M 0 5L 0 0" stroke-width="2" stroke-miterlimit="10" transform="translate(30 44.5127)" stroke="#F88453"/>
</g>
<g id="Vector_12">
<path d="M 6 3L 6 2C 6 2 6 0 3 0C 0 0 0 2 0 2C 0 4 3 5 3 5C 3 5 6 6 6 8C 6 8 6 10 3 10C 0 10 0 8 0 8L 0 7" stroke-width="2" stroke-miterlimit="10" transform="translate(46 6.5127)" stroke="#F88453"/>
</g>
<g id="Vector_13">
<path d="M 0 2L 0 0" stroke-width="2" stroke-miterlimit="10" transform="translate(49 16.5127)" stroke="#F88453"/>
</g>
<g id="Vector_14">
<path d="M 0 0L 0 2" stroke-width="2" stroke-miterlimit="10" transform="translate(49 4.5127)" stroke="#F88453"/>
</g>
<g id="Vector_15">
<path d="M 6 9.30335L 0 9.30335C 0 9.30335 7.43 3.35335 4.17 0.523348C 3.26 -0.266652 0 -0.696653 0 3.30335" stroke-width="2" stroke-linejoin="bevel" transform="translate(6 43.209)" stroke="#F88453"/>
</g>
<g id="Vector_16">
<path d="M 0 6L 0 0" stroke-width="2" stroke-linejoin="round" transform="translate(19 47.5127)" stroke="#F88453"/>
</g>
<g id="Vector_17">
<path d="M 7 7.5L 0 7.5L 4.5 0" stroke-width="2" stroke-linejoin="round" transform="translate(14 43.0127)" stroke="#F88453"/>
</g>
</g>
</g>
</g>
</svg>

