<svg width="61" height="60" viewBox="0 0 61 60" version="1.1" xmlns="http://www.w3.org/2000/svg" xmlns:xlink="http://www.w3.org/1999/xlink">
<g id="Canvas" fill="none">
<g id="&#208;&#166;&#208;&#181;&#208;&#189;&#209;&#139;">
<g id="Vector">
<path d="M 15.0203 10.87L 3.44025 19.87C 1.91333 21.0574 0.814309 22.7095 0.309181 24.5767C -0.195947 26.4439 -0.0797405 28.4247 0.640249 30.22L 0.640249 30.22C 1.0836 31.3332 1.85013 32.2882 2.84107 32.9619C 3.83202 33.6356 5.00199 33.9972 6.20025 34L 30.0802 34C 31.2791 34 32.4504 33.6408 33.4432 32.9688C 34.436 32.2969 35.2047 31.3429 35.6502 30.23L 35.6502 30.23C 36.3702 28.4347 36.4864 26.4539 35.9813 24.5867C 35.4762 22.7195 34.3772 21.0674 32.8502 19.88L 21.3702 11C 21.2415 10.8968 21.1403 10.7633 21.0756 10.6114C 21.011 10.4596 20.9849 10.2941 20.9998 10.1297C 21.0146 9.96538 21.0699 9.80724 21.1607 9.66945C 21.2516 9.53165 21.3751 9.41847 21.5203 9.34C 23.5503 8.13 26.1402 5 26.1402 2C 26.1402 0 24.1402 0 23.1402 0C 22.1277 0.124262 21.1692 0.525678 20.3702 1.16C 19.7139 1.61062 18.9364 1.85182 18.1402 1.85182C 17.3441 1.85182 16.5666 1.61062 15.9102 1.16C 15.1113 0.525678 14.1528 0.124262 13.1402 0C 12.1402 0 10.1402 0 10.1402 2C 10.1402 5 12.9702 7.92 14.9602 9.26C 15.0899 9.34815 15.1971 9.46557 15.2731 9.60277C 15.349 9.73997 15.3916 9.89311 15.3975 10.0498C 15.4033 10.2065 15.3722 10.3624 15.3067 10.5049C 15.2411 10.6474 15.143 10.7724 15.0203 10.87Z" stroke-width="2" stroke-miterlimit="10" transform="translate(22.8594 25)" stroke="#F88453"/>
</g>
<g id="Vector_2">
<path d="M 6 24L 0 24L 0 0L 28 0L 28 8" stroke-width="2" stroke-miterlimit="10" transform="translate(1 31)" stroke="#F88453"/>
</g>
<g id="Vector_3">
<path d="M 0 0L 28 0L 28 14L 0 14L 0 0Z" stroke-width="2" stroke-miterlimit="10" transform="translate(1 7)" stroke="#F88453"/>
</g>
<g id="Vector_4">
<path d="M 15 0L 0 0L 0 16L 8 16" stroke-width="2" stroke-miterlimit="10" transform="translate(7 43)" stroke="#F88453"/>
</g>
<g id="Vector_5">
<path d="M 0 0L 10 0" stroke-width="2" stroke-miterlimit="10" transform="translate(19 59)" stroke="#F88453"/>
</g>
<g id="Vector_6">
<path d="M 0 0L 12 0L 12 4L 0 4L 0 0Z" stroke-width="2" stroke-miterlimit="10" transform="translate(9 24)" stroke="#F88453"/>
</g>
<g id="Vector_7">
<path d="M 3 4L 0 4L 0 0L 3 0" stroke-width="2" stroke-miterlimit="10" transform="translate(27 24)" stroke="#F88453"/>
</g>
<g id="Vector_8">
<path d="M 0 4L 3 4L 3 0L 0 0" stroke-width="2" stroke-miterlimit="10" transform="translate(0 24)" stroke="#F88453"/>
</g>
<g id="Vector_9">
<path d="M 0 0L 9 0" stroke-width="2" stroke-miterlimit="10" transform="translate(10 53)" stroke="#F88453"/>
</g>
<g id="Vector_10">
<path d="M 3 2C 3.19778 2 3.39112 2.05865 3.55557 2.16853C 3.72002 2.27841 3.84819 2.43459 3.92388 2.61732C 3.99957 2.80004 4.01937 3.00111 3.98079 3.19509C 3.9422 3.38907 3.84696 3.56726 3.70711 3.70711C 3.56726 3.84696 3.38907 3.9422 3.19509 3.98079C 3.00111 4.01937 2.80004 3.99957 2.61732 3.92388C 2.43459 3.84819 2.27841 3.72002 2.16853 3.55557C 2.05865 3.39112 2 3.19778 2 3C 2 2.73478 2.10536 2.48043 2.29289 2.29289C 2.48043 2.10536 2.73478 2 3 2ZM 3 0C 2.40666 0 1.82664 0.175948 1.33329 0.505592C 0.839943 0.835237 0.455425 1.30377 0.228362 1.85195C 0.00129959 2.40013 -0.0581104 3.00333 0.0576452 3.58527C 0.173401 4.16721 0.459123 4.70176 0.878681 5.12132C 1.29824 5.54088 1.83279 5.8266 2.41473 5.94236C 2.99667 6.05811 3.59987 5.9987 4.14805 5.77164C 4.69623 5.54457 5.16477 5.16006 5.49441 4.66671C 5.82406 4.17336 6 3.59334 6 3C 6 2.20435 5.68393 1.44129 5.12132 0.878681C 4.55871 0.316072 3.79565 0 3 0Z" transform="translate(12 34)" fill="#F88453"/>
</g>
<g id="Vector_11">
<path d="M 3 2C 3.19778 2 3.39112 2.05865 3.55557 2.16853C 3.72002 2.27841 3.84819 2.43459 3.92388 2.61732C 3.99957 2.80004 4.01937 3.00111 3.98079 3.19509C 3.9422 3.38907 3.84696 3.56725 3.70711 3.70711C 3.56726 3.84696 3.38907 3.9422 3.19509 3.98079C 3.00111 4.01937 2.80004 3.99957 2.61732 3.92388C 2.43459 3.84819 2.27841 3.72002 2.16853 3.55557C 2.05865 3.39112 2 3.19778 2 3C 2 2.73478 2.10536 2.48043 2.29289 2.29289C 2.48043 2.10536 2.73478 2 3 2ZM 3 0C 2.40666 0 1.82664 0.175947 1.33329 0.505591C 0.839944 0.835236 0.455427 1.30377 0.228364 1.85195C 0.0013015 2.40013 -0.0581104 3.00333 0.0576452 3.58527C 0.173401 4.16721 0.459125 4.70176 0.878683 5.12132C 1.29824 5.54088 1.83279 5.8266 2.41473 5.94236C 2.99667 6.05811 3.59987 5.9987 4.14805 5.77164C 4.69623 5.54458 5.16476 5.16006 5.49441 4.66671C 5.82405 4.17336 6 3.59334 6 3C 6 2.20435 5.68393 1.44129 5.12132 0.878679C 4.55871 0.31607 3.79565 0 3 0Z" transform="translate(40 6)" fill="#F88453"/>
</g>
<g id="Vector_12">
<path d="M 0 0L 0 5" stroke-width="2" stroke-miterlimit="10" transform="translate(41 41)" stroke="#F88453"/>
</g>
<g id="Vector_13">
<path d="M 0 0L 4 4" stroke-width="2" stroke-miterlimit="10" transform="translate(45 41)" stroke="#F88453"/>
</g>
<g id="Vector_14">
<path d="M 4 0L 0 4" stroke-width="2" stroke-miterlimit="10" transform="translate(33 41)" stroke="#F88453"/>
</g>
<g id="Vector_15">
<path d="M 24 0L 24 16L 5 16L 0 8L 5 0L 24 0Z" stroke-width="2" stroke-miterlimit="10" transform="translate(35 1)" stroke="#F88453"/>
</g>
<g id="Vector_16">
<path d="M 8 0L 0 0" stroke-width="2" stroke-miterlimit="10" transform="translate(48 7)" stroke="#F88453"/>
</g>
<g id="Vector_17">
<path d="M 8 0L 0 0" stroke-width="2" stroke-miterlimit="10" transform="translate(48 11)" stroke="#F88453"/>
</g>
<g id="Vector_18">
<path d="M 10 2C 8.20103 0.837246 6.13683 0.149177 4 0C 0 0 0 3 0 3" stroke-width="2" stroke-miterlimit="10" transform="translate(26 2)" stroke="#F88453"/>
</g>
<g id="Vector_19">
<path d="M 0 0L 6 0L 6 13" stroke-width="2" stroke-miterlimit="10" transform="translate(53 28)" stroke="#F88453"/>
</g>
<g id="Vector_20">
<path d="M 0 0L 7 0" stroke-width="2" stroke-miterlimit="10" transform="translate(49 35)" stroke="#F88453"/>
</g>
<g id="Vector_21">
<path d="M 0 -1.83105e-06L 2 -1.83105e-06" stroke-width="2" stroke-miterlimit="10" transform="translate(54 39.1699)" stroke="#F88453"/>
</g>
</g>
</g>
</svg>

