<svg width="10" height="10" viewBox="0 0 10 10" version="1.1" xmlns="http://www.w3.org/2000/svg" xmlns:xlink="http://www.w3.org/1999/xlink">
<g id="Canvas" fill="none">
<g id="Vector">
<path d="M 3.58819 7.78463C 6.33378 10.5302 7.63341 10.6034 9.56969 8.66716C 9.90515 8.32779 10.1722 7.70076 9.86385 7.39241C 9.42131 6.94984 8.41614 6.12922 8.00076 5.92154C 7.5854 5.71386 7.0923 6.24164 6.82405 6.5099C 6.13769 7.19631 6.03097 7.67801 4.6668 6.31378L 3.6862 5.33318C 2.32198 3.96901 2.80371 3.86232 3.49009 3.17593C 3.75834 2.90768 4.28605 2.41449 4.07846 1.99925C 3.87078 1.58386 3.05016 0.578698 2.60756 0.136129C 2.29923 -0.172228 1.67143 0.0941157 1.33284 0.430321C -0.603446 2.36661 -0.530281 3.6662 2.21536 6.41185L 3.58819 7.78463Z" fill="white"/>
</g>
</g>
</svg>

