<svg width="35" height="35" viewBox="0 0 35 35" fill="none" xmlns="http://www.w3.org/2000/svg">
<path d="M33.4772 12.2104L23.8388 11.299C23.2312 11.2437 22.7062 10.8571 22.4579 10.2771L19.0056 1.90894C18.4533 0.528054 16.4921 0.528054 15.9398 1.90894L12.5151 10.2771C12.2942 10.8571 11.7418 11.2437 11.1342 11.299L1.49555 12.2104C0.0594143 12.3485 -0.520564 14.1436 0.556538 15.1102L7.82007 21.4899C8.28958 21.9042 8.4829 22.5118 8.34481 23.1194L6.16299 32.0673C5.83158 33.4761 7.35056 34.6357 8.62099 33.8903L16.6578 29.1674C17.1826 28.8636 17.8178 28.8636 18.3425 29.1674L26.3796 33.8903C27.6501 34.6357 29.1691 33.5037 28.8374 32.0673L26.6832 23.1194C26.5451 22.5118 26.7384 21.9042 27.2079 21.4899L34.4714 15.1102C35.5209 14.1436 34.9133 12.3485 33.4772 12.2104Z" fill="white"/>
</svg>
