<svg width="91" height="78" viewBox="0 0 91 78" fill="none" xmlns="http://www.w3.org/2000/svg">
<circle opacity="0.5" cx="25" cy="53" r="25" fill="#FF7800"/>
<path d="M84.6917 15.8064H79.017V18.0645H84.6917C86.5687 18.0645 88.0966 19.5844 88.0966 21.4516V51.9354H22.2699V21.4516C22.2699 19.5844 23.7977 18.0645 25.6747 18.0645H31.3494V15.8064H25.6747C22.5459 15.8064 20 18.339 20 21.4516V57.5806C20 60.6931 22.5459 63.2257 25.6747 63.2257H40.429V67.7418H35.8892V69.9999H74.4772V67.7418H69.9375V63.2257H84.6917C87.8206 63.2257 90.3664 60.6931 90.3664 57.5806V21.4516C90.3664 18.339 87.8206 15.8064 84.6917 15.8064ZM67.6676 67.7418H42.6989V63.2257H67.6676V67.7418ZM84.6917 60.9677H25.6747C23.7977 60.9677 22.2699 59.4478 22.2699 57.5806V54.1935H88.0966V57.5806C88.0966 59.4478 86.5687 60.9677 84.6917 60.9677Z" fill="#232323"/>
<path d="M74.4772 56.4517H76.7471V58.7097H74.4772V56.4517Z" fill="#232323"/>
<path d="M79.017 56.4517H81.2869V58.7097H79.017V56.4517Z" fill="#232323"/>
<path d="M83.5568 56.4517H85.8267V58.7097H83.5568V56.4517Z" fill="#232323"/>
<path d="M69.9375 47.4194H85.8267V49.6775H69.9375V47.4194Z" fill="#232323"/>
<path d="M69.9375 42.9031H85.8267V45.1611H69.9375V42.9031Z" fill="#232323"/>
<path d="M72.2074 38.387H85.8267V40.645H72.2074V38.387Z" fill="#232323"/>
<path d="M76.7471 33.8711H85.8267V36.1292H76.7471V33.8711Z" fill="#232323"/>
<path d="M33.6193 17.1885V20.3226H24.5398V49.6774H47.2386V37.6632C48.0682 38.0651 48.9239 38.4196 49.8139 38.693L50.8978 42.9032H59.4697L60.5537 38.693C61.626 38.3634 62.6623 37.9378 63.6465 37.4229L67.4021 39.6357L73.4637 33.6069L71.2381 29.8697C71.7568 28.8917 72.1846 27.8608 72.516 26.7941L76.7471 25.7147V17.1874L72.5149 16.1091C72.1835 15.0424 71.7557 14.0115 71.237 13.0335L73.4626 9.29632L67.401 3.26747L63.6454 5.48032C62.6623 4.96432 61.626 4.53983 60.5526 4.21016L59.4686 0H50.8967L49.8127 4.21016C48.7404 4.53983 47.7041 4.96542 46.7199 5.48032L42.9643 3.26747L36.9028 9.29632L39.1283 13.0335C38.6096 14.0115 38.1818 15.0424 37.8504 16.1091L33.6193 17.1885ZM26.8097 47.4193V22.5806H33.6193V25.7147L37.8515 26.793C38.1829 27.8597 38.6107 28.8906 39.1294 29.8686L36.9039 33.6058L42.9654 39.6346L44.9687 38.4549V47.4193H26.8097ZM39.6858 17.9741L39.8582 17.3374C40.2167 16.0121 40.7421 14.7474 41.4198 13.5765L41.7512 13.0054L39.7545 9.6541L43.3251 6.10328L46.6939 8.08845L47.2691 7.75878C48.4439 7.08456 49.7152 6.56194 51.0474 6.20526L51.6875 6.03381L52.659 2.25806H57.7064L58.6778 6.03492L59.3179 6.20637C60.6501 6.56305 61.9214 7.08567 63.0962 7.75989L63.6715 8.08955L67.0397 6.10493L70.6102 9.6552L68.6141 13.0065L68.9455 13.5776C69.6233 14.7474 70.1486 16.0132 70.5072 17.3385L70.6795 17.9752L74.4772 18.9405V23.9616L70.6806 24.928L70.5083 25.5647C70.1497 26.89 69.6244 28.1547 68.9466 29.3256L68.6152 29.8967L70.6119 33.248L67.0414 36.7983L63.6726 34.8136L63.0973 35.1433C61.9225 35.8175 60.6512 36.3402 59.319 36.6968L58.6789 36.8683L57.7075 40.6451H52.6601L51.6886 36.8683L51.0486 36.6968C49.7163 36.3402 48.4451 35.8175 47.2702 35.1433L46.695 34.8136L43.3267 36.7983L39.7562 33.248L41.7523 29.8967L41.4209 29.3256C40.7432 28.1558 40.2178 26.89 39.8593 25.5647L39.6869 24.928L35.8892 23.9627V18.9416L39.6858 17.9741Z" fill="#232323"/>
<path d="M55.1832 34.9998C62.6934 34.9998 68.8025 28.9225 68.8025 21.4515C68.8025 13.9804 62.6934 7.90308 55.1832 7.90308C47.6731 7.90308 41.5639 13.9804 41.5639 21.4515C41.5639 28.9225 47.6731 34.9998 55.1832 34.9998ZM55.1832 10.1611C61.4415 10.1611 66.5326 15.2258 66.5326 21.4515C66.5326 27.6771 61.4415 32.7418 55.1832 32.7418C48.925 32.7418 43.8338 27.6771 43.8338 21.4515C43.8338 15.2258 48.925 10.1611 55.1832 10.1611Z" fill="#232323"/>
<path d="M55.1832 30.4839C60.1896 30.4839 64.2628 26.432 64.2628 21.4517C64.2628 16.4714 60.1896 12.4194 55.1832 12.4194C50.1768 12.4194 46.1037 16.4714 46.1037 21.4517C46.1037 26.432 50.1768 30.4839 55.1832 30.4839ZM55.1832 14.6775C58.9388 14.6775 61.9929 17.7156 61.9929 21.4517C61.9929 25.1877 58.9388 28.2259 55.1832 28.2259C51.4276 28.2259 48.3736 25.1877 48.3736 21.4517C48.3736 17.7156 51.4276 14.6775 55.1832 14.6775Z" fill="#232323"/>
<path d="M51.7784 20.3225H54.0483V22.5806H51.7784V20.3225Z" fill="#232323"/>
<path d="M56.3182 20.3225H58.5881V22.5806H56.3182V20.3225Z" fill="#232323"/>
<path d="M29.0795 24.8386H31.3494V27.0967H29.0795V24.8386Z" fill="#232323"/>
<path d="M29.0795 29.3547H33.6193V31.6128H29.0795V29.3547Z" fill="#232323"/>
<path d="M29.0795 33.8711H33.6193V36.1292H29.0795V33.8711Z" fill="#232323"/>
<path d="M29.0795 38.387H38.1591V40.645H29.0795V38.387Z" fill="#232323"/>
<path d="M29.0795 42.9031H42.6989V45.1611H29.0795V42.9031Z" fill="#232323"/>
</svg>
