<svg width="105" height="78" viewBox="0 0 105 78" fill="none" xmlns="http://www.w3.org/2000/svg">
<circle opacity="0.5" cx="25" cy="53" r="25" fill="#FF7800"/>
<path d="M103.985 19.337L85.6718 1.02312C85.0829 0.434052 84.1281 0.434052 83.5388 1.02312L74.382 10.18C74.0993 10.4627 73.9405 10.8463 73.9405 11.2463C73.9405 11.6464 74.0993 12.03 74.382 12.3127L75.2955 13.2262L73.1963 15.325C71.8336 16.6872 69.7191 17.059 67.9349 16.2491C66.2622 15.4898 64.4026 15.0887 62.5568 15.0887C60.3653 15.0887 58.2235 15.6389 56.3206 16.6809C55.527 16.4854 54.7125 16.3852 53.89 16.3852C52.7004 16.3852 51.5321 16.5905 50.4174 16.9957C48.6375 17.6423 46.7296 17.2415 45.4373 15.9496L41.6681 12.1803L42.117 11.7314C42.3997 11.4487 42.5585 11.065 42.5585 10.665C42.5585 10.265 42.3997 9.88139 42.117 9.59866L32.9602 0.441798C32.3709 -0.147266 31.4163 -0.147266 30.8272 0.441798L10.4417 20.8274C9.85278 21.4164 9.85278 22.3712 10.4417 22.9601L19.5983 32.117C19.8812 32.3999 20.2647 32.5587 20.6649 32.5587C21.0651 32.5587 21.4483 32.3999 21.7314 32.117L22.2775 31.5709L24.9359 34.2292C25.6066 34.9 26.0513 35.7375 26.2215 36.651C27.1042 41.3876 29.3727 45.6938 32.7816 49.1047L33.2824 49.6054C32.3207 50.6181 31.7918 51.9375 31.7918 53.3391C31.7918 54.7889 32.3565 56.152 33.3816 57.1773C34.4398 58.2355 35.8295 58.7645 37.2197 58.7645C37.3103 58.7645 37.4005 58.7621 37.491 58.7574C37.4176 60.2364 37.9443 61.7396 39.0712 62.8669C40.0964 63.8921 41.4595 64.4566 42.9093 64.4566C42.9497 64.4566 42.9899 64.4546 43.0303 64.4537C42.9993 65.8828 43.5266 67.3219 44.6147 68.4102C45.64 69.4356 47.0031 70 48.453 70C49.9028 70 51.2658 69.4353 52.2912 68.4102C52.3775 68.3239 52.4588 68.2347 52.5383 68.1443C53.0722 68.3304 53.637 68.4294 54.2078 68.4294C55.5639 68.4294 56.8379 67.901 57.7932 66.9426C58.3017 66.4343 58.6875 65.8363 58.9387 65.1851L59.0931 65.3395C60.0814 66.3279 61.3796 66.8221 62.6778 66.8221C63.976 66.8221 65.2742 66.3279 66.2625 65.3395C66.7878 64.8142 67.1825 64.194 67.4326 63.5177C68.3173 64.1612 69.3646 64.4834 70.4125 64.4834C71.7107 64.4834 73.0097 63.9893 73.9989 63.0013C74.9563 62.0439 75.4836 60.7703 75.4836 59.4151C75.4836 59.0057 75.4345 58.6042 75.341 58.216C76.3069 58.0197 77.1943 57.5456 77.9064 56.8326C78.8638 55.8752 79.3911 54.6021 79.3911 53.2478C79.3911 52.1809 79.0624 51.1653 78.4555 50.3136L79.6653 49.1037C83.1139 45.6535 85.3922 41.2932 86.254 36.4942C86.3984 35.6906 86.7964 34.9443 87.4054 34.3351L91.9051 29.8354L92.6961 30.6264C92.9906 30.921 93.3766 31.0681 93.7626 31.0681C94.1484 31.0681 94.5346 30.921 94.8292 30.6264L103.986 21.4696C104.269 21.1868 104.428 20.8032 104.428 20.4032C104.428 20.0032 104.268 19.6199 103.985 19.337ZM20.6649 28.9181L13.6408 21.8939L31.8934 3.64126L38.9177 10.6654L20.6649 28.9181ZM38.9249 55.0449C37.9849 55.9847 36.4551 55.9851 35.5143 55.0449C35.0588 54.5892 34.8079 53.9837 34.8079 53.3395C34.8079 52.6955 35.0589 52.0898 35.5145 51.6343C35.9846 51.1642 36.6019 50.929 37.2195 50.929C37.837 50.929 38.4548 51.1642 38.9248 51.6343C39.865 52.5745 39.865 54.1045 38.9249 55.0449ZM44.6142 60.7341C44.159 61.1899 43.5535 61.4405 42.909 61.4405C42.2649 61.4405 41.6593 61.1895 41.2039 60.7341C40.2635 59.7939 40.2635 58.2639 41.2039 57.3235C41.674 56.8534 42.2913 56.6183 42.9091 56.6183C43.5264 56.6183 44.1443 56.8534 44.6142 57.3235C45.5548 58.2637 45.5548 59.7939 44.6142 60.7341ZM50.1577 66.2775C49.7022 66.733 49.0967 66.9839 48.4527 66.9839C47.8085 66.9839 47.2028 66.7329 46.7475 66.2775C45.8071 65.3373 45.8071 63.8073 46.7475 62.8669C47.2176 62.3968 47.8348 62.1616 48.4527 62.1616C49.07 62.1616 49.6878 62.3968 50.1577 62.8669C51.0981 63.8073 51.0981 65.3373 50.1577 66.2775ZM75.7726 54.7006C75.3849 55.0886 74.8694 55.3024 74.3213 55.3024C73.7732 55.3024 73.2577 55.0886 72.8693 54.6996L58.2386 40.0723C57.6492 39.4834 56.6946 39.4836 56.1057 40.0727C55.517 40.6615 55.5172 41.6165 56.1061 42.2054L71.8657 57.9633C72.2535 58.351 72.4669 58.8666 72.4669 59.4151C72.4669 59.9647 72.2533 60.4809 71.8662 60.868C71.0645 61.669 69.7608 61.6692 68.9604 60.8686L66.3016 58.2099C66.2869 58.1946 66.2725 58.1791 66.2572 58.164C66.2528 58.1595 66.2478 58.1557 66.2432 58.1512L54.0217 45.9297C53.4324 45.3408 52.4778 45.3408 51.8888 45.9297C51.2997 46.5186 51.2997 47.4736 51.8888 48.0625L64.1495 60.3231C64.5243 60.7072 64.7307 61.2155 64.7307 61.7548C64.7307 62.3033 64.5169 62.8189 64.1293 63.2066C63.3292 64.0072 62.0266 64.0072 61.2258 63.2066L47.9313 49.9119C47.3421 49.3228 46.3875 49.3228 45.7984 49.9119C45.2093 50.5008 45.2093 51.4557 45.7984 52.0446L55.6531 61.8995C55.6559 61.9023 55.6581 61.9054 55.6611 61.908C56.0485 62.2948 56.2617 62.8095 56.2617 63.3574C56.2617 63.9058 56.0482 64.4214 55.6588 64.8107C55.2717 65.1988 54.7564 65.4125 54.2074 65.4125C54.0748 65.4125 53.9451 65.3989 53.8182 65.3749C54.0622 63.7311 53.5534 61.9962 52.2908 60.7334C51.2656 59.7084 49.9025 59.1436 48.4527 59.1436C48.4123 59.1436 48.3721 59.1457 48.3317 59.1466C48.3627 57.7174 47.8356 56.2784 46.7473 55.19C45.7219 54.165 44.3589 53.6003 42.909 53.6003C42.8182 53.6003 42.728 53.6025 42.638 53.6069C42.7105 52.1289 42.1838 50.6269 41.0575 49.5004C39.6864 48.1296 37.7592 47.648 35.996 48.0532L34.9145 46.9717C31.9379 43.9938 29.9575 40.2337 29.1868 36.0979C28.9044 34.5831 28.172 33.1992 27.069 32.0959L24.4104 29.4374L39.5354 14.3125L43.3047 18.0818C44.7536 19.5307 46.7262 20.306 48.7467 20.306C49.6515 20.306 50.5664 20.1503 51.4478 19.83C51.8753 19.6745 52.3174 19.5629 52.7653 19.4921L43.4274 28.8303C42.2848 29.9726 41.6556 31.4916 41.6556 33.1074C41.6556 34.7229 42.2848 36.2419 43.4272 37.3842C44.6064 38.5635 46.1549 39.1529 47.7041 39.1527C49.2529 39.1527 50.8019 38.5629 51.9813 37.3842L56.6714 32.6942L57.9408 33.9646C57.9411 33.9649 57.9413 33.9651 57.9417 33.9655L57.9944 34.0182L58.0452 34.069C58.0453 34.0691 58.0457 34.0695 58.0461 34.0697L58.047 34.0706C58.0616 34.085 58.0758 34.0987 58.09 34.1123L75.7731 51.7955C76.161 52.1831 76.3744 52.6988 76.3744 53.2473C76.3744 53.7967 76.161 54.3124 75.7726 54.7006ZM85.2719 32.2025C84.2255 33.2492 83.5383 34.549 83.2849 35.9614C82.5324 40.1516 80.543 43.9589 77.532 46.9714L76.3731 48.1305L66.8324 38.5899C67.0397 38.6052 67.2479 38.6153 67.4576 38.6153C68.4237 38.6153 69.4122 38.446 70.3963 38.0434C71.1672 37.728 71.5364 36.8474 71.2211 36.0766C70.9057 35.3059 70.0258 34.9365 69.2543 35.2519C65.3729 36.84 60.7194 32.4633 60.2013 31.9589C60.1926 31.9504 60.184 31.9421 60.1751 31.934L60.1216 31.8805C60.1215 31.8804 60.1213 31.8804 60.1211 31.8802L60.0744 31.8337C60.0742 31.8335 60.0739 31.8331 60.0735 31.833L58.8039 30.5624L60.2435 29.1226C60.8328 28.5335 60.8328 27.5787 60.2437 26.9897C59.6547 26.401 58.6999 26.4008 58.111 26.9897L55.6083 29.4924C55.6074 29.4933 55.6063 29.4942 55.6054 29.4951C55.6044 29.4961 55.6035 29.4972 55.6026 29.4981L49.8484 35.2523C48.6659 36.4346 46.7423 36.4342 45.5601 35.2523C44.9875 34.6796 44.6721 33.9181 44.6721 33.1081C44.6721 32.2981 44.9875 31.5366 45.5603 30.9639L55.4921 21.0317C56.0447 20.4794 56.6588 19.9934 57.3189 19.5864C58.8871 18.617 60.6983 18.1047 62.5568 18.1047C63.9756 18.1047 65.4042 18.4127 66.6886 18.9956C69.6103 20.3213 73.0829 19.7037 75.3292 17.4579L77.4286 15.3589L89.7722 27.7025L85.2719 32.2025ZM93.7621 27.4277L77.5811 11.2467L84.6054 4.22258L100.786 20.4036L93.7621 27.4277Z" fill="#232323"/>
<path d="M95.2814 23.0647C96.1143 23.0647 96.7895 22.3895 96.7895 21.5567C96.7895 20.7238 96.1143 20.0486 95.2814 20.0486C94.4485 20.0486 93.7733 20.7238 93.7733 21.5567C93.7733 22.3895 94.4485 23.0647 95.2814 23.0647Z" fill="#232323"/>
<path d="M19.8792 24.5547C20.7121 24.5547 21.3873 23.8795 21.3873 23.0466C21.3873 22.2138 20.7121 21.5386 19.8792 21.5386C19.0463 21.5386 18.3712 22.2138 18.3712 23.0466C18.3712 23.8795 19.0463 24.5547 19.8792 24.5547Z" fill="#232323"/>
</svg>
