<svg width="82" height="78" viewBox="0 0 82 78" fill="none" xmlns="http://www.w3.org/2000/svg">
<circle opacity="0.5" cx="57" cy="53" r="25" fill="#FF7800"/>
<path d="M19.789 44.5343C20.4798 44.1358 20.7162 43.2514 20.3178 42.5606C19.9188 41.8704 19.0349 41.6333 18.3441 42.0318C17.6533 42.4308 17.4163 43.3152 17.8153 44.0054C18.2138 44.6962 19.0981 44.9333 19.789 44.5343Z" fill="#232323"/>
<path d="M13.868 54.5065L21.1441 67.1098C22.7142 69.8324 26.2461 70.8404 29.0392 69.2257C31.803 67.6285 32.7529 64.0971 31.154 61.3311L26.8195 53.8225L30.5732 51.6553C31.264 51.2557 31.5011 50.3724 31.1021 49.6816L29.2232 46.4274C29.4473 46.3839 30.9203 46.095 56.8972 40.9991C60.1086 40.8247 62.0326 37.3126 60.4105 34.5048L55.6087 26.188L58.6773 21.5403C58.9787 21.0831 58.9967 20.4956 58.723 20.0215L55.8334 15.0166C55.5596 14.5425 55.0398 14.2648 54.4952 14.297L48.9366 14.6305L43.606 5.39722C42.8339 4.05962 41.4506 3.24973 39.9064 3.23054C39.8878 3.22998 39.8698 3.22998 39.8511 3.22998C38.3589 3.22998 37.0044 3.97271 36.2018 5.22846L17.3277 29.2724L5.05742 36.3565C0.231374 39.1417 -1.44033 45.333 1.35563 50.1721C3.91003 54.5968 9.29538 56.3374 13.868 54.5065ZM28.6521 62.7765C29.4501 64.1569 28.9777 65.9235 27.5933 66.7232C26.2043 67.5263 24.4355 67.033 23.6465 65.6655L16.4224 53.1514L21.4274 50.2618C29.7882 64.745 28.5177 62.5445 28.6521 62.7765ZM25.3747 51.3195L23.9299 48.817L26.4323 47.3722L27.8772 49.8746L25.3747 51.3195ZM53.7773 17.2346L55.7741 20.6932L53.9935 23.3898L50.5519 17.4282L53.7773 17.2346ZM38.6185 6.81269C39.0063 6.17832 39.6214 6.11285 39.8709 6.11963C40.1175 6.12245 40.7321 6.19921 41.1029 6.84147L57.908 35.9496C58.4555 36.8972 57.7901 38.0886 56.6924 38.1157C56.4954 38.1202 56.4045 38.1558 55.9 38.25L38.1236 7.46004C38.4966 6.98031 38.5446 6.93403 38.6185 6.81269ZM36.2007 9.90947L52.9025 38.8381L27.696 43.7821L20.0317 30.5072L36.2007 9.90947ZM3.85811 48.7272C3.22374 47.6295 2.88849 46.3834 2.88849 45.1225C2.88849 42.5455 4.27349 40.1458 6.50225 38.859L17.7634 32.3573L24.9875 44.8697L13.7264 51.3719C10.2763 53.3631 5.84982 52.1768 3.85811 48.7272Z" fill="#232323"/>
<path d="M15.3128 45.4504C14.9138 44.7596 14.03 44.5225 13.3392 44.9216L10.8367 46.3664C10.147 46.7648 9.26149 46.5272 8.86304 45.8376C8.46402 45.1468 7.58019 44.9097 6.88939 45.3087C6.19858 45.7078 5.96154 46.5916 6.36056 47.2824C7.54972 49.3424 10.2023 50.0687 12.2815 48.8689L14.784 47.424C15.4748 47.025 15.7118 46.1418 15.3128 45.4504Z" fill="#232323"/>
<path d="M71.8274 6.32048L63.7765 10.8006C63.0795 11.1889 62.8283 12.0687 63.2166 12.7658C63.6038 13.4622 64.4831 13.7145 65.1818 13.3256L73.2322 8.84554C73.9298 8.45724 74.1803 7.57737 73.792 6.88035C73.4043 6.18277 72.5244 5.93219 71.8274 6.32048Z" fill="#232323"/>
<path d="M70.9831 21.2845L65.4008 19.7889C64.6298 19.5823 63.8374 20.0395 63.6309 20.8104C63.4243 21.5814 63.882 22.3732 64.653 22.5798L70.2359 24.0754C71.0113 24.2836 71.7998 23.8191 72.0052 23.0538C72.2118 22.2829 71.7541 21.4905 70.9831 21.2845Z" fill="#232323"/>
<path d="M56.9548 1.07116L55.4575 6.65404C55.2509 7.42499 55.7081 8.21682 56.479 8.42395C57.2494 8.62995 58.0418 8.17393 58.2489 7.40242L59.7457 1.81953C59.9522 1.04858 59.4951 0.256188 58.7241 0.049623C57.9538 -0.156942 57.1614 0.30021 56.9548 1.07116Z" fill="#232323"/>
</svg>
