<svg width="90" height="78" viewBox="0 0 90 78" fill="none" xmlns="http://www.w3.org/2000/svg">
<circle opacity="0.5" cx="25" cy="53" r="25" fill="#FF7800"/>
<path d="M72.9468 7.7578L55.4466 0.0973998C55.149 -0.0324666 54.8108 -0.0324666 54.5133 0.0973998L37.0131 7.7578C36.5881 7.94327 36.3133 8.3628 36.3131 8.82647V27.1433C36.3194 31.2597 38.2975 35.1239 41.6332 37.536L53.7281 46.2593C54.4751 46.8 55.4848 46.8 56.2318 46.2593L68.3267 37.5372C71.6624 35.1251 73.6404 31.2609 73.6468 27.1445V8.82647C73.6465 8.3628 73.3717 7.94327 72.9468 7.7578ZM71.3134 27.1445C71.3081 30.5114 69.69 33.672 66.9617 35.6449L54.9799 44.2864L42.9982 35.6449C40.2698 33.672 38.6518 30.5114 38.6465 27.1445V9.58948L54.9799 2.44009L71.3134 9.58948V27.1445Z" fill="#232323"/>
<path d="M54.5133 5.19115L41.6798 10.8099C41.2549 10.9953 40.9801 11.4149 40.9798 11.8785V27.1445C40.9834 29.7621 42.2416 32.2194 44.3632 33.7526L54.2974 40.9183C54.705 41.2122 55.2549 41.2122 55.6624 40.9183L65.5967 33.7526C67.7183 32.2194 68.9765 29.7621 68.9801 27.1445V11.8785C68.9798 11.4149 68.705 10.9953 68.2801 10.8099L55.4466 5.19115C55.1491 5.06128 54.8108 5.06128 54.5133 5.19115ZM66.6467 12.6404V27.1445C66.6431 29.0124 65.7453 30.7656 64.2317 31.8602L54.9799 38.5336L45.7282 31.8602C44.2146 30.7656 43.3168 29.0124 43.3132 27.1445V12.6404L54.9799 7.53384L66.6467 12.6404Z" fill="#232323"/>
<path d="M29.6456 38.7329L27.1221 32.8365C26.5854 31.6209 25.441 30.7839 24.1199 30.6408C22.7988 30.4977 21.5017 31.0703 20.7173 32.1429C19.9328 33.2155 19.7802 34.6251 20.3168 35.8407L24.889 45.8986C25.5059 47.2602 26.364 48.499 27.4219 49.555L34.6121 56.7464C34.2072 57.1756 33.981 57.743 33.9798 58.3331V67.6665C33.9798 68.9552 35.0245 69.9998 36.3131 69.9998H49.1466C50.4353 69.9998 51.4799 68.9552 51.4799 67.6665V58.3331C51.4799 57.0444 50.4353 55.9997 49.1466 55.9997V53.8285C49.1823 51.0655 48.2809 48.3718 46.5892 46.1868C45.5974 44.8823 44.2458 43.8965 42.7007 43.3506C40.2435 42.3182 37.9837 40.868 36.0215 39.0642C34.2001 37.5642 31.6126 37.4297 29.6456 38.7329ZM49.1466 67.6665H36.3131V58.3331H49.1466V67.6665ZM44.768 47.644C46.1279 49.4157 46.8487 51.5953 46.8132 53.8285V55.9997H37.166L29.0716 47.9053C28.2119 47.0468 27.5143 46.0402 27.0124 44.9338L22.4402 34.8759C22.2451 34.4466 22.2814 33.9476 22.5366 33.5511C22.7918 33.1546 23.231 32.9148 23.7025 32.9147C24.2574 32.9142 24.759 33.2454 24.9765 33.7559L27.5864 39.8424C28.2794 41.4663 29.2784 42.9417 30.5287 44.1883L35.8581 49.5188C36.1511 49.8221 36.5848 49.9437 36.9927 49.837C37.4006 49.7302 37.7192 49.4116 37.826 49.0037C37.9327 48.5958 37.8111 48.1621 37.5078 47.8691L32.1784 42.5386C31.6425 42.004 31.1607 41.4178 30.7399 40.7886C31.8603 39.9264 33.4277 39.9526 34.5188 40.8516C36.6997 42.8531 39.2204 44.4492 41.9622 45.565C43.0793 45.9712 44.0542 46.6935 44.768 47.644Z" fill="#232323"/>
<path d="M45.6466 61.833H44.4799C43.8356 61.833 43.3132 62.3553 43.3132 62.9997C43.3132 63.644 43.8356 64.1664 44.4799 64.1664H45.6466C46.2909 64.1664 46.8133 63.644 46.8133 62.9997C46.8133 62.3553 46.2909 61.833 45.6466 61.833Z" fill="#232323"/>
<path d="M85.0709 45.8986L89.6431 35.8407C90.2053 34.621 90.0662 33.1929 89.2792 32.1045C88.4923 31.0162 87.1797 30.4366 85.8452 30.5883C84.5107 30.74 83.3617 31.5993 82.839 32.8365L80.3213 38.7107C78.3475 37.414 75.7587 37.5559 73.9384 39.0607C71.9762 40.8645 69.7164 42.3147 67.2592 43.3471C65.7142 43.893 64.3625 44.8789 63.3707 46.1833C61.6783 48.3692 60.7768 51.0643 60.8133 53.8285V55.9997C59.5247 55.9997 58.48 57.0444 58.48 58.3331V67.6665C58.48 68.9552 59.5247 69.9998 60.8133 69.9998H73.6468C74.9355 69.9998 75.9801 68.9552 75.9801 67.6665V58.3331C75.9789 57.743 75.7527 57.1756 75.3478 56.7464L82.538 49.555C83.5959 48.499 84.454 47.2602 85.0709 45.8986ZM73.6468 67.6665H60.8133V58.3331H73.6468V67.6665ZM72.7939 55.9997H63.1467V53.8285C63.1115 51.5957 63.8322 49.4166 65.1919 47.6452C65.9042 46.6953 66.8769 45.9727 67.9919 45.565C70.7342 44.4496 73.2553 42.8534 75.4365 40.8516C76.5263 39.9457 78.0981 39.9152 79.2223 40.7781C78.8003 41.412 78.3161 42.0021 77.7768 42.5398L72.4474 47.8703C72.0053 48.3281 72.0116 49.0558 72.4616 49.5058C72.9117 49.9558 73.6393 49.9621 74.0971 49.52L79.4265 44.1895C80.6769 42.9429 81.6758 41.4675 82.3689 39.8436L84.9787 33.7559C85.1969 33.246 85.6982 32.9155 86.2527 32.9159C86.7243 32.916 87.1634 33.1557 87.4187 33.5522C87.6739 33.9488 87.7102 34.4478 87.5151 34.877L82.9429 44.935C82.4409 46.0414 81.7434 47.048 80.8837 47.9065L72.7939 55.9997Z" fill="#232323"/>
<path d="M65.4801 61.833H64.3134C63.6691 61.833 63.1467 62.3553 63.1467 62.9997C63.1467 63.644 63.6691 64.1664 64.3134 64.1664H65.4801C66.1244 64.1664 66.6468 63.644 66.6468 62.9997C66.6468 62.3553 66.1244 61.833 65.4801 61.833Z" fill="#232323"/>
<path d="M54.4096 29.764H55.8676V27.982C58.1536 27.784 59.7556 26.47 59.7556 24.508C59.7556 22.546 58.5856 21.448 55.8496 20.764V17.344C56.6956 17.524 57.5056 17.902 58.2976 18.496L59.3056 16.804C58.3156 16.066 57.1816 15.598 55.8676 15.436V14.356H54.4096V15.4C52.1596 15.58 50.5756 16.894 50.5756 18.838C50.5756 20.89 51.7996 21.88 54.4276 22.564V26.092C53.2576 25.912 52.2856 25.372 51.2596 24.544L50.1076 26.182C51.3316 27.154 52.8436 27.784 54.4096 27.964V29.764ZM54.4276 20.386C53.0416 19.972 52.6996 19.486 52.6996 18.748C52.6996 17.92 53.2936 17.308 54.4276 17.218V20.386ZM55.8496 26.164V22.906C57.2536 23.32 57.6316 23.806 57.6316 24.598C57.6316 25.498 56.9836 26.074 55.8496 26.164Z" fill="#232323"/>
</svg>
