<svg width="117" height="78" viewBox="0 0 117 78" fill="none" xmlns="http://www.w3.org/2000/svg">
<circle opacity="0.5" cx="92" cy="53" r="25" fill="#FF7800"/>
<path d="M22.9064 50.4653C17.4923 50.4653 13.0894 54.846 13.0894 60.2328C13.0894 65.6195 17.4923 70.0002 22.9064 70.0002C28.3205 70.0002 32.7234 65.6195 32.7234 60.2328C32.7234 54.846 28.3203 50.4653 22.9064 50.4653ZM22.9064 66.7443C19.2969 66.7443 16.3618 63.8238 16.3618 60.2328C16.3618 56.6415 19.2971 53.7212 22.9064 53.7212C26.5157 53.7212 29.451 56.6417 29.451 60.2328C29.451 63.8238 26.5157 66.7443 22.9064 66.7443Z" fill="#232323"/>
<path d="M78.536 50.4653C73.1219 50.4653 68.719 54.846 68.719 60.2328C68.719 65.6195 73.1219 70.0002 78.536 70.0002C83.9501 70.0002 88.353 65.6195 88.353 60.2328C88.353 54.846 83.9501 50.4653 78.536 50.4653ZM78.536 66.7443C74.9265 66.7443 71.9914 63.8238 71.9914 60.2328C71.9914 56.6415 74.9267 53.7212 78.536 53.7212C82.1455 53.7212 85.0806 56.6417 85.0806 60.2328C85.0806 63.8238 82.1455 66.7443 78.536 66.7443Z" fill="#232323"/>
<path d="M97.9098 41.4452L83.1843 18.6545C82.8833 18.1888 82.3646 17.9072 81.8082 17.9072H63.8105C62.9057 17.9072 62.1744 18.6365 62.1744 19.5351V60.2326C62.1744 61.1328 62.9057 61.8604 63.8105 61.8604H70.3551V58.6045H65.4466V21.1631H80.9149L94.8976 42.8044V58.6049H86.7167V61.8606H96.5337C97.4385 61.8606 98.1698 61.133 98.1698 60.2328V42.3258C98.17 42.0148 98.08 41.7071 97.9098 41.4452Z" fill="#232323"/>
<path d="M71.9914 39.0696V27.6743H85.0808V24.4185H70.3553C69.4505 24.4185 68.7192 25.1478 68.7192 26.0463V40.6974C68.7192 41.5977 69.4505 42.3253 70.3553 42.3253H94.8978V39.0694H71.9914V39.0696Z" fill="#232323"/>
<path d="M63.8105 6.51172H1.6361C0.733015 6.51172 0 7.24103 0 8.13956V60.2325C0 61.1327 0.733015 61.8603 1.6361 61.8603H14.7255V58.6045H3.2724V9.7674H62.1744V58.6045H31.0871V61.8603H63.8105C64.7153 61.8603 65.4466 61.1327 65.4466 60.2325V8.13956C65.4466 7.24103 64.7153 6.51172 63.8105 6.51172Z" fill="#232323"/>
<path d="M11.4531 52.0928H1.63609V55.3486H11.4531V52.0928Z" fill="#232323"/>
<path d="M62.1744 52.0928H34.3595V55.3486H62.1744V52.0928Z" fill="#232323"/>
<path d="M96.5337 52.0928H89.9891V55.3486H96.5337V52.0928Z" fill="#232323"/>
<path d="M63.8105 13.0232H6.5446V16.2791H63.8105V13.0232Z" fill="#232323"/>
<path d="M24.5425 58.6045H21.2701V61.8604H24.5425V58.6045Z" fill="#232323"/>
<path d="M80.1723 58.6045H76.8999V61.8604H80.1723V58.6045Z" fill="#232323"/>
<path d="M29.451 0H6.5446V3.25587H29.451V0Z" fill="#232323"/>
<path d="M3.2724 0H0V3.25587H3.2724V0Z" fill="#232323"/>
</svg>
